<?xml version="1.0" standalone="no"?>
<!DOCTYPE svg PUBLIC "-//W3C//DTD SVG 20010904//EN"
 "http://www.w3.org/TR/2001/REC-SVG-20010904/DTD/svg10.dtd">
<svg version="1.0" xmlns="http://www.w3.org/2000/svg"
 width="1200.000000pt" height="1200.000000pt" viewBox="0 0 1200.000000 1200.000000"
 preserveAspectRatio="xMidYMid meet">

<g transform="translate(0.000000,1200.000000) scale(0.100000,-0.100000)"
fill="#000000" stroke="none">
<path d="M3 10568 c2 -788 5 -1437 6 -1443 2 -5 -1 -150 -4 -321 -7 -308 -7
-312 14 -333 16 -16 21 -17 21 -6 0 8 -5 15 -11 15 -5 0 -7 5 -4 11 8 12 55
-28 55 -47 0 -6 7 -15 16 -18 10 -4 14 -12 10 -22 -3 -8 1 -29 10 -46 12 -23
13 -32 4 -38 -9 -5 -10 -29 -5 -84 5 -54 4 -76 -4 -76 -6 0 -11 -17 -11 -40 0
-22 -4 -40 -10 -40 -5 0 -10 5 -10 11 0 5 -5 7 -10 4 -6 -3 -10 4 -10 17 l-1
23 -20 -25 c-19 -22 -19 -25 -3 -30 16 -6 15 -9 -6 -30 -20 -20 -23 -34 -26
-116 -2 -55 1 -94 7 -94 5 0 9 -7 9 -15 0 -8 -4 -15 -10 -15 -20 0 -10 -20 18
-34 l27 -15 -27 -1 -27 0 -1 -520 0 -520 40 0 40 0 0 -105 c0 -79 -3 -106 -14
-112 -11 -6 -16 -51 -22 -203 -10 -274 -22 -286 -23 -23 -1 136 -5 224 -11
228 -7 4 -10 -192 -10 -582 l0 -588 414 4 c460 4 486 1 560 -60 67 -56 68 -65
67 -411 l-2 -308 91 0 c88 0 117 -11 63 -25 -30 -7 -961 2 -1106 11 l-87 6 0
-2276 0 -2276 975 0 c536 0 975 2 975 4 0 2 -12 29 -26 60 -17 37 -27 82 -31
130 l-6 73 74 -25 c69 -25 86 -26 244 -25 256 1 511 35 832 109 184 42 314 87
577 199 l39 16 -7 -63 c-4 -35 -16 -100 -27 -146 -21 -91 -24 -138 -10 -146
10 -7 34 59 57 152 7 32 19 142 25 247 l11 189 51 75 c34 49 66 83 92 98 47
26 126 38 190 28 50 -7 46 -1 84 -120 26 -79 75 -167 133 -237 l39 -48 -26
-12 c-22 -10 -33 -8 -68 9 -73 36 -133 99 -207 217 -38 63 -77 117 -87 120
-39 16 -99 -87 -137 -236 -13 -51 -36 -151 -51 -223 -52 -246 -80 -321 -152
-400 l-35 -40 306 -3 c219 -2 313 1 329 9 61 33 407 267 517 350 69 53 148
108 175 124 118 68 286 205 379 311 49 55 60 73 59 101 -1 31 3 36 56 62 31
16 77 34 101 41 25 6 71 23 102 37 47 21 59 32 68 59 13 39 38 52 230 121 69
24 144 55 166 68 59 35 103 88 110 136 4 22 12 42 18 44 108 29 152 60 190
137 14 29 26 49 26 46 0 -4 16 -82 35 -175 58 -278 105 -542 125 -708 8 -70
68 -447 115 -732 7 -38 35 -46 35 -10 0 27 -30 219 -59 377 -11 63 -34 212
-51 330 -17 118 -40 265 -51 325 -40 212 -119 580 -130 598 -14 25 -3 37 34
37 18 1 43 7 57 15 32 18 138 19 350 0 91 -7 267 -19 393 -26 125 -7 227 -16
227 -19 0 -4 -7 -14 -17 -21 -29 -25 -52 -89 -42 -117 15 -38 37 -49 109 -56
l66 -7 -25 -92 c-22 -83 -24 -113 -25 -307 -1 -212 -1 -217 32 -345 l33 -130
-7 -205 c-5 -119 -11 -190 -15 -170 -5 29 -7 23 -8 -28 0 -36 3 -61 8 -58 5 4
9 -21 8 -59 -2 -54 1 -65 14 -65 15 0 18 20 23 148 3 81 8 188 11 237 2 50 5
97 5 105 0 8 11 -2 25 -23 14 -20 23 -41 20 -46 -3 -6 0 -13 6 -17 8 -5 10 -2
5 7 -4 8 -1 6 6 -4 7 -10 28 -34 46 -54 17 -19 32 -43 32 -52 0 -12 -5 -10
-20 9 l-20 25 10 -27 c6 -18 6 -28 0 -28 -6 0 -10 6 -10 14 0 8 -4 17 -8 20
-4 2 -6 -11 -4 -30 2 -19 8 -34 13 -34 5 0 8 -3 7 -7 -1 -5 1 -17 5 -29 4 -12
3 -32 -2 -45 -9 -21 -10 -22 -11 -4 0 17 -2 18 -11 5 -9 -13 -10 -13 -6 0 2 8
10 14 16 13 13 -4 15 23 2 32 -6 3 -14 -3 -20 -12 -14 -25 -14 -7 1 20 10 20
10 21 -5 8 -15 -12 -17 -10 -17 14 0 42 -10 24 -20 -37 -18 -102 -23 -123 -36
-143 -8 -11 -14 -30 -14 -42 l0 -23 2191 0 2192 0 -6 45 c-8 57 -103 886 -113
979 -6 60 -11 74 -38 99 -36 34 -20 28 44 -18 54 -39 104 -65 122 -65 7 1 -10
12 -38 25 -28 14 -61 36 -73 49 l-23 25 46 33 c26 18 59 35 74 39 27 5 26 5
-15 27 -23 12 -47 30 -52 40 -5 9 -14 112 -20 227 -22 414 -31 619 -31 707 l0
89 43 19 c23 11 54 20 69 20 l28 0 0 2131 c0 1692 -3 2135 -12 2147 -10 13
-10 14 0 8 7 -4 12 -2 12 7 0 15 -76 77 -140 116 -19 11 -30 21 -24 21 5 0 44
-22 85 -50 l74 -49 3 391 c1 215 0 393 -3 396 -7 7 -81 -43 -148 -101 -32 -27
-60 -47 -63 -45 -6 6 136 131 183 162 l33 21 0 1278 0 1277 -102 0 c-115 -1
-918 -42 -1243 -64 -115 -8 -372 -19 -570 -25 -198 -6 -465 -16 -594 -22 -130
-6 -237 -7 -242 -2 -5 5 -9 369 -9 808 l-1 800 88 6 c48 4 198 12 333 18 326
16 502 26 825 50 149 11 317 22 375 25 58 4 218 13 355 21 138 8 370 20 518
27 l267 12 0 148 0 148 -1850 0 -1850 0 0 -239 c0 -182 -3 -241 -12 -245 -7
-3 -3 -3 10 0 21 5 22 3 22 -75 0 -65 -3 -81 -15 -81 -11 0 -15 -11 -15 -40 0
-22 5 -40 10 -40 6 0 10 -18 10 -40 0 -29 -4 -40 -15 -40 -12 0 -15 -15 -15
-79 0 -70 2 -79 20 -84 18 -5 20 -14 20 -75 0 -39 -4 -74 -10 -77 -5 -3 -10
-28 -10 -55 0 -27 -4 -60 -10 -74 -5 -14 -6 -26 -1 -26 8 0 -2 -65 -21 -130
-7 -27 -16 -36 -33 -38 -21 -1 -289 161 -440 267 -27 19 -126 86 -220 149 -93
63 -226 154 -293 201 -68 47 -134 93 -146 101 -20 14 -215 153 -245 175 -7 5
-31 26 -52 46 -55 52 -51 93 13 115 44 14 48 42 41 232 l-6 152 -336 -1 c-319
0 -335 -1 -311 -17 81 -55 129 -122 88 -122 -6 0 -57 32 -115 70 l-105 70 -83
0 -84 0 -3 -32 -3 -33 -20 33 -19 32 -2486 0 -2486 0 -24 -122 c-48 -254 -176
-736 -202 -763 -5 -6 -5 2 1 17 7 19 7 35 0 50 l-10 23 5 -22 c2 -13 0 -23 -5
-23 -12 0 -14 -16 31 229 32 176 90 561 90 601 0 6 -147 10 -405 10 l-405 0 3
-1432z m11844 1385 c-20 -2 -52 -2 -70 0 -17 2 0 4 38 4 39 0 53 -2 32 -4z
m-5316 -194 c81 -55 116 -86 108 -94 -3 -2 -21 3 -40 14 -132 69 -164 91 -167
110 -5 33 18 26 99 -30z m4164 31 c-3 -5 -12 -10 -18 -10 -7 0 -6 4 3 10 19
12 23 12 15 0z m-1615 -567 c0 -7 -4 -13 -9 -13 -5 0 -8 12 -8 26 0 18 2 22 8
13 5 -8 9 -20 9 -26z m-2325 -23 c0 -25 5 -49 10 -53 12 -10 -93 1 -112 11
-17 10 64 94 86 90 12 -2 16 -15 16 -48z m-385 -10 c358 -63 687 -171 990
-326 217 -111 361 -215 522 -376 265 -267 402 -536 478 -938 69 -369 89 -480
102 -575 17 -131 17 -749 0 -1060 -27 -481 -34 -733 -39 -1465 -6 -777 3
-1169 32 -1490 20 -215 44 -402 60 -465 7 -27 12 -51 11 -53 -2 -1 -25 39 -51
90 -26 51 -60 111 -75 133 -40 57 -127 137 -208 190 l-71 46 4 72 c12 177 35
945 42 1402 12 732 10 2259 -2 2263 -7 1 -12 -355 -16 -1045 -3 -577 -11
-1235 -17 -1463 -15 -560 -40 -1240 -47 -1290 -2 -14 -6 -99 -9 -190 -4 -91
-9 -182 -12 -203 -6 -35 -8 -37 -44 -37 -20 0 -42 6 -48 13 -17 20 -30 83 -51
248 -24 182 -25 234 -9 466 10 155 9 197 -7 181 -6 -6 -18 -138 -40 -433 -15
-206 -40 -444 -47 -450 -3 -2 -321 16 -325 19 -1 1 5 43 12 93 36 240 75 753
99 1303 57 1265 68 2439 30 2935 -39 506 -114 891 -244 1257 -49 136 -151 345
-165 338 -5 -3 -9 -7 -8 -10 1 -3 29 -63 62 -135 167 -365 266 -797 326 -1430
17 -180 38 -788 33 -970 l-3 -120 -39 75 c-21 41 -56 126 -77 189 -21 62 -61
156 -90 209 -44 83 -99 214 -99 236 0 11 41 -41 88 -111 42 -62 59 -79 69 -70
6 7 -85 142 -138 203 -23 26 -50 67 -60 90 -18 44 -192 569 -203 615 l-6 26
203 -64 c210 -66 277 -82 277 -66 0 5 -42 22 -92 37 -51 15 -163 49 -248 76
l-156 49 -27 118 c-21 93 -29 163 -37 328 -12 236 -16 275 -32 275 -8 0 -9
-38 -4 -132 12 -238 19 -558 13 -558 -14 0 -306 109 -344 128 l-39 21 -27 118
c-15 65 -38 214 -53 332 -28 231 -43 308 -59 303 -11 -3 -9 -67 5 -152 32
-192 63 -570 46 -570 -2 0 -20 7 -39 15 -43 18 -47 18 -47 5 0 -6 20 -20 45
-32 l45 -22 0 -112 c0 -401 -117 -877 -298 -1214 -88 -165 -210 -340 -277
-399 -25 -21 -35 -37 -31 -48 6 -14 11 -12 37 13 45 42 136 165 208 279 232
370 356 799 398 1378 3 42 9 77 14 77 10 0 69 -274 69 -320 0 -8 -18 -24 -40
-34 -54 -26 -56 -53 -2 -30 20 8 41 16 47 17 8 2 23 -85 49 -280 l6 -51 -60
-37 c-33 -20 -62 -41 -66 -47 -10 -15 34 0 78 28 21 13 40 24 43 24 3 0 5 -22
5 -49 0 -45 -2 -49 -27 -56 -55 -13 -123 -48 -123 -61 0 -11 9 -10 41 6 23 12
43 19 46 16 3 -3 -13 -26 -36 -51 -42 -46 -141 -233 -141 -267 0 -27 25 -22
46 10 41 63 98 121 143 146 72 39 81 36 81 -26 0 -47 -3 -54 -40 -86 -50 -42
-85 -108 -101 -193 -12 -65 -19 -302 -8 -313 3 -3 16 -7 30 -8 23 -3 24 0 29
61 5 57 8 66 40 92 36 31 50 36 50 19 0 -6 11 -15 25 -20 14 -5 25 -17 25 -27
0 -32 40 -84 76 -99 32 -13 39 -13 78 5 36 15 48 29 71 75 31 64 31 64 109 -5
l49 -43 -6 -79 c-8 -93 -28 -139 -80 -181 -31 -25 -49 -31 -102 -34 -89 -6
-190 13 -231 44 -18 14 -49 50 -70 80 -20 29 -43 54 -51 54 -18 0 -17 -7 9
-43 33 -49 100 -117 131 -133 38 -20 210 -30 266 -15 60 17 136 89 155 149 32
99 45 255 30 366 l-7 46 -58 0 c-58 0 -59 0 -59 28 0 22 7 32 35 45 19 9 35
20 35 25 0 17 -76 116 -112 145 -21 17 -57 33 -84 38 -57 11 -58 12 -49 39 6
19 12 21 39 16 93 -19 283 -143 353 -232 53 -68 84 -140 90 -212 7 -83 -9
-191 -36 -243 -25 -47 -16 -49 33 -10 39 31 85 88 125 154 12 20 26 37 29 37
7 -1 84 -165 96 -202 3 -9 1 -96 -5 -192 -9 -169 -11 -180 -53 -305 -96 -281
-324 -716 -439 -838 -76 -81 -173 -132 -527 -283 -228 -96 -593 -233 -635
-237 -74 -8 -362 92 -545 189 -118 63 -415 250 -518 327 -125 93 -177 153
-232 266 -57 117 -175 463 -189 556 -28 180 -42 704 -18 665 35 -57 148 -158
162 -144 2 2 -11 32 -28 68 -28 56 -32 74 -32 145 0 77 2 84 52 180 32 61 75
125 112 165 l59 65 17 -40 c15 -34 15 -45 5 -70 -55 -131 -69 -222 -56 -347 9
-84 13 -88 64 -81 39 5 43 9 54 45 12 40 57 98 77 98 5 0 23 -26 38 -57 23
-48 36 -62 76 -82 44 -22 51 -22 84 -10 45 18 75 71 81 146 4 49 6 53 26 47
69 -22 96 -67 103 -173 4 -62 1 -86 -17 -134 -37 -97 -51 -107 -156 -116 -55
-5 -122 -3 -169 3 -72 10 -80 14 -111 50 -30 35 -40 64 -35 104 2 13 -23 15
-52 4 -16 -7 -14 -14 21 -67 73 -112 103 -125 285 -125 177 0 206 19 253 164
23 72 26 98 28 238 0 86 -2 159 -5 163 -4 3 -32 9 -63 12 -93 10 -101 49 -19
85 27 11 50 22 51 24 2 1 -17 35 -42 74 -52 79 -94 106 -186 117 -47 5 -61 15
-42 27 22 13 151 -17 217 -50 143 -73 230 -163 325 -339 61 -112 167 -275 180
-275 18 0 11 15 -56 121 -73 114 -209 385 -247 492 -20 54 -22 69 -11 75 10 6
6 17 -17 51 -16 24 -29 56 -29 70 0 14 -9 49 -19 76 -42 110 -86 507 -79 709
l3 89 62 21 c59 20 92 40 82 50 -3 3 -36 -4 -73 -15 -37 -11 -69 -19 -71 -17
-5 5 23 309 35 380 6 35 26 144 45 243 18 99 32 181 30 183 -11 11 -33 -9 -38
-35 -4 -15 -24 -116 -46 -223 -22 -107 -61 -271 -86 -365 -25 -93 -49 -183
-53 -200 -7 -28 -15 -33 -147 -77 -118 -39 -277 -85 -398 -114 l-29 -7 7 79
c19 227 60 408 155 678 33 92 60 172 60 177 0 4 -7 6 -16 2 -21 -8 -54 -85
-98 -229 -20 -66 -48 -150 -62 -189 -83 -231 -107 -302 -138 -410 l-34 -120
-61 -11 c-34 -6 -64 -14 -68 -17 -10 -10 47 -20 84 -14 32 6 35 4 29 -16 -53
-215 -79 -364 -95 -557 -6 -69 -14 -141 -17 -160 l-7 -35 -8 30 c-23 81 -73
423 -99 680 -36 345 -45 645 -30 949 13 256 16 313 24 414 2 23 2 42 0 42 -9
0 -131 -109 -192 -172 -161 -166 -280 -343 -407 -603 -179 -368 -297 -816
-330 -1260 -4 -44 -13 -132 -21 -195 -8 -69 -14 -205 -14 -339 0 -123 -3 -222
-6 -219 -9 10 -42 207 -59 363 -22 190 -16 633 9 790 42 253 91 432 187 674
158 399 349 672 719 1027 166 158 368 298 585 404 177 86 465 178 665 211 268
44 698 48 920 9z m-4533 -272 c-2 -18 -4 -4 -4 32 0 36 2 50 4 33 2 -18 2 -48
0 -65z m21 -285 c15 -13 14 -13 -5 -3 -21 10 -23 17 -21 73 l2 62 3 -59 c3
-41 10 -64 21 -73z m-720 -163 c9 -24 8 -30 -4 -30 -7 0 -14 9 -14 19 0 11 -3
27 -7 37 -4 11 -3 15 4 11 6 -4 16 -20 21 -37z m34 -167 c2 -51 -1 -83 -7 -84
-5 0 -4 -3 3 -6 28 -11 5 -43 -31 -43 -12 0 -13 167 -1 219 4 21 7 22 19 10 8
-9 15 -45 17 -96z m2397 98 c11 -7 17 -45 23 -143 10 -159 4 -236 -24 -289
-11 -22 -18 -43 -14 -46 11 -11 50 -11 66 -1 38 26 -76 -72 -165 -141 -111
-86 -132 -100 -121 -83 4 7 11 33 15 60 12 70 14 74 45 107 73 78 155 336 143
452 -5 52 0 93 12 93 3 0 12 -4 20 -9z m666 -11 c3 -6 -1 -7 -9 -4 -9 3 -16 2
-16 -4 0 -6 6 -13 13 -15 9 -4 9 -6 0 -6 -15 -1 -26 16 -18 29 8 13 22 13 30
0z m-2063 -79 c2 -22 -1 -51 -7 -79 -9 -39 -25 -13 -25 42 0 40 4 53 15 53 8
0 16 -7 17 -16z m-299 -231 c3 -11 1 -23 -4 -26 -5 -3 -9 6 -9 20 0 31 6 34
13 6z m202 0 c3 -5 -1 -10 -9 -10 -8 0 -18 5 -21 10 -3 6 1 10 9 10 8 0 18 -4
21 -10z m2028 -83 c-3 -7 -34 -52 -68 -102 -35 -49 -66 -100 -69 -112 -9 -27
-26 -30 -26 -5 0 38 143 248 161 237 5 -4 6 -12 2 -18z m-2938 -53 l30 -14
-28 5 c-19 4 -26 2 -22 -5 3 -5 -2 -10 -12 -11 -10 0 -26 -2 -36 -4 -9 -2 -16
0 -14 3 2 4 7 15 10 25 8 21 32 21 72 1z m120 -91 c5 -17 2 -23 -9 -23 -11 0
-16 10 -16 32 0 34 13 29 25 -9z m-218 -25 c-3 -8 -6 -5 -6 6 -1 11 2 17 5 13
3 -3 4 -12 1 -19z m2466 -87 c-51 -108 -62 -121 -98 -121 -14 0 -36 -5 -47
-11 -23 -12 -36 -3 -40 28 -2 18 21 41 112 112 63 49 116 89 117 88 1 -1 -19
-44 -44 -96z m-2283 65 c0 -2 -26 -19 -57 -36 -32 -18 -66 -39 -75 -47 -9 -8
-22 -12 -29 -7 -9 5 -10 2 -6 -10 6 -14 3 -17 -8 -12 -9 3 -13 2 -10 -3 3 -5
1 -12 -5 -16 -16 -10 -12 -25 8 -25 15 0 15 -2 -3 -18 -11 -9 -18 -16 -16 -15
2 2 10 -2 18 -8 10 -9 13 -8 13 4 0 22 36 41 46 25 4 -6 3 -8 -2 -5 -6 3 -16
2 -24 -3 -12 -7 -12 -12 -2 -22 9 -9 12 -9 12 3 0 10 2 11 8 2 4 -7 39 -13 82
-16 46 -2 21 -4 -63 -5 -91 -1 -136 1 -132 8 4 6 14 52 24 103 l18 92 84 3
c71 2 104 5 117 11 1 0 2 -1 2 -3z m10540 -23 c-14 -3 -29 -9 -34 -14 -16 -15
-28 -10 -14 6 7 8 27 14 43 13 27 -1 27 -1 5 -5z m-9982 -214 c20 -8 23 -14
18 -37 -4 -15 -8 -41 -10 -59 -2 -17 -6 -36 -10 -41 -3 -6 -2 -13 4 -17 6 -4
10 -56 10 -126 0 -118 0 -120 -25 -131 -19 -9 -25 -19 -25 -43 0 -18 7 -38 15
-45 22 -18 18 -47 -7 -54 -28 -7 -283 -8 -290 -1 -3 3 0 30 7 60 11 43 10 67
0 122 -7 37 -16 113 -19 168 -3 55 -9 119 -12 142 -5 36 -3 43 17 53 52 28
261 34 327 9z m3535 -76 c-5 -80 -8 -93 -25 -99 -34 -11 -34 -6 9 144 8 30 16
52 18 50 2 -2 1 -45 -2 -95z m-4310 0 c-7 -2 -19 -2 -25 0 -7 3 -2 5 12 5 14
0 19 -2 13 -5z m1868 -23 c10 -6 35 -11 55 -12 l36 -1 -23 -19 c-39 -30 -106
-64 -90 -45 12 15 8 16 -40 14 -50 -2 -54 0 -57 21 -2 14 4 29 15 37 21 17 77
19 104 5z m-1818 -46 c3 -3 44 -6 92 -6 93 -1 105 -8 105 -62 l0 -26 -140 0
-140 0 0 33 c0 26 6 35 33 48 39 20 42 21 50 13z m3590 -76 c-8 -153 -5 -143
-42 -146 -32 -3 -33 -3 -26 30 8 36 65 198 70 198 2 0 1 -37 -2 -82z m-1702
32 c-22 -19 -41 -26 -41 -15 0 5 51 34 60 34 3 0 -6 -9 -19 -19z m409 -4 c0
-2 -7 -9 -15 -16 -13 -11 -14 -10 -9 4 5 14 24 23 24 12z m1968 -148 l-3 -143
-62 -2 c-74 -2 -72 -12 -38 142 25 114 43 145 86 145 19 0 19 -8 17 -142z
m-2550 107 c-2 -1 -14 -8 -28 -15 l-25 -13 20 20 c11 11 24 18 28 16 5 -3 7
-6 5 -8z m2415 -130 c-25 -115 -30 -128 -53 -137 -25 -10 -25 -10 -4 -18 l22
-9 -18 -88 c-10 -48 -24 -126 -30 -173 -7 -47 -13 -86 -15 -87 -1 -2 -41 -10
-89 -18 -86 -15 -190 -55 -245 -95 l-29 -20 -10 47 c-30 139 -52 353 -52 497
l0 73 103 27 c106 27 387 111 422 125 11 5 21 7 23 6 2 -2 -9 -60 -25 -130z
m1467 114 c30 -11 109 -40 175 -63 101 -37 121 -47 123 -66 5 -28 -26 -435
-41 -555 l-12 -90 -103 -3 -103 -3 3 53 3 53 75 5 c102 7 93 26 -10 22 -65 -3
-80 -1 -80 11 0 8 -9 83 -20 168 -17 123 -18 154 -8 161 27 18 125 3 189 -30
65 -34 79 -38 79 -23 0 16 -87 61 -150 77 -34 8 -80 14 -103 12 l-41 -3 -17
105 c-10 58 -22 124 -27 148 -12 50 -9 50 68 21z m354 -71 c5 -22 3 -26 -9
-22 -11 4 -15 20 -14 53 1 47 4 43 23 -31z m-5754 -27 c0 -92 7 -86 -133 -97
-65 -5 -90 -4 -102 6 -14 12 -18 11 -26 -1 -5 -8 -9 -18 -9 -23 0 -5 57 -7
135 -3 79 3 135 2 135 -4 0 -5 -62 -9 -140 -9 l-140 0 0 40 c0 37 2 40 19 31
12 -7 40 -7 82 0 35 5 79 12 97 15 29 4 32 8 32 38 0 28 -4 34 -22 35 -80 2
-87 3 -91 19 -3 12 -5 10 -6 -6 0 -13 -5 -20 -11 -17 -6 4 -8 11 -5 16 4 5 2
9 -4 9 -5 0 -11 -4 -13 -9 -1 -5 -18 -12 -35 -16 -32 -6 -33 -5 -33 24 l0 31
135 0 135 0 0 -79z m-1202 -318 c-2 -280 -3 -314 -7 -173 -6 172 -2 520 5 520
2 0 3 -156 2 -347z m6958 289 c8 -5 198 -561 222 -651 2 -7 -15 0 -40 17 -51
37 -192 95 -216 89 -13 -3 -9 -7 13 -16 114 -50 215 -105 241 -133 26 -28 80
-136 72 -144 -2 -1 -29 17 -60 41 -76 57 -184 111 -253 125 -30 6 -57 15 -60
20 -3 5 1 62 9 127 8 65 20 197 26 293 16 246 17 252 46 232z m-2373 -164 c7
-157 27 -319 58 -473 l21 -100 -64 -65 c-70 -72 -167 -212 -197 -287 l-20 -48
0 105 c-2 253 35 625 83 845 35 160 38 165 79 165 l34 0 6 -142z m-4626 -85
c-1 -82 -3 -129 -5 -105 -2 23 -7 42 -13 42 -5 0 -9 18 -9 40 0 22 5 40 10 40
6 0 10 28 10 65 0 36 2 65 4 65 3 0 4 -66 3 -147z m2808 127 c16 -7 11 -9 -22
-9 -23 -1 -45 4 -48 9 -8 12 42 12 70 0z m2509 -92 c4 -40 16 -135 27 -211 11
-77 18 -141 15 -144 -2 -3 -20 6 -38 20 -46 34 -58 40 -58 28 0 -5 27 -31 60
-56 45 -35 62 -55 71 -85 15 -48 9 -57 -23 -36 -43 28 -129 56 -204 67 -78 12
-79 13 -68 67 6 28 11 31 55 37 57 8 56 25 -2 25 -36 0 -39 2 -39 28 0 27 46
293 55 320 3 8 27 12 73 12 l69 0 7 -72z m-4041 -145 c-13 -2 -33 -2 -45 0
-13 2 -3 4 22 4 25 0 35 -2 23 -4z m-220 -10 c-24 -2 -62 -2 -85 0 -24 2 -5 4
42 4 47 0 66 -2 43 -4z m-295 -10 c-38 -2 -98 -2 -135 0 -38 2 -7 3 67 3 74 0
105 -1 68 -3z m4307 -195 c-4 -24 -8 -43 -9 -43 0 -1 -38 -8 -83 -17 -46 -9
-118 -32 -162 -51 l-80 -34 -7 30 c-5 24 -2 34 17 49 45 35 134 71 219 89 119
25 113 26 105 -23z m6352 -190 c-3 -8 -6 -5 -6 6 -1 11 2 17 5 13 3 -3 4 -12
1 -19z m-5990 -14 c-9 -9 -28 6 -21 18 4 6 10 6 17 -1 6 -6 8 -13 4 -17z
m-5160 -406 c-1 -73 -3 -14 -3 132 0 146 2 205 3 133 2 -73 2 -193 0 -265z
m6583 343 c0 -20 -31 -43 -84 -61 -33 -11 -61 -20 -63 -20 -1 0 -3 20 -3 44
l0 45 43 3 c52 4 107 -2 107 -11z m-3750 -52 c0 -31 -4 -48 -10 -44 -5 3 -10
29 -10 56 0 31 4 48 10 44 6 -3 10 -29 10 -56z m1928 50 c-2 -6 -28 -21 -58
-32 -30 -10 -79 -37 -108 -59 l-52 -39 -11 27 c-5 15 -7 34 -5 41 14 35 245
96 234 62z m-9 -167 c-5 -78 -13 -129 -30 -176 -13 -36 -26 -66 -29 -66 -7 0
-130 224 -130 236 0 23 81 88 131 104 30 10 56 17 59 15 3 -2 2 -53 -1 -113z
m1805 71 c-10 -39 -79 -240 -98 -283 -15 -33 -15 -28 -16 116 l0 151 48 21
c64 29 74 28 66 -5z m4613 -165 c-3 -8 -6 -5 -6 6 -1 11 2 17 5 13 3 -3 4 -12
1 -19z m-11397 -22 c0 -8 -5 -18 -10 -21 -5 -3 -10 3 -10 14 0 12 5 21 10 21
6 0 10 -6 10 -14z m6776 -72 c9 -37 -18 -55 -48 -31 -12 9 -14 18 -7 35 12 31
47 29 55 -4z m2984 -15 c131 -22 186 -42 78 -28 -75 10 -231 40 -237 45 -9 8
39 3 159 -17z m1629 -191 c1 -36 -3 -48 -14 -48 -12 0 -15 14 -15 63 0 106 27
91 29 -15z m-11162 20 c-3 -7 -5 -2 -5 12 0 14 2 19 5 13 2 -7 2 -19 0 -25z
m2783 5 c0 32 17 17 35 -30 9 -27 30 -64 45 -83 38 -50 48 -127 19 -163 -11
-15 -27 -27 -34 -27 -17 0 -35 30 -35 57 0 25 -33 93 -59 120 -26 28 -27 48
-1 66 17 12 19 19 10 41 -14 37 -12 45 5 22 13 -17 15 -18 15 -3z m-782 -32
c29 -4 57 -12 63 -18 13 -13 41 -220 33 -245 -6 -19 -21 -21 -143 -18 -43 1
-61 -2 -56 -9 11 -19 -18 -12 -70 17 l-50 27 3 120 c3 76 8 123 15 127 15 10
136 9 205 -1z m9221 -135 c42 -37 63 -101 67 -201 l3 -90 -14 80 c-18 105 -35
165 -47 165 -5 0 -7 4 -4 9 7 11 -57 61 -79 61 -9 0 -26 -5 -38 -11 -15 -7
-12 -3 8 14 28 23 31 24 55 9 14 -9 36 -25 49 -36z m-1519 15 c-113 -20 -186
-55 -230 -111 -17 -22 -36 -38 -41 -35 -5 4 -6 0 -4 -7 3 -8 -6 -25 -20 -38
-14 -13 -25 -19 -25 -14 0 5 -16 -16 -35 -46 -46 -73 -45 -51 1 26 89 149 245
244 399 242 43 0 37 -2 -45 -17z m1790 -11 c-11 -16 -26 -33 -32 -36 -7 -4 1
9 16 29 34 44 46 50 16 7z m-480 -87 c-22 -32 -54 -74 -70 -93 l-30 -35 6 30
c10 49 37 97 64 114 l25 15 -19 -22 c-11 -12 -14 -22 -9 -22 6 0 23 16 37 35
44 57 41 40 -4 -22z m-7007 -55 c41 -57 89 -119 106 -138 30 -34 31 -37 31
-136 0 -194 41 -790 85 -1247 77 -800 208 -1529 355 -1980 21 -66 38 -123 36
-124 -2 -2 -39 26 -84 61 -90 73 -174 167 -240 270 -47 75 -67 115 -38 81 16
-19 17 -19 10 15 -3 19 -14 60 -24 90 -46 141 -153 614 -194 860 -48 285 -100
746 -116 1034 -9 169 -15 1316 -6 1316 2 0 38 -46 79 -102z m7445 72 c-14 -22
-24 -19 -15 5 4 8 11 15 17 15 6 0 6 -7 -2 -20z m-10581 -124 c60 -8 116 -22
135 -33 35 -20 67 -71 51 -82 -5 -3 -26 -33 -46 -66 l-36 -60 -5 -163 c-3 -90
-8 -167 -11 -172 -4 -6 -14 -10 -24 -10 -29 0 -39 -21 -33 -70 15 -143 0 -545
-24 -612 -8 -22 -14 -56 -14 -74 0 -28 4 -35 28 -41 32 -9 -101 -20 -269 -22
l-106 -1 -6 227 c-4 124 -7 371 -7 547 1 410 11 474 94 586 49 65 86 71 273
46z m628 -8 c-11 -50 -35 -170 -35 -179 0 -21 31 -7 42 19 52 128 82 182 97
176 9 -3 24 -9 34 -11 28 -9 20 -27 -39 -83 -30 -29 -66 -69 -79 -90 -13 -21
-29 -41 -34 -44 -18 -11 -31 31 -30 97 1 35 -3 73 -9 83 -16 31 -15 39 10 46
42 11 49 9 43 -14z m486 -55 c13 -16 12 -17 -3 -4 -10 7 -18 15 -18 17 0 8 8
3 21 -13z m-150 -70 c49 -42 63 -55 200 -186 213 -206 246 -237 255 -237 5 0
23 -15 40 -33 16 -18 37 -37 45 -41 7 -4 25 -13 38 -21 18 -10 30 -11 44 -3
11 5 34 7 51 4 17 -4 65 -9 106 -12 41 -4 85 -13 98 -21 l23 -14 -2 -227 c-2
-250 -18 -421 -42 -468 -9 -17 -41 -56 -71 -88 -66 -70 -93 -122 -102 -197 -6
-53 -5 -56 17 -63 19 -5 21 -8 10 -15 -14 -9 -521 -4 -531 6 -2 2 2 8 9 12 10
6 10 10 2 16 -7 4 -19 1 -27 -6 -24 -19 -32 1 -25 61 3 30 4 69 1 85 -5 26 -7
27 -13 10 -8 -18 -9 -18 -20 5 -9 18 -22 26 -46 28 -19 2 -37 -1 -40 -6 -3 -6
-41 -13 -83 -17 -68 -6 -78 -5 -78 9 0 10 9 16 25 16 28 0 35 20 8 21 -12 0
-14 2 -5 6 10 4 8 11 -9 29 -20 21 -32 24 -103 26 -76 2 -73 2 33 7 l113 6 -1
140 c-1 76 -3 140 -4 142 -1 1 -86 3 -189 5 l-186 3 2 -153 c0 -83 -2 -152 -5
-152 -3 0 -11 19 -16 43 l-10 42 -9 -45 -9 -45 -6 45 -6 45 -8 -33 c-5 -24
-10 -30 -16 -20 -7 10 -9 10 -9 1 0 -7 -4 -13 -10 -13 -5 0 -10 7 -10 15 0 18
-20 20 -20 3 -1 -7 -7 -59 -14 -115 -9 -73 -9 -103 -2 -104 6 0 5 -3 -3 -6
-11 -5 -11 -7 0 -14 12 -8 11 -11 -1 -19 -13 -8 -15 52 -18 516 -1 289 1 532
6 540 11 20 242 251 349 351 139 128 180 157 230 162 6 0 26 -11 44 -26z
m-568 -1 c-4 -10 -9 -10 -22 0 -9 7 -17 13 -19 14 -2 1 8 1 21 0 15 0 23 -6
20 -14z m1976 -119 c-1 -65 -4 -107 -8 -93 -7 25 -51 43 -51 21 0 -19 -18 -12
-25 10 -4 13 -1 27 7 36 9 8 13 25 10 38 -4 24 -5 24 -34 9 -36 -19 -53 -7
-44 29 6 24 57 47 104 47 11 0 24 5 27 10 13 21 15 6 14 -107z m-1955 80 c-2
-16 -1 -22 2 -15 12 25 24 -1 24 -52 0 -45 -6 -62 -39 -112 -39 -61 -91 -116
-91 -97 0 14 39 61 40 48 0 -18 31 35 36 63 2 15 9 48 14 74 6 29 6 57 1 71
-6 16 -6 28 2 36 15 15 15 15 11 -16z m10176 13 c0 -2 -8 -10 -17 -17 -16 -13
-17 -12 -4 4 13 16 21 21 21 13z m-9291 -63 c2 -2 1 -6 -2 -10 -8 -8 -57 36
-57 50 0 6 12 0 28 -14 15 -13 29 -25 31 -26z m8706 -51 c-3 -3 -11 0 -18 7
-9 10 -8 11 6 5 10 -3 15 -9 12 -12z m-10448 -194 c-4 -112 -7 -371 -7 -575 0
-325 -2 -373 -15 -373 -13 0 -15 39 -15 295 l0 295 -75 0 c-64 0 -75 3 -75 17
0 13 3 14 12 5 7 -7 21 -12 33 -12 16 0 17 2 5 10 -12 8 -10 10 8 10 13 0 20
4 17 10 -10 16 7 12 28 -7 19 -17 20 -17 14 0 -6 15 -3 17 15 11 20 -6 21 -5
9 10 -12 14 -11 16 7 16 17 0 19 4 13 28 -7 26 -11 27 -81 32 -63 4 -74 8 -77
25 -1 11 0 104 4 207 l6 187 41 4 c23 2 63 4 90 5 l49 2 -6 -202z m1823 182
c0 -5 -9 -10 -20 -10 -11 0 -20 5 -20 10 0 6 9 10 20 10 11 0 20 -4 20 -10z
m8676 -32 l29 -33 -30 25 c-16 14 -34 28 -39 32 -6 5 -6 8 0 8 6 0 23 -15 40
-32z m-3624 -262 l-8 -149 -42 -38 c-37 -35 -46 -39 -96 -39 -30 0 -57 4 -60
9 -7 10 19 69 104 246 32 66 69 147 82 180 l23 60 3 -60 c1 -33 -1 -127 -6
-209z m-5004 224 c12 -12 22 -25 22 -31 0 -6 -13 2 -30 18 -16 15 -30 29 -30
30 0 9 19 0 38 -17z m66 -66 c3 -8 12 -14 21 -14 8 0 15 -7 15 -15 0 -8 6 -15
13 -16 9 0 9 -2 -1 -6 -10 -4 -82 58 -82 72 0 10 29 -8 34 -21z m466 -22 c0
-4 -7 -18 -16 -30 -13 -19 -13 -22 -1 -22 14 0 37 -48 37 -76 0 -20 -34 -17
-54 5 -16 17 -16 69 0 119 4 13 34 17 34 4z m-376 -48 c9 -3 12 -12 9 -22 -5
-11 -2 -14 10 -9 9 3 17 2 17 -3 0 -12 67 -33 80 -25 6 4 21 0 33 -8 12 -7 45
-15 73 -16 29 -1 69 -8 90 -16 37 -13 30 -14 -106 -13 l-145 2 -38 40 c-20 23
-35 46 -33 53 3 6 -3 14 -12 16 -9 3 -12 5 -5 6 6 0 18 -2 27 -5z m1825 -261
l21 -53 -27 -6 c-21 -6 -31 -2 -49 19 -23 27 -28 59 -38 232 l-4 80 38 -110
c21 -60 47 -134 59 -162z m-4172 124 c-2 -23 -3 -1 -3 48 0 50 1 68 3 42 2
-26 2 -67 0 -90z m106 83 c5 -41 -2 -611 -7 -617 -1 -1 -12 0 -24 4 -19 5 -22
12 -22 54 0 42 -3 49 -20 49 -17 0 -20 7 -20 39 0 22 4 42 9 45 4 3 6 -7 5
-22 -2 -15 -1 -20 2 -12 9 24 12 34 10 45 -1 9 -5 11 -32 14 -8 1 -12 33 -11
104 0 56 2 92 4 80 3 -16 11 -23 28 -23 18 0 24 7 27 31 5 33 -8 45 -41 36
-14 -3 -18 -1 -14 9 3 8 18 14 34 14 l29 0 0 100 c0 91 2 100 19 100 14 0 19
-10 24 -50z m2727 -20 c0 -5 -4 -10 -10 -10 -5 0 -10 5 -10 10 0 6 5 10 10 10
6 0 10 -4 10 -10z m8560 -110 c10 -7 1 -8 -30 -4 -56 8 -64 14 -19 14 19 0 41
-5 49 -10z m-11600 -395 l0 -335 -57 1 c-45 0 -53 2 -36 9 30 12 30 20 0 13
-22 -5 -22 -5 -2 10 19 15 20 27 20 310 0 218 -3 293 -11 286 -8 -7 -13 -2
-16 16 -5 24 -4 25 48 25 l54 0 0 -335z m455 325 c4 -6 -7 -8 -32 -4 -50 8
-55 14 -10 14 20 0 39 -5 42 -10z m6935 -157 c0 -71 -4 -122 -8 -115 -5 7 -7
-36 -6 -95 2 -60 -2 -164 -7 -233 -5 -69 -10 -163 -11 -210 -1 -79 -2 -81 -8
-30 -4 32 -6 -15 -5 -110 1 -91 -2 -210 -6 -265 -4 -55 -8 -151 -10 -212 -2
-96 -4 -113 -18 -113 -29 0 -242 112 -429 225 -172 103 -183 111 -177 135 12
47 24 188 17 212 -11 45 -73 137 -139 209 -58 64 -64 73 -47 80 18 7 18 8 -1
9 -15 1 -16 3 -5 7 38 14 271 130 325 162 33 20 64 34 68 33 5 -1 6 2 3 7 -3
5 1 14 8 20 12 10 13 8 9 -8 -3 -12 -1 -21 6 -21 6 0 10 3 10 8 -1 4 0 12 1
17 1 6 3 17 4 25 1 17 27 21 39 5 5 -6 7 -1 4 12 -3 15 5 35 24 59 16 20 54
87 85 148 l57 111 72 -3 c69 -4 74 -3 106 27 19 17 35 31 37 31 1 0 2 -57 2
-127z m-7279 20 c5 -425 5 -503 -2 -503 -5 0 -9 35 -10 78 0 42 -3 71 -6 65
-13 -34 -23 -5 -23 70 0 53 -5 92 -15 111 -8 15 -12 32 -9 38 3 5 5 58 5 119
l-1 109 30 0 30 0 1 -87z m101 -201 c2 -34 0 -62 -4 -62 -5 0 -7 39 -7 88 2
91 6 81 11 -26z m4578 -176 c0 -2 -8 -10 -17 -17 -16 -13 -17 -12 -4 4 13 16
21 21 21 13z m-59 -42 c-11 -8 -33 -30 -49 -50 -21 -25 -32 -32 -37 -23 -5 8
-4 10 3 5 8 -5 11 1 9 16 -1 14 3 22 11 21 11 -3 14 4 11 23 -1 11 17 19 46
20 26 2 26 1 6 -12z m29 -54 c0 -7 -13 -7 -38 -1 -2 1 -1 5 3 11 6 10 35 2 35
-10z m90 -14 c-19 -9 -28 -36 -12 -36 14 0 33 -48 20 -52 -12 -4 23 -80 37
-80 5 0 12 9 16 19 7 15 8 15 8 -5 1 -13 5 -21 11 -17 5 3 11 -21 13 -57 l3
-63 2 68 c1 38 -2 67 -8 67 -5 0 -7 7 -4 15 4 8 11 15 16 15 14 0 4 -235 -11
-272 -6 -16 -17 -28 -24 -28 -8 0 -54 39 -103 88 -82 80 -91 93 -112 157 -12
39 -22 80 -22 93 0 31 27 92 40 92 6 0 8 -5 5 -10 -4 -6 8 -5 27 3 38 16 133
18 98 3z m78 -21 c-3 -3 -9 2 -12 12 -6 14 -5 15 5 6 7 -7 10 -15 7 -18z
m-4808 -15 c0 -5 -2 -10 -4 -10 -3 0 -8 5 -11 10 -3 6 -1 10 4 10 6 0 11 -4
11 -10z m4523 -2 c-4 -7 -6 -22 -5 -33 2 -12 -2 -32 -7 -45 -9 -23 -10 -21 -9
15 1 51 7 75 19 75 6 0 7 -6 2 -12z m-3443 -8 c0 -7 -14 -8 -37 -4 -52 9 -54
14 -5 14 23 0 42 -5 42 -10z m3748 -21 c-3 -8 -7 -3 -11 10 -4 17 -3 21 5 13
5 -5 8 -16 6 -23z m-3355 -16 c-7 -2 -21 -2 -30 0 -10 3 -4 5 12 5 17 0 24 -2
18 -5z m4926 -40 c57 -56 75 -107 69 -198 -8 -106 -72 -204 -192 -291 -33 -24
-63 -44 -66 -44 -18 0 26 353 61 489 28 109 53 117 128 44z m-1259 -38 c159
-81 377 -160 470 -172 47 -5 149 29 500 171 74 30 136 53 137 52 1 -1 -6 -44
-17 -96 -11 -52 -31 -183 -45 -290 -29 -222 -19 -203 -142 -271 l-76 -42 -166
6 c-249 8 -460 56 -669 152 -79 37 -220 120 -267 159 l-30 24 23 71 c13 40 26
111 29 160 l6 88 61 21 c33 11 64 21 69 21 4 1 56 -24 117 -54z m-613 3 c-3
-8 -6 -5 -6 6 -1 11 2 17 5 13 3 -3 4 -12 1 -19z m-31 -23 c0 -19 -3 -30 -7
-24 -3 6 -10 -6 -13 -26 -5 -23 -3 -42 3 -48 6 -6 11 -20 12 -31 0 -13 3 -16
6 -7 4 10 7 10 13 1 5 -8 15 0 29 24 17 27 20 40 12 53 -7 13 -10 14 -11 4 0
-8 -2 -12 -5 -9 -3 3 -3 13 1 22 5 14 11 10 29 -21 20 -33 21 -41 9 -60 -17
-27 -17 -33 -3 -33 5 0 7 5 3 11 -4 8 1 9 17 4 18 -5 20 -4 9 4 -8 5 -12 12
-9 15 9 9 169 -145 163 -156 -4 -7 -2 -8 5 -4 15 10 43 -13 34 -28 -3 -6 -3
-8 1 -4 5 4 35 -12 67 -35 33 -23 80 -54 105 -68 24 -14 41 -28 37 -32 -3 -4
3 -7 15 -7 11 0 24 -5 28 -12 4 -7 3 -8 -4 -4 -7 4 -12 2 -12 -3 0 -12 0 -12
46 -16 35 -3 99 -34 72 -35 -9 0 -20 5 -23 10 -3 6 -12 10 -18 10 -24 -1 29
-25 58 -26 17 -1 76 -18 132 -38 135 -47 333 -82 512 -90 80 -4 148 -9 153
-12 14 -9 9 -112 -12 -254 -10 -74 -26 -218 -35 -320 -8 -102 -18 -206 -21
-232 -5 -38 -3 -48 9 -48 17 0 22 28 37 215 6 72 22 222 36 335 24 189 27 271
10 311 -6 13 16 30 96 77 201 118 340 238 389 339 19 39 24 64 24 131 0 71 2
80 13 65 59 -79 74 -173 48 -304 -23 -111 -142 -656 -162 -739 -45 -188 -127
-274 -381 -398 -76 -37 -110 -58 -97 -60 59 -9 268 112 379 219 42 40 71 79
88 117 22 49 62 214 132 550 10 45 22 82 26 82 5 0 46 -26 91 -59 135 -96 295
-186 420 -235 65 -25 122 -46 128 -46 7 0 9 -15 6 -42 -3 -24 -8 -74 -11 -113
-8 -87 -34 -312 -41 -342 l-4 -23 -303 0 c-307 -1 -433 -12 -479 -42 -19 -13
-59 -101 -296 -650 -42 -98 -79 -178 -82 -178 -3 0 -14 64 -23 143 -21 177
-22 345 -2 411 8 27 15 67 15 88 0 32 -5 41 -32 58 -44 27 -56 13 -17 -20 l33
-27 -24 -94 c-29 -115 -28 -178 4 -428 20 -158 22 -190 11 -220 -17 -48 -117
-278 -267 -616 -69 -154 -133 -302 -143 -328 l-18 -48 -136 8 c-180 11 -386 8
-438 -6 -61 -17 -155 -84 -202 -144 -52 -68 -127 -193 -194 -324 l-52 -103
-40 0 c-31 0 -72 -18 -184 -80 -80 -43 -147 -77 -151 -75 -3 2 -7 41 -8 87 -7
221 -57 732 -132 1353 -44 364 -46 375 -60 375 -16 0 -12 -74 15 -281 66 -517
138 -1230 147 -1463 l2 -59 -87 -18 c-47 -9 -109 -25 -137 -34 -28 -9 -54 -14
-57 -11 -4 3 -2 6 4 6 13 0 9 35 -18 185 -22 120 -30 154 -120 540 -51 221
-62 282 -70 410 -32 510 -122 999 -246 1334 -21 56 -42 101 -48 100 -14 -5 -9
-29 35 -164 173 -533 251 -1162 250 -2034 -1 -297 -2 -323 -16 -298 -8 15 -26
78 -39 140 -40 186 -91 373 -151 557 -19 58 -52 202 -74 320 -107 568 -224
929 -399 1227 -20 35 -42 63 -48 63 -7 0 -13 -3 -13 -6 0 -4 29 -61 64 -128
117 -220 196 -442 276 -766 41 -167 94 -429 88 -435 -2 -2 -28 46 -58 107 -54
108 -160 245 -180 233 -5 -3 -7 -20 -5 -38 3 -17 9 -77 16 -132 6 -55 22 -156
36 -225 14 -69 29 -143 33 -165 4 -22 21 -94 37 -160 51 -204 63 -262 63 -291
l-1 -29 -15 28 c-17 31 -87 210 -128 327 -48 138 -138 444 -206 700 -58 218
-65 240 -80 240 -17 0 -12 -32 31 -197 160 -625 338 -1119 484 -1347 53 -82
61 -127 42 -213 -9 -39 -30 -100 -46 -135 -17 -36 -31 -70 -31 -76 0 -13 -160
-93 -283 -141 l-79 -31 -71 63 c-136 120 -239 180 -392 230 -119 39 -211 56
-368 67 -77 6 -142 11 -143 13 -1 1 16 56 38 122 44 135 123 419 133 480 8 50
112 397 172 575 25 74 115 340 200 590 85 250 158 466 162 480 66 201 204 459
292 548 43 43 146 104 261 154 89 38 382 128 418 128 11 0 38 -26 66 -62 91
-120 109 -143 133 -162 13 -10 28 -25 35 -33 6 -8 23 -28 39 -44 15 -16 39
-53 53 -82 36 -71 112 -177 128 -177 15 0 11 34 -34 275 -30 163 -61 367 -55
373 1 1 19 -45 40 -103 47 -134 169 -382 233 -477 82 -121 187 -231 294 -308
56 -39 118 -74 123 -68 2 2 -28 95 -66 208 -81 241 -150 520 -185 749 l-6 45
28 -19 c86 -57 225 -136 354 -200 221 -111 351 -160 572 -215 163 -40 208 -46
208 -28 0 10 -25 20 -82 32 -133 27 -355 92 -466 136 -140 54 -387 181 -485
248 -44 30 -92 58 -106 62 -23 6 -28 15 -38 71 -19 99 -63 396 -62 416 0 16 2
16 10 -2 7 -16 9 -14 6 13 -2 17 0 32 5 32 4 0 8 -12 9 -27 0 -16 7 -44 14
-63 17 -44 19 -30 3 21 -9 31 -8 44 2 63 7 13 10 30 7 38 -4 9 -6 7 -6 -4 -1
-25 -18 -22 -24 4 -4 12 8 63 28 119 18 53 50 164 70 245 38 158 42 174 48
174 2 0 3 -16 3 -35z m44 -9 c0 -3 -4 -8 -10 -11 -5 -3 -10 -1 -10 4 0 6 5 11
10 11 6 0 10 -2 10 -4z m-2710 -31 c0 -10 -10 -15 -34 -15 -21 0 -36 6 -40 15
-4 12 3 15 34 15 29 0 40 -4 40 -15z m-969 -5 c20 -11 27 -72 11 -98 -5 -7 -8
8 -8 35 1 48 1 48 -34 51 -19 2 -39 8 -44 13 -14 13 50 12 75 -1z m966 -26
c-3 -3 -12 -4 -19 -1 -8 3 -5 6 6 6 11 1 17 -2 13 -5z m9651 -122 c32 -31 50
-42 64 -39 18 5 19 4 4 -12 -9 -10 -16 -22 -16 -28 0 -6 -6 -16 -14 -22 -11
-9 -20 4 -50 66 -21 43 -53 94 -72 115 -19 21 -34 41 -33 46 0 4 17 -13 37
-37 20 -25 57 -65 80 -89z m-9895 71 c-13 -2 -35 -2 -50 0 -16 2 -5 4 22 4 28
0 40 -2 28 -4z m-608 -73 c3 -5 -1 -10 -9 -10 -9 0 -16 -4 -16 -10 0 -5 -7 -7
-15 -4 -8 4 -15 12 -15 20 0 16 46 19 55 4z m288 3 c-7 -2 -21 -2 -30 0 -10 3
-4 5 12 5 17 0 24 -2 18 -5z m200 0 c-29 -2 -77 -2 -105 0 -29 2 -6 3 52 3 58
0 81 -1 53 -3z m5234 -312 c70 -43 155 -95 187 -116 33 -21 115 -65 183 -97
70 -35 123 -66 123 -74 0 -8 -3 -14 -6 -14 -15 0 -262 123 -351 175 -209 122
-273 167 -273 192 0 7 2 13 4 13 3 0 62 -35 133 -79z m-67 -31 c170 -114 396
-239 495 -275 64 -24 75 -32 75 -61 0 -13 -1 -24 -3 -24 -2 0 -49 15 -105 34
-129 44 -286 125 -433 225 -113 77 -130 97 -115 137 6 17 7 17 86 -36z m-2298
18 c-7 -7 -12 -8 -12 -2 0 14 12 26 19 19 2 -3 -1 -11 -7 -17z m7028 -150
c-10 -29 -23 -54 -29 -56 -6 -2 -11 -1 -11 2 0 10 50 106 54 106 3 0 -4 -23
-14 -52z m-10400 -263 c20 -24 5 -28 -21 -6 -19 16 -20 20 -8 21 9 0 22 -7 29
-15z m2755 -37 c4 -18 8 -40 11 -48 3 -13 -19 -18 -138 -28 -258 -23 -418 -69
-578 -168 -85 -52 -169 -119 -203 -162 -10 -12 -22 -20 -26 -18 -4 3 -8 0 -8
-7 0 -7 -19 -40 -41 -74 -23 -34 -60 -102 -81 -150 -55 -122 -71 -153 -82
-153 -6 0 -8 -4 -4 -9 5 -10 -60 -181 -73 -191 -4 -3 -8 -12 -10 -20 -2 -8
-10 -28 -17 -45 -28 -63 -91 -285 -160 -560 -27 -109 -87 -389 -101 -475 -22
-139 -25 -152 -45 -230 -18 -72 -58 -194 -71 -215 -3 -5 -8 -27 -12 -47 -9
-49 -41 -120 -50 -111 -4 4 -4 0 -1 -8 3 -9 -3 -23 -15 -34 -11 -10 -20 -24
-20 -32 0 -8 -4 -11 -10 -8 -5 3 -10 -3 -10 -15 0 -24 -24 -73 -90 -185 -100
-168 -249 -463 -295 -583 -56 -149 -58 -205 -9 -278 l26 -37 -29 -40 c-15 -22
-33 -42 -39 -44 -17 -6 -113 125 -120 164 -16 88 25 223 136 443 92 184 170
323 182 328 4 2 8 7 8 11 0 19 138 250 145 244 4 -5 5 -2 1 5 -4 7 3 26 16 45
13 17 23 35 23 38 0 18 58 108 66 103 6 -3 9 0 8 7 -1 8 3 26 9 42 7 15 17 39
22 53 6 14 31 151 56 303 25 152 52 303 60 336 14 55 85 284 103 330 18 46 33
92 41 125 21 83 189 534 201 538 5 2 7 8 4 12 -7 11 120 277 166 350 55 85
156 201 212 244 135 101 365 185 737 269 95 22 98 22 105 -15z m7420 -67 c-3
-12 -11 -21 -16 -21 -14 0 -11 38 4 43 17 6 20 2 12 -22z m-3262 -54 c75 -50
172 -151 218 -226 45 -74 114 -229 106 -237 -3 -4 -22 -3 -41 0 -33 6 -38 13
-85 109 -42 87 -60 113 -123 172 -40 39 -94 84 -120 100 -46 29 -48 32 -48 76
0 25 3 49 6 52 8 7 10 6 87 -46z m2127 -6 c0 -6 -4 -13 -10 -16 -5 -3 -10 1
-10 9 0 9 5 16 10 16 6 0 10 -4 10 -9z m-2415 -267 c8 -50 18 -99 21 -109 6
-15 2 -17 -37 -10 -24 4 -46 9 -48 11 -5 4 15 198 26 269 l7 40 8 -55 c5 -30
15 -96 23 -146z m266 147 c94 -70 164 -152 204 -236 19 -41 35 -77 35 -80 0
-8 -37 -6 -187 11 l-143 17 0 56 c0 101 13 281 20 281 4 0 36 -22 71 -49z
m2579 -126 c0 -39 -21 -55 -45 -35 -13 11 -12 16 6 41 27 38 39 37 39 -6z
m-9313 -11 c-3 -3 -12 -4 -19 -1 -8 3 -5 6 6 6 11 1 17 -2 13 -5z m8636 -86
c22 -44 57 -129 57 -138 0 -32 -538 -116 -905 -141 -270 -19 -955 -17 -1275 4
-548 36 -1161 101 -1211 128 -10 5 -26 24 -35 41 -19 37 -14 42 61 58 197 43
1029 3 1605 -76 127 -18 223 -18 470 -4 160 10 464 36 525 45 103 16 465 79
540 94 135 28 149 27 168 -11z m-5894 -30 c6 -18 7 -28 2 -23 -10 12 -25 55
-18 55 3 0 10 -15 16 -32z m-2894 -98 c74 -5 -103 -6 -415 -3 -300 3 -576 9
-615 13 -91 10 859 0 1030 -10z m9482 -57 c-2 -16 -4 -5 -4 22 0 28 2 40 4 28
2 -13 2 -35 0 -50z m-750 -105 c-41 -57 -165 -231 -276 -388 -112 -157 -233
-325 -269 -373 l-65 -88 -371 6 c-339 6 -997 29 -1106 40 -25 2 -130 9 -235
15 -340 19 -526 31 -745 45 -118 8 -252 15 -297 15 -60 0 -83 4 -83 13 0 8 -4
7 -10 -3 -28 -44 9 49 115 285 37 83 84 193 105 245 57 140 107 251 118 262 6
6 128 -3 343 -26 577 -61 757 -70 1389 -71 387 0 609 4 705 13 178 17 526 67
630 91 137 33 135 35 52 -81z m881 -729 c-3 -8 -7 -3 -11 10 -4 17 -3 21 5 13
5 -5 8 -16 6 -23z m16 -59 c4 -25 3 -31 -4 -20 -5 8 -10 26 -10 39 0 32 6 24
14 -19z m-4144 -160 c0 -5 -4 -10 -10 -10 -5 0 -10 5 -10 10 0 6 5 10 10 10 6
0 10 -4 10 -10z m387 -19 c71 -10 116 -30 140 -61 15 -19 11 -93 -7 -117 -61
-80 -129 -117 -248 -135 -58 -8 -76 -8 -82 2 -4 7 -9 8 -11 2 -2 -5 -19 -7
-36 -5 -18 3 -30 9 -27 14 3 5 -2 9 -11 9 -9 0 -13 -5 -9 -11 4 -7 0 -9 -12
-5 -16 4 -25 -8 -53 -67 -19 -40 -34 -87 -35 -104 -1 -38 -18 -43 -34 -10
l-11 22 0 -22 c-1 -12 7 -27 17 -33 13 -8 -7 -10 -78 -5 -52 4 -112 7 -133 7
-55 0 -41 22 18 29 27 3 51 11 53 18 4 11 6 11 13 0 7 -10 8 -9 7 6 -1 11 34
95 79 186 44 92 88 187 98 213 18 46 14 83 -6 70 -8 -5 -9 -3 -4 6 9 14 249 9
372 -9z m520 -28 c56 -4 80 -9 76 -17 -5 -8 -3 -8 8 0 8 6 27 11 43 12 24 2
27 0 16 -13 -7 -8 -29 -15 -49 -15 -20 0 -46 -6 -57 -14 -18 -13 -124 -174
-124 -189 0 -9 71 -16 213 -21 l127 -5 35 54 c40 63 75 130 75 144 0 5 -10 13
-22 17 -22 8 -22 8 7 15 56 12 149 9 169 -6 11 -8 14 -15 7 -15 -7 0 -10 -4
-6 -9 3 -6 14 -8 25 -6 15 3 12 -5 -17 -43 -20 -26 -40 -46 -44 -44 -5 1 -8
-1 -8 -5 3 -20 -4 -33 -33 -64 -18 -18 -24 -27 -14 -19 18 14 19 14 8 -7 -7
-12 -17 -25 -24 -29 -7 -5 -8 -2 -3 7 5 8 4 11 0 6 -5 -4 -9 -15 -10 -25 -2
-26 -112 -185 -118 -170 -2 7 -5 2 -6 -12 -2 -50 -5 -70 -12 -70 -4 0 -10 7
-12 15 -3 11 -4 10 -3 -2 1 -12 9 -17 24 -16 44 5 20 -15 -25 -21 -44 -5 -261
8 -270 17 -2 3 19 7 46 11 40 5 55 13 84 46 20 21 44 54 53 72 25 48 50 78 59
70 5 -4 5 -1 1 5 -4 7 -2 21 3 31 10 18 2 19 -162 25 -146 6 -174 5 -183 -8
-6 -8 -15 -11 -19 -7 -5 4 -5 2 -1 -5 3 -6 -14 -49 -39 -94 -25 -45 -45 -88
-45 -95 0 -8 14 -17 30 -21 74 -14 28 -21 -123 -17 -185 4 -187 5 -187 15 0 4
12 7 28 5 51 -4 87 29 145 132 176 313 197 361 165 362 -7 1 -26 7 -43 15 -28
13 -26 13 50 14 44 1 117 -2 162 -6z m675 -45 c-7 -7 -16 -7 -28 0 -14 8 -13
10 10 10 18 0 24 -4 18 -10z m-72 -2 c0 -2 -7 -6 -15 -10 -8 -3 -15 -1 -15 4
0 6 7 10 15 10 8 0 15 -2 15 -4z m692 -16 c53 -16 91 -50 91 -84 0 -63 -95
-152 -211 -197 -48 -19 -78 -23 -187 -24 -71 -1 -119 0 -105 3 23 4 23 5 5 12
-31 11 -62 -16 -122 -108 -52 -79 -54 -84 -36 -97 10 -7 31 -16 47 -19 16 -4
27 -8 24 -11 -2 -3 -20 0 -38 5 -25 7 -36 6 -43 -3 -6 -8 -7 -5 -3 7 7 19 6
19 -13 2 -11 -10 -24 -15 -29 -12 -4 3 -56 6 -115 7 -59 1 -107 5 -107 10 0 5
11 9 25 9 13 0 40 14 60 31 40 35 286 401 293 435 3 18 -2 23 -27 29 -17 4
-31 11 -31 17 0 14 471 3 522 -12z m102 -550 c31 -182 44 -427 24 -453 -13
-17 -15 -16 -36 13 -22 29 -23 36 -15 113 17 168 -7 237 -97 278 -44 20 -48
24 -32 35 10 6 42 46 71 88 30 42 56 75 57 73 2 -1 14 -68 28 -147z m-2274
120 c0 -5 -2 -10 -4 -10 -3 0 -8 5 -11 10 -3 6 -1 10 4 10 6 0 11 -4 11 -10z
m4350 -163 c-123 -121 -351 -326 -380 -341 -16 -9 -1 6 111 104 99 87 207 188
304 282 44 43 82 78 85 78 3 0 -51 -56 -120 -123z m-3130 93 c0 -5 -8 -10 -17
-10 -15 0 -16 2 -3 10 19 12 20 12 20 0z m934 -124 c18 -8 43 -31 57 -52 20
-33 24 -52 23 -114 0 -41 -6 -92 -13 -112 -14 -43 -12 -49 57 -150 53 -76 51
-92 -13 -184 -64 -92 -72 -110 -80 -189 -10 -102 -38 -162 -154 -330 -141
-203 -165 -233 -211 -267 -96 -71 -280 -121 -450 -122 -101 -1 -121 2 -162 22
-83 41 -150 132 -207 280 -22 55 -19 59 26 41 15 -6 91 -21 168 -34 78 -13
147 -27 155 -30 8 -3 37 -34 65 -69 51 -65 110 -114 122 -102 4 4 -9 22 -28
39 -35 31 -109 119 -109 129 0 6 129 -16 186 -31 22 -6 66 -26 98 -46 73 -44
105 -46 56 -4 -76 65 -177 96 -403 124 -167 20 -326 51 -394 77 -60 22 -120
69 -110 85 15 23 251 38 567 35 173 -1 335 0 360 4 45 7 45 7 15 16 -16 5
-165 12 -330 15 -265 5 -321 3 -481 -16 -296 -35 -366 -28 -372 37 -3 27 5 40
45 83 l49 51 79 -12 c104 -16 195 0 417 76 189 64 208 65 556 50 143 -6 202
-6 202 2 0 18 -107 26 -365 27 l-250 0 -165 -57 c-188 -64 -284 -83 -370 -73
-66 8 -85 23 -76 59 12 46 104 106 449 291 l109 57 36 -34 c48 -46 87 -58 187
-58 123 0 351 64 473 132 77 44 54 52 -33 12 -93 -43 -226 -87 -332 -109 -141
-31 -263 -2 -287 68 -8 23 -6 31 18 56 55 57 438 248 623 311 97 33 147 37
197 16z m-2739 -6 c3 -6 -1 -7 -9 -4 -18 7 -21 14 -7 14 6 0 13 -4 16 -10z
m-435 -11 c132 -16 620 -116 682 -139 31 -11 67 -31 82 -45 45 -42 31 -119
-29 -150 -28 -16 -53 -17 -211 -12 -99 3 -264 17 -369 31 -251 34 -561 54
-577 38 -9 -9 -9 -12 3 -12 58 0 418 -34 574 -55 105 -13 235 -29 290 -35 55
-7 112 -18 127 -26 15 -8 57 -42 93 -75 76 -71 93 -113 74 -181 -19 -73 -66
-108 -143 -108 -35 0 -67 12 -149 55 -66 35 -130 61 -173 70 -160 33 -584 59
-584 36 0 -14 39 -21 121 -21 103 0 370 -26 459 -45 44 -9 108 -34 165 -64 51
-27 99 -51 106 -53 32 -11 -56 -145 -114 -175 -26 -13 -57 -15 -201 -10 -227
8 -478 -3 -484 -21 -4 -12 41 -13 261 -7 146 4 277 5 291 1 23 -6 25 -10 20
-34 -12 -52 -54 -112 -93 -131 -20 -11 -93 -40 -162 -65 -200 -72 -235 -90
-247 -125 -13 -37 -61 -68 -117 -76 -22 -4 -49 -8 -60 -10 -11 -2 -30 -4 -41
-4 -13 -1 -24 -9 -27 -20 -6 -25 -92 -69 -162 -83 -48 -9 -58 -8 -99 12 -67
32 -166 144 -219 248 -25 48 -62 139 -82 202 -32 98 -38 132 -42 230 l-5 115
95 195 c91 187 214 399 260 449 34 36 97 77 147 94 54 19 404 23 540 6z m673
-6 c-7 -2 -19 -2 -25 0 -7 3 -2 5 12 5 14 0 19 -2 13 -5z m44 1 c-3 -3 -12 -4
-19 -1 -8 3 -5 6 6 6 11 1 17 -2 13 -5z m323 -20 c140 -9 269 -18 285 -19 34
-3 145 -9 600 -30 431 -20 588 -29 540 -32 -22 -2 -65 -6 -95 -9 l-55 -7 50
-13 50 -12 -50 3 c-27 1 -43 1 -34 -2 22 -5 31 -41 17 -66 -7 -15 -7 -22 3
-28 19 -12 29 -11 29 1 0 6 -5 10 -11 10 -5 0 -7 4 -4 10 4 6 11 5 20 -3 12
-10 11 -15 -7 -29 -11 -10 -27 -18 -35 -18 -8 0 -12 -4 -9 -9 4 -5 -2 -7 -12
-4 -10 2 -36 -9 -60 -26 -48 -35 -55 -32 -14 6 15 15 21 23 14 19 -7 -4 -19
-2 -27 4 -8 6 -20 8 -26 4 -7 -4 -18 1 -26 11 -16 23 -44 29 -36 9 3 -8 0 -14
-7 -14 -6 0 -8 -5 -5 -10 4 -6 11 -7 17 -4 7 4 8 2 4 -5 -4 -6 -12 -9 -17 -6
-5 4 -9 1 -9 -5 0 -7 -6 -6 -15 3 -8 9 -24 13 -35 10 -15 -4 -18 -11 -14 -29
8 -31 -3 -64 -15 -45 -7 11 -13 9 -30 -8 -12 -12 -19 -26 -16 -31 4 -6 -5 -14
-18 -19 -36 -14 -89 -68 -74 -75 7 -4 2 -4 -10 -2 -13 2 -23 1 -23 -4 0 -12
29 -20 35 -10 4 6 11 10 17 10 7 0 6 -6 -2 -15 -8 -9 -9 -15 -2 -15 20 0 25
23 9 35 -13 10 -9 11 26 10 23 0 45 3 49 9 3 5 21 15 40 21 18 6 32 16 31 23
-2 7 7 12 19 12 19 0 20 -2 8 -14 -8 -8 -52 -35 -97 -61 -58 -33 -88 -45 -105
-41 -13 3 -17 3 -10 0 16 -8 16 -27 -1 -21 -8 3 -20 1 -28 -5 -11 -8 -10 -9 4
-4 32 10 10 -9 -36 -32 -24 -12 -68 -47 -96 -77 -33 -35 -50 -47 -46 -34 5 15
4 19 -4 15 -17 -11 -13 3 9 31 11 14 20 21 20 16 0 -5 -5 -14 -12 -21 -6 -6
-9 -15 -5 -18 4 -4 16 4 27 17 11 13 32 36 47 52 18 18 22 27 12 27 -8 0 -20
-5 -27 -12 -6 -6 -15 -9 -18 -5 -4 3 5 12 19 18 20 9 30 9 41 0 11 -9 16 -9
22 0 5 8 3 9 -6 4 -10 -6 -12 -4 -7 7 4 12 0 14 -16 10 -16 -4 -8 9 29 47 53
53 72 89 51 96 -7 2 -50 6 -97 9 -47 4 -105 8 -130 11 -34 3 -41 2 -27 -6 9
-6 14 -15 11 -21 -5 -7 -1 -9 9 -5 24 9 21 -6 -4 -22 -19 -11 -21 -11 -16 2 3
8 -3 23 -14 33 -20 18 -20 18 -14 -9 7 -27 -8 -39 -19 -14 -2 6 -4 -3 -3 -20
1 -18 5 -33 9 -33 4 0 8 5 8 10 0 6 5 10 10 10 16 0 12 -14 -11 -38 l-20 -23
30 -10 c20 -7 31 -18 31 -30 0 -10 -4 -19 -10 -19 -5 0 -7 8 -3 18 7 18 5 17
-17 -12 -10 -13 -10 -17 -2 -12 8 5 12 0 12 -13 0 -16 -6 -21 -25 -21 -18 0
-23 4 -19 15 7 18 -20 10 -48 -14 -30 -26 -110 -50 -131 -39 -10 5 -15 13 -12
18 3 5 1 11 -5 15 -11 7 -13 -5 -4 -29 3 -9 12 -16 19 -16 7 0 15 -7 19 -15 3
-8 16 -15 28 -16 17 -1 14 -3 -11 -11 -35 -10 -109 -2 -96 10 4 4 12 7 18 7 7
0 12 6 11 13 -3 36 -5 42 -14 42 -5 0 -7 -6 -4 -13 4 -11 -6 -12 -48 -6 -29 4
-111 8 -182 8 -145 1 -256 17 -256 38 0 7 -4 13 -10 13 -5 0 -10 -4 -10 -10 0
-5 -5 -10 -12 -10 -6 0 -20 -7 -30 -17 -17 -15 -18 -14 -18 40 0 31 -5 68 -11
84 -7 19 -7 29 0 31 6 2 11 8 11 13 0 6 -8 5 -20 -1 -17 -9 -19 -8 -13 7 3 10
10 24 16 30 14 19 1 43 -25 44 -21 1 -21 1 5 11 15 5 25 14 21 19 -3 5 -1 9 5
9 5 0 13 -5 16 -11 4 -6 14 -7 24 -4 9 4 72 6 141 5 155 -1 154 18 -1 25 -120
6 -144 12 -131 28 5 7 8 42 8 78 -1 60 0 66 19 64 11 -2 76 -5 145 -8 145 -7
113 7 -42 18 -57 4 -109 12 -117 18 -12 9 -13 9 -7 0 11 -19 -2 -16 -31 7 -14
11 -32 20 -39 20 -8 0 -11 6 -8 15 5 13 9 13 22 3 13 -11 15 -10 9 4 -4 13 -2
15 10 11 11 -4 14 -2 9 5 -4 7 -18 12 -31 12 -27 0 -41 26 -19 34 9 3 57 5
107 4 74 -1 83 -2 47 -8 -25 -4 22 -5 104 -4 81 2 151 6 154 9 4 3 -20 6 -53
5 -33 -1 -100 2 -150 6 -49 5 -116 8 -147 8 -31 0 -55 3 -52 8 7 10 -5 11 294
-8z m-653 -10 c-3 -3 -12 -4 -19 -1 -8 3 -5 6 6 6 11 1 17 -2 13 -5z m73 -4
c-8 -5 -24 -9 -35 -9 -16 1 -16 2 5 9 35 11 48 11 30 0z m257 4 c-3 -3 -12 -4
-19 -1 -8 3 -5 6 6 6 11 1 17 -2 13 -5z m-220 -20 c-3 -3 -12 -4 -19 -1 -8 3
-5 6 6 6 11 1 17 -2 13 -5z m2076 -51 c-7 -2 -21 -2 -30 0 -10 3 -4 5 12 5 17
0 24 -2 18 -5z m-140 -20 c-13 -2 -33 -2 -45 0 -13 2 -3 4 22 4 25 0 35 -2 23
-4z m157 -3 c-20 -13 -33 -13 -25 0 3 6 14 10 23 10 15 0 15 -2 2 -10z m-166
-49 c11 -4 15 -10 10 -13 -5 -4 -18 0 -29 8 -20 15 -12 17 19 5z m55 -4 c-2
-1 -13 -9 -24 -17 -19 -14 -19 -14 -6 3 7 9 18 17 24 17 6 0 8 -1 6 -3z m-59
-27 c13 -8 13 -10 -2 -10 -9 0 -20 5 -23 10 -8 13 5 13 25 0z m-180 -85 c0 -1
-6 -7 -13 -13 -10 -8 -13 -6 -14 8 -1 13 3 17 13 13 8 -3 14 -6 14 -8z m2667
-76 c-20 -16 -54 -47 -75 -67 -106 -103 -215 -203 -282 -261 -62 -52 -56 -45
35 44 138 135 349 324 354 319 3 -3 -12 -18 -32 -35z m-2672 3 c-3 -3 -11 0
-18 7 -9 10 -8 11 6 5 10 -3 15 -9 12 -12z m-1495 -62 c0 -5 -4 -10 -10 -10
-5 0 -10 5 -10 10 0 6 5 10 10 10 6 0 10 -4 10 -10z m-10 -41 c0 -6 -4 -7 -10
-4 -5 3 -10 11 -10 16 0 6 5 7 10 4 6 -3 10 -11 10 -16z m948 -194 c-3 -3 -9
2 -12 12 -6 14 -5 15 5 6 7 -7 10 -15 7 -18z m-898 -37 c0 -16 -3 -19 -11 -11
-6 6 -8 16 -5 22 11 17 16 13 16 -11z m900 -23 c0 -7 7 -16 16 -19 8 -3 12
-11 8 -17 -8 -14 -421 -6 -435 8 -4 4 58 8 139 9 112 1 130 -1 77 -6 -57 -6
-45 -7 61 -6 138 1 143 3 111 44 -7 9 -6 11 7 6 9 -3 16 -12 16 -19z m-3070
11 c0 -3 -35 -23 -78 -45 -90 -47 -164 -116 -199 -184 -34 -68 -63 -189 -63
-265 l0 -64 -47 8 c-27 5 -83 9 -125 9 -92 0 -114 -13 -173 -101 l-40 -59 -14
137 c-30 286 15 339 396 467 212 72 343 109 343 97z m2295 -6 c3 -6 -4 -10
-17 -10 -18 0 -20 2 -8 10 19 12 18 12 25 0z m113 1 c9 -6 60 -14 112 -20 l95
-9 -100 5 c-61 3 -107 11 -120 19 -22 16 -14 19 13 5z m622 -17 c0 -2 -17 -4
-37 -3 -33 1 -35 2 -13 8 23 7 50 4 50 -5z m1800 -93 c87 -43 151 -91 173
-129 l17 -31 -37 -44 c-21 -25 -51 -64 -66 -86 -16 -23 -32 -41 -35 -41 -4 0
-21 12 -38 28 -64 58 -131 111 -186 146 -55 35 -58 38 -53 71 7 55 17 109 23
119 2 4 34 6 71 4 49 -3 83 -12 131 -37z m-4895 -27 c8 -18 18 -47 22 -64 4
-23 8 -28 15 -18 7 9 8 6 5 -10 -3 -13 1 -71 9 -130 41 -317 50 -459 34 -555
-18 -111 -51 -198 -84 -226 -9 -7 -13 -18 -10 -23 4 -6 -3 -5 -14 1 -28 15
-125 163 -152 230 -51 130 -83 354 -69 477 17 157 73 281 148 331 46 31 77 27
96 -13z m58 -109 c-7 -22 -9 -17 -9 31 0 52 1 55 9 27 6 -18 6 -42 0 -58z
m-1809 29 c159 -27 322 -89 432 -165 56 -38 143 -113 160 -137 13 -19 11 -21
-32 -36 -41 -14 -48 -14 -69 0 -75 49 -335 78 -496 55 -102 -14 -253 -60 -355
-106 -54 -25 -74 -30 -70 -19 3 8 15 74 26 147 21 133 48 264 58 281 7 12 236
-1 346 -20z m6467 -78 c69 -40 155 -122 224 -214 97 -130 109 -160 113 -272 3
-95 3 -95 -35 -157 -39 -64 -162 -217 -168 -211 -2 2 1 24 7 48 17 68 16 393
-1 460 -14 55 -77 216 -109 278 -17 35 -52 62 -52 42 0 -6 13 -36 29 -68 93
-185 128 -346 118 -542 -7 -127 -23 -199 -69 -302 -27 -60 -33 -67 -47 -56
-14 11 -14 11 -3 -4 11 -14 10 -23 -8 -58 -18 -35 -24 -40 -36 -29 -12 10 -15
34 -13 108 2 82 -1 96 -15 99 -14 3 -16 -7 -16 -67 0 -39 -3 -71 -7 -70 -5 0
-34 37 -65 81 -61 88 -61 88 -13 143 37 42 93 164 116 254 35 138 36 343 0
519 -4 23 -5 42 -1 42 5 0 27 -11 51 -24z m-1422 -309 c12 -42 19 -82 15 -89
-4 -6 -3 -8 3 -5 5 3 17 -19 27 -49 24 -76 108 -241 147 -288 18 -21 67 -66
108 -99 42 -33 75 -64 73 -69 -1 -5 2 -7 8 -3 5 3 36 -10 68 -29 73 -45 123
-63 245 -87 54 -10 107 -24 117 -29 49 -26 190 -5 290 43 36 18 68 32 72 32 4
0 36 -47 72 -105 75 -120 76 -112 -24 -179 -64 -43 -135 -75 -216 -96 -76 -20
-253 -19 -352 1 -184 37 -469 183 -544 278 -111 140 -154 240 -190 450 -17
102 -19 146 -14 276 5 140 28 285 53 340 4 8 10 -37 13 -100 4 -72 15 -144 29
-193z m1811 279 c0 -7 -6 -19 -14 -25 -8 -7 -36 -41 -62 -77 -26 -35 -53 -64
-61 -64 -20 0 -17 6 30 68 23 31 51 69 60 85 18 28 47 37 47 13z m-5043 -18
c-3 -8 -6 -5 -6 6 -1 11 2 17 5 13 3 -3 4 -12 1 -19z m7468 -40 c7 -68 23
-128 33 -128 4 0 18 -9 31 -19 l23 -18 -46 -27 c-42 -25 -52 -27 -99 -19 -47
7 -52 11 -55 35 -3 23 3 30 37 47 22 12 47 31 55 43 14 20 14 25 -2 52 -14 24
-33 36 -82 53 l-64 21 45 6 c24 3 58 7 74 9 17 2 33 5 37 6 3 0 9 -27 13 -61z
m-264 -9 c-18 -29 -18 -35 -5 -78 15 -51 19 -141 5 -141 -11 0 -199 55 -231
68 -40 16 -66 50 -54 70 24 39 201 107 286 111 16 1 16 -1 -1 -30z m143 6 c58
-18 76 -31 76 -56 0 -23 -37 -49 -69 -49 -24 0 -24 -1 -18 -68 8 -81 -8 -115
-51 -110 -30 3 -39 27 -41 115 -1 33 -9 65 -22 87 l-21 36 30 30 c35 34 47 36
116 15z m-8112 -151 c4 -82 9 -210 10 -284 l3 -135 -125 -38 c-69 -21 -213
-60 -320 -87 -188 -47 -223 -55 -410 -99 -358 -84 -803 -141 -837 -108 -3 4
-1 24 5 46 7 21 12 47 12 58 0 10 30 71 67 134 36 62 75 131 86 152 10 20 25
37 32 37 7 0 48 23 91 52 115 75 268 145 381 174 77 20 130 27 243 30 l145 4
-45 -21 c-50 -23 -194 -79 -282 -111 -58 -20 -76 -38 -38 -38 20 0 249 82 350
126 30 13 134 54 230 92 96 38 220 92 275 120 55 28 105 50 110 48 6 -1 13
-67 17 -152z m5792 56 c-8 -52 -19 -108 -23 -125 -7 -27 -9 -28 -16 -10 -4 11
-19 35 -33 54 -17 22 -22 38 -16 46 5 7 29 40 53 74 25 33 46 59 47 58 2 -1
-4 -45 -12 -97z m-1720 84 c9 -3 13 -10 10 -16 -3 -5 2 -8 12 -6 23 4 67 -76
58 -105 -4 -12 -2 -17 4 -13 5 3 13 -1 16 -10 3 -8 2 -12 -4 -9 -6 3 -7 -1 -4
-9 3 -9 10 -16 14 -16 5 0 24 -28 43 -62 20 -35 47 -74 61 -87 14 -13 23 -28
20 -32 -3 -5 3 -6 12 -2 13 5 15 3 9 -7 -5 -8 -4 -11 2 -7 6 4 33 -3 59 -16
72 -33 239 -30 383 6 113 29 230 81 272 121 15 14 30 23 33 20 3 -2 4 -1 1 2
-5 8 121 174 147 192 10 7 18 18 18 24 0 7 -7 3 -16 -8 -14 -18 -15 -18 -4 4
7 14 17 21 26 18 8 -3 15 0 15 7 1 7 5 -6 10 -28 11 -55 -7 -230 -32 -313 -33
-105 -87 -208 -133 -250 -57 -52 -162 -109 -238 -128 -126 -33 -345 -6 -476
58 -75 35 -183 152 -225 239 -58 124 -116 328 -117 412 0 29 1 30 24 21z
m-4824 -139 c157 -28 156 -31 -14 -39 -259 -12 -418 -65 -630 -210 -54 -37
-109 -71 -121 -76 -72 -27 -251 -172 -238 -193 4 -6 1 -7 -6 -3 -24 15 -3 75
54 158 113 163 159 200 352 277 231 93 414 119 603 86z m1561 -36 c-5 -13 -10
-19 -10 -12 -1 15 10 45 15 40 3 -2 0 -15 -5 -28z m-401 -15 c6 -6 15 -36 20
-68 5 -32 12 -66 15 -76 5 -16 -3 -18 -92 -22 -125 -4 -160 -21 -228 -111 -27
-36 -54 -65 -60 -63 -5 1 -11 39 -13 84 -3 76 -1 85 33 153 20 39 48 82 61 96
24 24 29 25 139 21 63 -2 119 -8 125 -14z m407 -166 c-3 -7 -5 -2 -5 12 0 14
2 19 5 13 2 -7 2 -19 0 -25z m0 -150 c-3 -8 -6 -5 -6 6 -1 11 2 17 5 13 3 -3
4 -12 1 -19z m718 -98 c-10 -11 -22 -20 -28 -20 -5 0 1 9 14 20 31 25 37 25
14 0z m-1505 -86 l0 -95 -67 -31 c-349 -159 -748 -252 -1260 -295 -187 -15
-210 -15 -293 -1 -50 9 -98 22 -106 28 -10 9 -14 35 -14 92 0 75 1 78 19 68
38 -20 237 -6 506 36 187 29 710 155 1010 242 94 28 178 51 188 51 15 1 17
-10 17 -95z m-1778 -42 l42 -54 -13 -56 c-7 -32 -15 -78 -18 -104 -3 -27 -9
-48 -12 -48 -7 0 -107 152 -130 198 -13 24 -5 66 25 138 l16 37 24 -29 c14
-16 43 -53 66 -82z m3188 54 c0 -2 -8 -10 -17 -17 -16 -13 -17 -12 -4 4 13 16
21 21 21 13z m-710 -76 c0 -5 -5 -10 -11 -10 -5 0 -7 5 -4 10 3 6 8 10 11 10
2 0 4 -4 4 -10z m80 -80 c8 -5 11 -10 5 -10 -5 0 -17 5 -25 10 -8 5 -10 10 -5
10 6 0 17 -5 25 -10z m3302 -282 c-7 -7 -12 -8 -12 -2 0 14 12 26 19 19 2 -3
-1 -11 -7 -17z"/>
<path d="M5730 9095 c-2 -77 -5 -158 -5 -180 -5 -184 24 -570 61 -805 36 -229
94 -440 121 -440 10 0 13 6 8 18 -38 99 -93 357 -120 562 -14 113 -37 453 -53
805 l-9 180 -3 -140z"/>
<path d="M5478 9010 c59 -57 82 -71 82 -51 0 16 -109 111 -127 111 -13 -1 1
-19 45 -60z"/>
<path d="M5870 7306 c0 -20 5 -36 10 -36 6 0 10 13 10 29 0 17 -4 33 -10 36
-6 4 -10 -8 -10 -29z"/>
<path d="M5815 6450 c3 -5 24 -10 46 -10 21 0 39 5 39 10 0 6 -21 10 -46 10
-27 0 -43 -4 -39 -10z"/>
<path d="M5990 6447 c0 -9 11 -12 35 -9 19 2 35 8 35 13 0 5 -16 9 -35 9 -22
0 -35 -5 -35 -13z"/>
<path d="M3534 9903 c2 -10 -2 -25 -8 -33 -9 -13 -9 -13 5 -3 9 7 20 9 25 5 4
-4 2 2 -6 12 -8 11 -13 21 -12 23 2 3 1 7 -1 10 -3 3 -4 -3 -3 -14z"/>
<path d="M3565 9900 c-3 -6 1 -7 9 -4 18 7 21 14 7 14 -6 0 -13 -4 -16 -10z"/>
<path d="M1063 9727 c-17 -19 -17 -20 2 -10 11 6 25 9 31 6 6 -2 16 3 23 10
19 24 -35 18 -56 -6z"/>
<path d="M1498 9423 c6 -2 18 -2 25 0 6 3 1 5 -13 5 -14 0 -19 -2 -12 -5z"/>
<path d="M1215 7210 c3 -5 13 -10 21 -10 8 0 12 5 9 10 -3 6 -13 10 -21 10 -8
0 -12 -4 -9 -10z"/>
<path d="M1017 7158 c-4 -12 -7 -73 -7 -135 l0 -111 28 -6 c15 -3 60 -8 100
-12 l73 -6 -6 123 c-4 68 -8 129 -10 135 -2 6 -30 14 -62 17 -32 4 -70 9 -84
13 -22 5 -27 2 -32 -18z"/>
<path d="M1701 6831 c-10 -6 -15 -42 -19 -125 -4 -103 -3 -116 12 -122 33 -13
343 -7 361 7 6 4 9 55 7 128 l-3 121 -172 0 c-95 0 -178 -4 -186 -9z"/>
<path d="M2192 6580 c0 -14 2 -19 5 -12 2 6 2 18 0 25 -3 6 -5 1 -5 -13z"/>
<path d="M2212 6580 c0 -14 2 -19 5 -12 2 6 2 18 0 25 -3 6 -5 1 -5 -13z"/>
<path d="M2356 6332 c-4 -3 -6 -130 -6 -283 l0 -279 23 -4 c67 -14 123 -16
170 -6 l52 12 -6 147 c-4 80 -7 205 -8 277 -1 113 -3 133 -18 138 -19 8 -200
6 -207 -2z"/>
<path d="M2621 5773 c-1 -7 -8 -13 -16 -13 -8 0 -15 -8 -15 -18 0 -17 10 -19
98 -20 l97 -2 -25 20 c-18 14 -40 20 -77 20 -31 0 -53 5 -56 13 -4 10 -6 10
-6 0z"/>
<path d="M2388 5713 c6 -2 18 -2 25 0 6 3 1 5 -13 5 -14 0 -19 -2 -12 -5z"/>
<path d="M427 6583 c-4 -3 -7 -16 -7 -27 1 -20 2 -20 14 -3 7 9 18 17 25 17 6
0 11 5 11 10 0 11 -33 14 -43 3z"/>
<path d="M7555 6620 c-3 -5 -2 -10 4 -10 5 0 13 5 16 10 3 6 2 10 -4 10 -5 0
-13 -4 -16 -10z"/>
<path d="M7543 6583 c9 -2 23 -2 30 0 6 3 -1 5 -18 5 -16 0 -22 -2 -12 -5z"/>
<path d="M7560 6385 c0 -8 2 -15 4 -15 2 0 6 7 10 15 3 8 1 15 -4 15 -6 0 -10
-7 -10 -15z"/>
<path d="M7256 6358 c3 -5 -1 -17 -10 -26 -12 -14 -15 -48 -17 -172 -1 -85 -5
-157 -8 -160 -3 -3 -4 -48 -1 -100 4 -95 4 -95 11 -35 5 44 6 28 5 -57 -1 -65
2 -118 6 -118 5 0 8 -42 7 -92 -1 -51 -1 -109 0 -128 2 -30 4 -32 12 -15 7 15
8 12 3 -12 -3 -21 -1 -33 5 -33 6 0 11 -11 11 -24 0 -23 25 -54 36 -43 3 3 -1
63 -10 134 -27 217 -36 349 -42 605 -4 159 -2 253 5 266 7 14 7 19 -4 19 -8 0
-12 -4 -9 -9z"/>
<path d="M7180 6291 c0 -5 5 -13 10 -16 6 -3 10 -2 10 4 0 5 -4 13 -10 16 -5
3 -10 2 -10 -4z"/>
<path d="M7185 6249 c-5 -8 -4 -10 3 -5 8 5 12 -2 13 -21 2 -25 2 -26 6 -4 5
27 -11 49 -22 30z"/>
<path d="M7562 6130 c0 -19 2 -27 5 -17 2 9 2 25 0 35 -3 9 -5 1 -5 -18z"/>
<path d="M7548 6063 c5 -21 7 -23 10 -9 2 10 0 22 -6 28 -6 6 -7 0 -4 -19z"/>
<path d="M6778 6043 c7 -3 16 -2 19 1 4 3 -2 6 -13 5 -11 0 -14 -3 -6 -6z"/>
<path d="M7540 5979 c0 -11 5 -17 10 -14 6 3 10 13 10 21 0 8 -4 14 -10 14 -5
0 -10 -9 -10 -21z"/>
<path d="M7228 5673 c-2 -5 -1 -24 3 -43 l6 -35 2 43 c1 39 -3 52 -11 35z"/>
<path d="M7202 5630 c0 -19 2 -27 5 -17 2 9 2 25 0 35 -3 9 -5 1 -5 -18z"/>
<path d="M7212 5525 c0 -22 2 -32 5 -22 2 9 9 17 14 17 5 0 9 8 9 18 0 14 -2
14 -9 3 -7 -11 -10 -10 -14 5 -2 10 -5 1 -5 -21z"/>
<path d="M7220 5455 c0 -8 5 -15 10 -15 6 0 10 7 10 15 0 8 -4 15 -10 15 -5 0
-10 -7 -10 -15z"/>
<path d="M7138 5413 c7 -3 16 -2 19 1 4 3 -2 6 -13 5 -11 0 -14 -3 -6 -6z"/>
<path d="M7236 5392 c18 -37 34 -50 27 -23 -3 11 -14 27 -24 37 -19 17 -19 16
-3 -14z"/>
<path d="M7522 5390 c0 -19 2 -27 5 -17 2 9 2 25 0 35 -3 9 -5 1 -5 -18z"/>
<path d="M7170 5406 c0 -2 7 -9 15 -16 9 -7 15 -8 15 -2 0 5 -7 12 -15 16 -8
3 -15 4 -15 2z"/>
<path d="M7340 5316 c0 -8 4 -17 9 -20 5 -4 7 3 4 14 -6 23 -13 26 -13 6z"/>
<path d="M7476 5275 c-3 -9 0 -15 8 -15 7 0 13 7 13 15 0 8 -4 15 -8 15 -4 0
-9 -7 -13 -15z"/>
<path d="M7518 5263 c5 -21 7 -23 10 -9 2 10 0 22 -6 28 -6 6 -7 0 -4 -19z"/>
<path d="M7410 5256 c0 -2 7 -7 16 -10 8 -3 12 -2 9 4 -6 10 -25 14 -25 6z"/>
<path d="M4906 6143 c-6 -14 -5 -15 5 -6 7 7 10 15 7 18 -3 3 -9 -2 -12 -12z"/>
<path d="M5005 6080 c3 -5 8 -10 11 -10 2 0 4 5 4 10 0 6 -5 10 -11 10 -5 0
-7 -4 -4 -10z"/>
<path d="M5126 5845 c-3 -9 -6 -22 -5 -28 0 -7 5 -1 10 12 5 13 8 26 5 28 -2
2 -6 -3 -10 -12z"/>
<path d="M5000 5833 c0 -13 29 -38 35 -31 3 3 -4 13 -15 23 -11 10 -20 13 -20
8z"/>
<path d="M5130 5772 c-13 -15 -13 -19 3 -34 19 -20 24 -9 5 11 -11 11 -10 13
3 8 13 -4 15 -1 12 14 -3 10 -6 19 -7 18 0 0 -8 -8 -16 -17z"/>
<path d="M5080 5740 c8 -5 20 -10 25 -10 6 0 3 5 -5 10 -8 5 -19 10 -25 10 -5
0 -3 -5 5 -10z"/>
<path d="M4886 5804 c-4 -9 -4 -19 -1 -22 2 -3 7 3 11 12 4 9 4 19 1 22 -2 3
-7 -3 -11 -12z"/>
<path d="M4975 5711 l20 -24 -20 7 c-16 6 -18 5 -7 -5 8 -9 15 -10 22 -3 7 7
3 17 -12 30 l-23 19 20 -24z"/>
<path d="M4781 5694 c0 -11 3 -14 6 -6 3 7 2 16 -1 19 -3 4 -6 -2 -5 -13z"/>
<path d="M4776 5597 c3 -10 9 -15 12 -12 3 3 0 11 -7 18 -10 9 -11 8 -5 -6z"/>
<path d="M5160 5555 c7 -9 15 -13 17 -11 7 7 -7 26 -19 26 -6 0 -6 -6 2 -15z"/>
<path d="M5285 5469 c-4 -6 -5 -12 -2 -15 2 -3 7 2 10 11 7 17 1 20 -8 4z"/>
<path d="M4701 5345 c0 -11 4 -27 9 -35 9 -13 10 -13 9 0 0 8 -4 24 -9 35 l-9
20 0 -20z"/>
<path d="M4675 5248 c4 -18 14 -42 23 -53 l14 -20 -7 20 c-4 11 -11 35 -17 53
-5 17 -11 32 -14 32 -3 0 -2 -15 1 -32z"/>
<path d="M4711 5224 c0 -11 3 -14 6 -6 3 7 2 16 -1 19 -3 4 -6 -2 -5 -13z"/>
<path d="M4705 5059 c-4 -6 -5 -12 -2 -15 2 -3 7 2 10 11 7 17 1 20 -8 4z"/>
<path d="M4745 5000 c1 -25 3 -52 4 -61 2 -22 31 -20 31 3 0 10 -4 18 -10 18
-5 0 -10 10 -11 23 0 12 -4 31 -9 42 -5 14 -7 6 -5 -25z"/>
<path d="M4769 4860 c11 -11 20 -14 28 -7 18 13 8 25 -21 25 -22 0 -22 -2 -7
-18z"/>
<path d="M4943 4765 c0 -8 4 -12 9 -9 5 3 6 10 3 15 -9 13 -12 11 -12 -6z"/>
<path d="M3050 4500 c-12 -16 -19 -30 -16 -30 2 0 14 14 26 30 12 17 19 30 16
30 -2 0 -14 -13 -26 -30z"/>
<path d="M2976 4385 c-9 -26 -7 -32 5 -12 6 10 9 21 6 23 -2 3 -7 -2 -11 -11z"/>
<path d="M7320 4002 c0 -5 14 -7 30 -4 37 5 38 -7 4 -48 -15 -17 -24 -33 -21
-37 13 -12 35 7 60 51 l26 46 -50 0 c-27 0 -49 -4 -49 -8z"/>
<path d="M7430 4002 c0 -14 11 -21 26 -15 8 3 11 9 8 14 -7 11 -34 12 -34 1z"/>
<path d="M7472 3963 c-34 -53 -38 -63 -22 -63 13 0 63 87 58 101 -2 7 -18 -10
-36 -38z"/>
<path d="M7524 3966 c4 -13 -1 -27 -15 -43 -18 -18 -19 -23 -7 -23 9 0 23 12
33 26 16 25 16 27 0 43 -17 15 -17 15 -11 -3z"/>
<path d="M7577 3942 c-10 -10 -17 -23 -17 -29 0 -14 26 -24 45 -17 24 9 17 23
-7 16 -21 -5 -22 -4 -9 12 10 11 22 15 38 11 16 -4 23 -1 23 10 0 22 -53 19
-73 -3z"/>
<path d="M7064 3931 c-41 -19 -84 -63 -84 -87 0 -51 62 -92 121 -79 17 4 46 7
65 7 19 0 34 4 34 9 0 5 -31 9 -69 9 -50 0 -72 4 -82 16 -10 13 -10 17 2 25
10 6 10 9 2 9 -22 0 -14 21 21 56 29 29 41 34 80 34 37 0 52 -5 71 -25 25 -28
43 -18 26 13 -19 36 -122 43 -187 13z"/>
<path d="M8007 3892 c-21 -3 -27 -8 -22 -21 3 -10 -6 -32 -20 -51 -14 -19 -25
-41 -25 -50 0 -9 -11 -22 -25 -28 -35 -16 -31 -28 9 -29 30 -1 36 3 52 40 11
23 29 53 40 67 24 29 38 67 27 72 -4 2 -21 2 -36 0z"/>
<path d="M7282 3855 c-33 -15 -56 -54 -46 -80 7 -18 62 -29 102 -20 16 3 39
17 52 30 18 19 20 27 10 45 -11 20 -48 40 -73 40 -7 -1 -27 -7 -45 -15z m76
-32 c4 -25 -31 -53 -65 -53 l-23 0 20 41 c16 31 26 40 43 37 14 -2 23 -11 25
-25z"/>
<path d="M7450 3826 c0 -14 -12 -38 -26 -55 l-26 -31 36 0 c20 0 36 5 36 10 0
6 11 28 24 49 28 43 25 51 -16 51 -23 0 -28 -4 -28 -24z"/>
<path d="M7530 3841 c0 -6 5 -11 10 -11 19 0 10 -37 -15 -60 -24 -22 -24 -25
-8 -31 33 -14 43 -9 62 29 26 51 48 69 64 53 9 -9 7 -21 -10 -51 l-21 -40 23
0 c30 0 55 35 55 78 l0 33 -52 -1 c-29 -1 -65 2 -80 5 -18 5 -28 3 -28 -4z"/>
<path d="M9535 3829 c-4 -6 -5 -12 -2 -15 2 -3 7 2 10 11 7 17 1 20 -8 4z"/>
<path d="M9612 3820 c0 -14 2 -19 5 -12 2 6 2 18 0 25 -3 6 -5 1 -5 -13z"/>
<path d="M7750 3815 c0 -22 -57 -125 -77 -141 -16 -12 -13 -13 24 -14 38 0 42
2 40 22 -2 18 7 23 65 38 82 20 100 34 96 74 -2 24 -8 32 -26 34 -13 2 -31 1
-40 -3 -15 -6 -14 -8 6 -16 29 -11 28 -33 -4 -58 -26 -21 -64 -28 -64 -13 0 4
9 22 20 40 27 44 25 52 -10 52 -20 0 -30 -5 -30 -15z"/>
<path d="M8250 3814 c-26 -8 -36 -18 -38 -37 -2 -14 -10 -31 -18 -37 -21 -19
-17 -37 10 -42 32 -6 57 8 37 21 -11 7 -10 14 8 40 18 25 27 30 47 25 28 -7
31 7 7 28 -15 12 -24 12 -53 2z"/>
<path d="M9307 3798 c-10 -17 -16 -32 -14 -35 6 -6 39 47 35 57 -2 5 -11 -4
-21 -22z"/>
<path d="M9361 3804 c-17 -38 -6 -42 14 -5 8 17 12 31 7 31 -5 0 -14 -12 -21
-26z"/>
<path d="M9437 3803 c-11 -13 -17 -27 -14 -30 3 -2 13 7 23 21 22 34 15 42 -9
9z"/>
<path d="M8060 3802 c-24 -12 -37 -27 -44 -50 -5 -18 -7 -35 -4 -38 11 -11
108 -8 119 3 10 10 4 11 -24 6 -46 -7 -60 17 -30 50 45 49 40 58 -17 29z"/>
<path d="M8117 3796 c-15 -23 -15 -24 11 -29 35 -7 47 5 33 32 -15 27 -25 27
-44 -3z"/>
<path d="M9126 3804 c-5 -14 -4 -15 9 -4 17 14 19 20 6 20 -5 0 -12 -7 -15
-16z"/>
<path d="M9242 3795 c-17 -37 -14 -45 4 -12 9 16 14 31 11 33 -2 2 -9 -7 -15
-21z"/>
<path d="M8357 3786 c-46 -23 -70 -71 -46 -88 19 -12 107 -4 122 11 9 10 2 11
-36 6 -44 -7 -49 -6 -45 11 2 15 15 20 55 24 57 6 68 12 60 33 -9 24 -65 26
-110 3z m63 -6 c0 -5 -9 -10 -21 -10 -11 0 -17 5 -14 10 3 6 13 10 21 10 8 0
14 -4 14 -10z"/>
<path d="M6973 3788 c4 -11 2 -18 -6 -18 -14 -1 22 -30 37 -30 5 0 1 7 -10 15
-10 8 -14 15 -8 15 6 0 17 -7 24 -15 7 -8 21 -15 31 -15 11 0 19 -5 19 -11 0
-5 -4 -8 -8 -5 -4 2 -14 1 -22 -4 -12 -7 -11 -13 5 -32 l20 -23 -21 18 c-11 9
-23 14 -27 11 -3 -3 -3 3 0 15 5 18 1 20 -33 17 -22 -2 -42 1 -46 8 -4 6 -5
-5 -2 -24 4 -24 0 -41 -11 -55 -16 -20 -16 -19 -9 5 6 24 6 24 -9 5 -9 -12
-11 -22 -6 -26 12 -7 -5 -56 -28 -81 -15 -17 -14 -18 21 -18 27 0 35 -3 30
-12 -5 -9 -2 -8 10 1 9 8 15 20 12 26 -3 8 2 11 15 8 14 -4 19 0 19 13 0 13 3
15 11 7 8 -8 8 -17 -1 -34 -11 -23 -10 -23 4 -5 15 18 21 15 16 -9 -1 -5 1 -7
5 -3 4 3 20 2 36 -2 22 -7 29 -5 29 5 0 8 -4 17 -10 20 -5 3 -10 12 -10 18 0
7 6 3 12 -7 10 -18 11 -18 25 5 8 13 12 16 9 7 -3 -10 -1 -20 4 -23 6 -4 10
-11 10 -17 0 -7 -6 -6 -15 2 -9 7 -15 8 -15 2 0 -14 17 -19 86 -21 36 -1 65 2
69 8 10 16 45 33 45 22 0 -5 -9 -13 -20 -16 -38 -12 -20 -25 35 -25 37 0 55 4
55 13 0 8 4 7 10 -3 8 -13 10 -12 10 4 0 19 1 18 21 -3 17 -18 31 -22 82 -22
97 1 208 -10 202 -19 -3 -5 -12 -7 -20 -3 -8 3 -15 0 -15 -7 0 -8 12 -10 39
-5 23 4 42 2 45 -4 4 -6 -5 -9 -21 -8 -18 1 -27 -3 -25 -10 1 -7 -7 -13 -19
-13 -11 0 -18 4 -15 8 3 5 -8 9 -24 9 -36 0 -38 -5 -7 -17 20 -8 18 -9 -13
-11 l-35 -1 40 -8 c22 -4 71 -7 108 -5 37 1 70 -1 72 -6 7 -10 115 -9 115 2 0
14 -85 59 -118 63 -17 2 -29 -1 -26 -5 3 -5 1 -9 -4 -9 -5 0 -12 8 -14 18 -4
16 3 17 84 15 69 -3 88 0 88 11 0 22 40 66 61 66 24 0 24 -17 -1 -57 l-20 -33
33 0 c30 0 34 4 50 51 10 28 16 54 12 57 -3 4 -37 8 -76 10 l-69 4 -16 -38
c-28 -68 -22 -66 -141 -39 -41 9 -24 25 26 25 59 0 81 7 81 26 0 26 -45 39
-91 25 -26 -8 -44 -9 -48 -3 -3 5 -27 11 -53 14 -52 6 -62 -1 -92 -59 -9 -18
-21 -33 -27 -33 -6 0 -8 4 -4 9 3 5 -9 8 -28 6 -18 -1 -46 3 -62 10 l-30 12
28 8 c15 4 37 5 48 2 25 -7 71 12 66 27 -16 48 -156 35 -172 -16 -4 -10 -11
-18 -17 -18 -6 0 1 15 15 33 14 17 30 31 36 30 6 -2 8 4 5 12 -4 9 0 15 10 15
9 0 16 5 16 11 0 12 -43 1 -48 -12 -2 -5 -11 -9 -20 -9 -12 0 -8 9 15 32 30
29 34 31 50 16 20 -17 43 -14 43 7 0 39 -107 22 -150 -24 -14 -15 -21 -21 -17
-14 12 16 -2 36 -20 29 -8 -4 -11 -1 -7 5 3 6 15 9 25 6 12 -3 19 0 19 9 0 10
-8 13 -27 8 -22 -4 -25 -3 -13 5 9 7 10 11 3 11 -6 0 -15 -5 -19 -11 -3 -6
-19 -9 -35 -5 -18 3 -29 1 -29 -5 0 -7 14 -10 36 -7 32 4 34 3 18 -9 -10 -7
-25 -11 -33 -8 -11 4 -11 2 -2 -9 6 -7 9 -21 5 -29 -5 -15 -9 -15 -36 -1 -17
9 -27 11 -24 5 4 -6 1 -11 -7 -11 -10 0 -13 8 -9 27 4 24 3 25 -10 12 -9 -8
-14 -17 -12 -20 2 -4 -7 -6 -19 -5 -20 1 -23 6 -21 29 2 15 0 26 -5 23 -5 -3
-14 1 -21 9 -10 12 -10 18 1 32 8 9 9 14 3 10 -11 -6 -71 20 -101 45 -15 11
-16 11 -10 -4z m312 -128 c3 -5 -1 -10 -10 -10 -9 0 -13 5 -10 10 3 6 8 10 10
10 2 0 7 -4 10 -10z m-8 -35 c0 -8 -4 -12 -9 -9 -4 3 -8 9 -8 15 0 5 4 9 8 9
5 0 9 -7 9 -15z m-147 -4 c0 -6 -4 -12 -8 -15 -5 -3 -9 1 -9 9 0 8 4 15 9 15
4 0 8 -4 8 -9z m143 -47 c-36 -29 -72 -38 -106 -25 -43 17 -31 28 28 28 30 0
61 5 68 11 8 7 17 9 20 5 4 -3 8 5 8 18 1 19 2 20 6 5 3 -12 -5 -27 -24 -42z
m-53 30 c0 -2 -9 -4 -21 -4 -11 0 -18 4 -14 10 5 8 35 3 35 -6z m285 -14 c3
-5 -1 -10 -9 -10 -8 0 -18 5 -21 10 -3 6 1 10 9 10 8 0 18 -4 21 -10z m-140
-10 c-3 -5 -12 -10 -18 -10 -7 0 -6 4 3 10 19 12 23 12 15 0z m424 -16 c-13
-7 -26 -10 -29 -7 -8 8 32 33 43 26 5 -3 -1 -12 -14 -19z m-103 -10 c-3 -9 -6
-23 -7 -32 0 -11 -2 -13 -6 -4 -3 9 -9 10 -17 3 -10 -8 -13 -3 -13 19 0 25 4
30 25 30 18 0 23 -4 18 -16z m-343 -19 c-3 -9 -8 -14 -10 -11 -3 3 -2 9 2 15
9 16 15 13 8 -4z m288 2 c-6 -8 -7 -18 -3 -22 4 -5 2 -5 -5 -1 -14 8 -6 36 9
36 7 0 6 -5 -1 -13z m206 -103 c-1 -1 -23 -4 -50 -6 -39 -5 -45 -3 -36 8 6 7
18 10 26 7 10 -4 14 -2 10 4 -5 8 2 8 23 0 16 -6 28 -12 27 -13z m-117 1 c10
-12 10 -15 -3 -15 -8 0 -30 -2 -48 -5 l-34 -5 33 10 c18 6 30 15 27 20 -10 16
11 11 25 -5z m160 -25 c13 -9 13 -10 0 -10 -8 0 -22 5 -30 10 -13 9 -13 10 0
10 8 0 22 -5 30 -10z"/>
<path d="M9516 3783 c-6 -14 -5 -15 5 -6 7 7 10 15 7 18 -3 3 -9 -2 -12 -12z"/>
<path d="M9571 3784 c0 -11 3 -14 6 -6 3 7 2 16 -1 19 -3 4 -6 -2 -5 -13z"/>
<path d="M9139 3773 c-13 -16 -12 -17 4 -4 9 7 17 15 17 17 0 8 -8 3 -21 -13z"/>
<path d="M6930 3756 c0 -3 9 -10 20 -16 11 -6 20 -8 20 -6 0 3 -9 10 -20 16
-11 6 -20 8 -20 6z"/>
<path d="M7101 3733 c-7 -8 -11 -16 -8 -19 2 -2 10 2 17 11 17 20 9 27 -9 8z"/>
<path d="M9630 3700 c0 -5 5 -10 10 -10 6 0 10 5 10 10 0 6 -4 10 -10 10 -5 0
-10 -4 -10 -10z"/>
<path d="M7189 3673 c-13 -16 -12 -17 4 -4 16 13 21 21 13 21 -2 0 -10 -8 -17
-17z"/>
<path d="M9027 3643 c-16 -26 -22 -41 -13 -34 19 16 58 81 48 81 -4 0 -20 -22
-35 -47z"/>
<path d="M9207 3649 c-16 -23 -26 -43 -24 -46 3 -2 19 16 37 41 17 25 27 46
23 46 -4 -1 -21 -19 -36 -41z"/>
<path d="M9261 3645 c-18 -25 -29 -45 -24 -45 11 1 76 90 65 90 -5 0 -23 -20
-41 -45z"/>
<path d="M9343 3678 c-19 -24 -24 -38 -15 -38 5 0 14 11 20 25 13 27 10 32 -5
13z"/>
<path d="M9450 3675 c-7 -9 -11 -17 -9 -20 3 -2 10 5 17 15 14 24 10 26 -8 5z"/>
<path d="M9100 3669 c0 -5 5 -7 10 -4 6 3 10 8 10 11 0 2 -4 4 -10 4 -5 0 -10
-5 -10 -11z"/>
<path d="M9120 3637 l-33 -42 39 37 c21 21 36 40 33 43 -3 3 -21 -14 -39 -38z"/>
<path d="M7210 3662 c0 -12 19 -26 26 -19 2 2 -2 10 -11 17 -9 8 -15 8 -15 2z"/>
<path d="M9476 3654 c-4 -9 -4 -19 -1 -22 2 -3 7 3 11 12 4 9 4 19 1 22 -2 3
-7 -3 -11 -12z"/>
<path d="M9540 3620 c0 -5 5 -10 10 -10 6 0 10 5 10 10 0 6 -4 10 -10 10 -5 0
-10 -4 -10 -10z"/>
<path d="M6820 3590 c-8 -5 -12 -12 -9 -15 4 -3 12 1 19 10 14 17 11 19 -10 5z"/>
<path d="M6840 3569 c0 -5 5 -7 10 -4 6 3 10 8 10 11 0 2 -4 4 -10 4 -5 0 -10
-5 -10 -11z"/>
<path d="M8135 3564 c-22 -8 -49 -23 -59 -34 -18 -18 -18 -20 -2 -44 13 -21
24 -26 59 -26 24 0 52 7 63 15 18 15 18 16 -6 14 -56 -3 -70 1 -70 19 0 11 14
27 35 38 19 10 35 22 35 26 0 10 -7 9 -55 -8z"/>
<path d="M8205 3570 c-3 -6 5 -14 19 -20 29 -11 30 -13 15 -41 -22 -42 35 -68
104 -47 l42 12 -50 6 c-35 3 -50 9 -50 20 0 12 13 15 57 15 67 1 94 18 64 41
-25 18 -64 18 -109 -1 -45 -19 -44 -19 -50 5 -5 21 -31 27 -42 10z m159 -19
c3 -5 -3 -11 -14 -14 -13 -3 -20 0 -20 9 0 15 26 19 34 5z"/>
<path d="M7435 3480 c-6 -10 44 -35 53 -26 2 3 -7 8 -22 12 -14 3 -23 10 -20
15 3 5 3 9 0 9 -3 0 -8 -5 -11 -10z"/>
<path d="M7370 3470 c8 -5 20 -10 25 -10 6 0 3 5 -5 10 -8 5 -19 10 -25 10 -5
0 -3 -5 5 -10z"/>
<path d="M7575 3470 c3 -5 11 -10 16 -10 6 0 7 5 4 10 -3 6 -11 10 -16 10 -6
0 -7 -4 -4 -10z"/>
<path d="M7610 3469 c0 -5 5 -7 10 -4 6 3 10 8 10 11 0 2 -4 4 -10 4 -5 0 -10
-5 -10 -11z"/>
<path d="M7516 3446 c5 -22 3 -26 -17 -27 -16 -1 -19 -3 -7 -6 9 -2 27 1 38 7
21 11 21 12 3 25 -22 17 -10 19 19 4 16 -9 19 -8 16 3 -3 7 -17 14 -32 16 -24
3 -26 1 -20 -22z"/>
<path d="M6986 3188 c3 -4 -4 -8 -14 -8 -11 0 -26 -7 -33 -17 -13 -15 -12 -15
8 -5 32 17 34 15 15 -17 -10 -18 -22 -27 -32 -24 -11 4 -12 3 -2 -4 9 -7 4
-28 -25 -91 -20 -45 -33 -85 -29 -89 16 -16 117 -4 162 19 47 23 96 81 115
137 12 35 0 64 -34 83 -25 14 -138 28 -131 16z"/>
<path d="M7130 3196 c0 -2 8 -10 18 -17 15 -13 16 -12 3 4 -13 16 -21 21 -21
13z"/>
<path d="M7286 3147 c3 -10 9 -15 12 -12 3 3 0 11 -7 18 -10 9 -11 8 -5 -6z"/>
<path d="M7200 3006 c0 -2 8 -10 18 -17 15 -13 16 -12 3 4 -13 16 -21 21 -21
13z"/>
<path d="M6741 2764 c0 -11 3 -14 6 -6 3 7 2 16 -1 19 -3 4 -6 -2 -5 -13z"/>
<path d="M7704 3155 c-10 -8 -14 -14 -9 -14 6 0 19 6 29 14 11 8 15 15 10 15
-6 0 -19 -7 -30 -15z"/>
<path d="M7680 3121 c0 -7 -4 -9 -10 -6 -6 4 -7 -1 -3 -11 6 -15 7 -15 15 1 6
9 7 19 4 22 -3 4 -6 1 -6 -6z"/>
<path d="M8190 3095 c-7 -8 -15 -13 -19 -10 -4 2 -7 -6 -6 -18 1 -12 6 -21 11
-19 5 2 8 10 6 19 -2 8 1 12 6 9 6 -3 13 1 16 10 9 23 1 28 -14 9z"/>
<path d="M8681 3054 c-158 -225 -155 -214 -70 -214 97 0 193 52 251 135 53 77
29 115 -79 122 l-68 5 -34 -48z"/>
<path d="M8445 2790 c-3 -5 -2 -18 4 -27 7 -14 9 -12 8 10 -2 30 -3 31 -12 17z"/>
<path d="M6968 2433 c6 -2 18 -2 25 0 6 3 1 5 -13 5 -14 0 -19 -2 -12 -5z"/>
<path d="M6573 2423 c9 -2 25 -2 35 0 9 3 1 5 -18 5 -19 0 -27 -2 -17 -5z"/>
<path d="M6970 2419 c-27 -3 18 -7 109 -7 85 -1 152 0 150 2 -8 7 -215 12
-259 5z"/>
<path d="M7300 2406 c0 -2 16 -6 35 -8 19 -2 35 0 35 4 0 4 -16 8 -35 8 -19 0
-35 -2 -35 -4z"/>
<path d="M7448 2403 c6 -2 18 -2 25 0 6 3 1 5 -13 5 -14 0 -19 -2 -12 -5z"/>
<path d="M6590 2392 c0 -7 3 -12 8 -13 62 -5 106 -2 110 9 4 14 -21 16 -65 3
-21 -6 -35 -5 -42 2 -8 8 -11 8 -11 -1z"/>
<path d="M6742 2393 c-19 -7 -4 -23 24 -23 27 0 32 15 8 24 -9 3 -16 6 -17 5
-1 0 -8 -3 -15 -6z"/>
<path d="M7558 2393 c12 -2 32 -2 45 0 12 2 2 4 -23 4 -25 0 -35 -2 -22 -4z"/>
<path d="M6800 2380 c0 -6 7 -13 15 -16 21 -8 67 4 60 16 -8 13 -75 13 -75 0z"/>
<path d="M6913 2373 c4 -6 39 -11 79 -12 40 -1 129 -6 198 -11 69 -5 199 -14
290 -20 91 -5 182 -12 203 -14 20 -2 37 0 37 5 0 5 -17 9 -37 9 -65 1 -530 31
-702 47 -50 4 -72 3 -68 -4z"/>
<path d="M8033 2363 c9 -2 23 -2 30 0 6 3 -1 5 -18 5 -16 0 -22 -2 -12 -5z"/>
<path d="M6668 2353 c7 -3 16 -2 19 1 4 3 -2 6 -13 5 -11 0 -14 -3 -6 -6z"/>
<path d="M7948 2343 c17 -2 47 -2 65 0 17 2 3 4 -33 4 -36 0 -50 -2 -32 -4z"/>
<path d="M7753 2333 c-20 -7 -15 -23 7 -23 11 0 20 4 20 9 0 13 -12 19 -27 14z"/>
<path d="M8023 2228 c2 -7 12 -13 22 -13 10 0 20 6 23 13 2 6 -1 12 -8 12 -6
0 -8 -4 -5 -10 3 -5 -1 -10 -10 -10 -9 0 -13 5 -10 10 3 6 1 10 -5 10 -7 0
-10 -6 -7 -12z"/>
<path d="M8120 2230 c8 -5 20 -10 25 -10 6 0 3 5 -5 10 -8 5 -19 10 -25 10 -5
0 -3 -5 5 -10z"/>
<path d="M6621 2204 c0 -11 3 -14 6 -6 3 7 2 16 -1 19 -3 4 -6 -2 -5 -13z"/>
<path d="M6640 2206 c0 -9 14 -15 40 -18 22 -2 40 0 40 5 0 5 17 6 38 2 68
-12 137 -7 121 9 -2 3 -57 7 -122 10 -97 5 -117 4 -117 -8z"/>
<path d="M7155 2170 c-2 -4 37 -10 88 -13 51 -3 116 -9 145 -13 34 -4 52 -3
52 4 0 13 -277 35 -285 22z"/>
<path d="M7493 2148 c2 -7 9 -13 15 -12 7 1 32 2 57 3 68 2 54 21 -16 21 -44
0 -60 -3 -56 -12z"/>
<path d="M6557 2027 c-3 -9 17 -12 72 -13 42 -1 168 -7 281 -13 113 -6 225
-10 250 -9 25 0 -4 4 -65 9 -60 4 -144 12 -185 18 -124 17 -347 22 -353 8z"/>
<path d="M7288 1983 c7 -3 16 -2 19 1 4 3 -2 6 -13 5 -11 0 -14 -3 -6 -6z"/>
<path d="M7645 1950 c-3 -5 -1 -10 4 -10 6 0 11 5 11 10 0 6 -2 10 -4 10 -3 0
-8 -4 -11 -10z"/>
<path d="M6888 1913 c7 -3 16 -2 19 1 4 3 -2 6 -13 5 -11 0 -14 -3 -6 -6z"/>
<path d="M6880 1870 c0 -20 5 -30 15 -30 10 0 15 10 15 30 0 20 -5 30 -15 30
-10 0 -15 -10 -15 -30z"/>
<path d="M7015 1830 l-50 -7 63 -1 c40 -1 61 2 57 8 -3 6 -9 9 -13 8 -4 0 -29
-4 -57 -8z"/>
<path d="M7181 1824 c0 -11 3 -14 6 -6 3 7 2 16 -1 19 -3 4 -6 -2 -5 -13z"/>
<path d="M6898 1823 c12 -2 32 -2 45 0 12 2 2 4 -23 4 -25 0 -35 -2 -22 -4z"/>
<path d="M7165 1760 c3 -5 14 -10 23 -10 15 0 15 2 2 10 -20 13 -33 13 -25 0z"/>
<path d="M7611 1124 c0 -11 3 -14 6 -6 3 7 2 16 -1 19 -3 4 -6 -2 -5 -13z"/>
<path d="M7613 1058 c1 -16 5 -28 9 -28 10 0 9 9 -2 35 -8 17 -8 16 -7 -7z"/>
<path d="M7651 1004 c0 -11 3 -14 6 -6 3 7 2 16 -1 19 -3 4 -6 -2 -5 -13z"/>
<path d="M7622 980 c0 -14 2 -19 5 -12 2 6 2 18 0 25 -3 6 -5 1 -5 -13z"/>
<path d="M7660 971 c0 -5 7 -12 16 -15 14 -5 15 -4 4 9 -14 17 -20 19 -20 6z"/>
<path d="M7740 1300 c-9 -6 -10 -10 -3 -10 6 0 15 5 18 10 8 12 4 12 -15 0z"/>
<path d="M1847 577 c-3 -8 3 -14 16 -15 12 0 17 2 12 6 -6 4 -13 11 -16 15 -4
4 -9 2 -12 -6z"/>
<path d="M1896 573 c-6 -14 -5 -15 5 -6 7 7 10 15 7 18 -3 3 -9 -2 -12 -12z"/>
<path d="M1861 504 c0 -11 3 -14 6 -6 3 7 2 16 -1 19 -3 4 -6 -2 -5 -13z"/>
<path d="M0 4941 l0 -371 223 0 c123 0 346 -3 495 -7 l272 -6 0 280 c0 233 -3
287 -16 328 -22 64 -80 121 -130 129 -22 3 -220 8 -441 12 l-403 6 0 -371z"/>
<path d="M11915 2270 c3 -5 24 -10 46 -10 21 0 39 5 39 10 0 6 -21 10 -46 10
-27 0 -43 -4 -39 -10z"/>
<path d="M11974 1960 c-17 -31 -19 -56 -18 -235 0 -178 2 -204 19 -235 l20
-35 3 28 c2 15 -3 34 -12 43 -23 22 -23 332 0 399 20 59 13 80 -12 35z"/>
<path d="M6106 908 c5 -35 3 -48 -6 -48 -9 0 -11 -10 -6 -32 4 -24 3 -29 -4
-18 -7 11 -10 11 -10 2 0 -7 -5 -10 -10 -7 -18 11 2 -574 26 -757 l7 -48 113
0 c97 0 114 2 114 16 0 51 -178 788 -221 914 -6 17 -6 10 -3 -22z m11 -80 c-3
-8 -6 -5 -6 6 -1 11 2 17 5 13 3 -3 4 -12 1 -19z"/>
<path d="M7156 654 c-9 -24 -2 -26 12 -4 7 11 8 20 3 20 -5 0 -12 -7 -15 -16z"/>
<path d="M7107 573 c-4 -3 -7 -11 -7 -17 0 -6 5 -5 12 2 6 6 9 14 7 17 -3 3
-9 2 -12 -2z"/>
<path d="M7531 464 c0 -11 3 -14 6 -6 3 7 2 16 -1 19 -3 4 -6 -2 -5 -13z"/>
<path d="M7022 423 c-10 -21 -34 -68 -55 -105 -21 -37 -35 -73 -31 -79 4 -7 3
-9 -3 -6 -13 8 -46 -50 -37 -65 4 -7 3 -8 -4 -4 -7 4 -23 -19 -43 -61 -17 -37
-35 -75 -40 -84 -7 -15 8 -16 151 -18 l160 -2 0 90 0 90 -32 17 c-18 9 -43 28
-55 42 -13 14 -23 20 -23 15 0 -6 -13 -13 -30 -15 -24 -4 -30 -1 -30 13 0 9 4
19 9 21 4 2 23 37 41 78 18 41 39 83 48 93 10 11 11 17 3 17 -7 0 -20 -17 -29
-37z m-68 -244 c-10 -21 -10 -21 -22 6 -7 14 -8 23 -2 20 5 -3 10 -1 10 6 0
10 3 10 12 1 8 -8 8 -18 2 -33z"/>
<path d="M7695 349 c-4 -6 -5 -12 -2 -15 2 -3 7 2 10 11 7 17 1 20 -8 4z"/>
<path d="M7681 284 c0 -11 3 -14 6 -6 3 7 2 16 -1 19 -3 4 -6 -2 -5 -13z"/>
<path d="M7520 187 c0 -20 -5 -27 -20 -27 -17 0 -20 -7 -20 -40 l0 -40 -40 0
-40 0 0 -40 0 -40 58 0 59 0 6 102 c4 56 4 104 2 107 -3 2 -5 -8 -5 -22z"/>
<path d="M2185 35 l-60 -35 97 0 c57 0 99 4 103 10 4 6 -1 22 -9 35 -23 35
-58 32 -131 -10z"/>
<path d="M7532 20 c0 -14 2 -19 5 -12 2 6 2 18 0 25 -3 6 -5 1 -5 -13z"/>
</g>
</svg>
