<?xml version="1.0" standalone="no"?>
<!DOCTYPE svg PUBLIC "-//W3C//DTD SVG 20010904//EN"
 "http://www.w3.org/TR/2001/REC-SVG-20010904/DTD/svg10.dtd">
<svg version="1.0" xmlns="http://www.w3.org/2000/svg"
 width="640.000000pt" height="640.000000pt" viewBox="0 0 640.000000 640.000000"
 preserveAspectRatio="xMidYMid meet">

<g transform="translate(0.000000,640.000000) scale(0.100000,-0.100000)"
fill="#000000" stroke="none">
<path d="M1 5523 c0 -483 3 -873 6 -866 2 7 11 9 19 6 8 -3 14 0 14 7 0 6 10
10 22 8 11 -2 23 3 26 11 3 8 0 11 -7 7 -6 -4 -11 -1 -11 6 0 8 9 14 20 14 11
0 20 -4 20 -9 0 -4 4 -5 10 -2 5 3 19 1 30 -5 11 -6 20 -7 21 -3 0 4 2 21 3
36 2 33 27 53 39 32 6 -12 10 -12 26 3 10 9 16 20 14 23 -6 13 29 19 48 9 11
-6 19 -7 19 -1 0 5 9 7 20 4 16 -4 19 -2 14 11 -8 21 12 21 24 -1 9 -14 10
-14 16 5 6 18 11 20 27 12 14 -8 19 -7 19 2 0 7 7 22 15 32 11 15 18 17 26 9
17 -17 43 -5 28 13 -9 11 -7 14 10 14 11 0 21 5 21 10 0 6 7 10 15 10 8 0 15
4 15 9 0 5 10 12 23 16 12 4 29 9 37 12 8 3 25 6 37 7 12 0 21 6 20 11 -1 6
10 10 24 11 14 1 40 11 57 24 16 12 42 23 57 23 14 0 23 2 20 5 -6 6 82 42
102 42 7 0 15 -11 19 -25 3 -13 14 -27 25 -30 10 -3 37 -26 61 -51 23 -24 50
-44 61 -44 16 0 18 5 12 39 -5 33 -3 41 14 50 28 16 38 14 44 -9 4 -14 14 -20
35 -20 32 0 57 -21 49 -42 -2 -7 9 -29 25 -48 47 -57 48 -59 48 -69 0 -5 13
-3 30 5 16 9 34 13 40 9 15 -9 12 7 -5 29 -20 27 -19 42 2 25 15 -13 16 -11 9
14 -3 15 -4 27 0 27 7 0 34 -27 34 -34 0 -2 13 -20 30 -38 16 -18 30 -38 30
-45 0 -7 6 -12 13 -11 6 2 11 -2 10 -9 -5 -21 21 -4 44 30 13 18 23 43 23 55
0 12 5 22 11 22 16 0 38 31 39 52 0 9 6 18 13 21 9 3 9 7 -2 20 -11 14 -11 17
0 17 23 0 41 -39 46 -104 2 -33 9 -66 14 -73 6 -7 8 -17 4 -23 -3 -5 1 -10 10
-10 18 0 55 -57 55 -86 0 -11 11 -31 25 -44 26 -24 26 -25 28 23 2 25 -16 102
-25 114 -6 7 -10 39 -9 70 1 84 2 91 18 161 12 48 20 62 34 62 21 0 44 -31 54
-72 4 -16 10 -28 14 -28 4 0 12 -13 18 -30 13 -35 28 -39 36 -10 3 11 0 20 -5
20 -7 0 -9 18 -5 49 l6 49 -66 38 c-94 55 -175 159 -189 244 -3 19 -14 59 -25
88 -23 63 -28 259 -7 280 19 19 28 14 28 -17 0 -15 9 -40 20 -54 12 -15 21
-29 20 -32 -1 -8 19 -32 59 -72 28 -28 40 -34 67 -31 26 3 31 1 29 -14 -2 -10
0 -18 6 -18 5 0 9 -11 9 -25 0 -34 24 -80 52 -99 30 -21 33 -20 46 9 6 14 17
25 24 25 16 0 41 -37 29 -44 -12 -8 0 -70 16 -79 7 -5 11 -12 9 -16 -3 -5 8
-23 25 -42 34 -38 44 -68 35 -103 -8 -33 2 -56 26 -56 13 0 25 14 39 48 25 61
53 80 80 56 15 -14 17 -20 6 -32 -8 -11 -8 -14 0 -9 6 4 14 3 18 -3 3 -5 17
-10 30 -10 30 0 43 34 21 56 -25 24 -19 35 6 12 8 -7 22 -17 32 -23 9 -5 25
-23 34 -38 15 -24 15 -29 3 -37 -24 -14 6 -40 45 -40 l34 0 -17 26 c-16 25
-16 27 0 39 16 11 16 13 -2 29 -11 10 -25 14 -36 10 -15 -6 -16 -5 -3 17 14
25 38 48 51 49 4 0 0 -11 -9 -25 -21 -32 -13 -42 17 -22 18 13 24 14 35 2 8
-7 14 -18 14 -24 0 -6 5 -11 11 -11 6 0 9 -10 8 -22 -4 -28 18 -71 32 -63 5 4
9 13 9 21 0 9 6 21 13 29 8 7 19 49 26 92 7 43 16 96 21 118 5 22 11 72 15
110 4 39 11 86 16 105 5 20 11 67 15 105 14 156 109 198 162 72 7 -15 12 -61
12 -102 0 -42 5 -77 11 -80 13 -8 6 -116 -10 -158 -14 -36 -14 -93 0 -119 8
-14 8 -42 0 -100 -8 -58 -8 -92 0 -124 13 -49 12 -48 42 -32 35 18 48 40 42
75 -5 25 -2 33 15 38 24 8 26 21 5 29 -28 10 -15 25 19 23 35 -3 63 -17 33
-17 -9 0 -21 -9 -27 -21 -9 -17 -8 -23 7 -34 17 -13 17 -14 -2 -30 -11 -9 -14
-14 -7 -10 6 3 12 0 12 -7 0 -10 2 -11 8 0 5 8 16 10 28 5 17 -6 17 -5 6 10
-16 19 -11 29 27 57 29 20 29 20 24 0 -3 -10 -14 -22 -25 -26 -15 -4 -17 -8
-7 -20 10 -13 14 -12 30 2 21 19 38 12 21 -9 -9 -11 -3 -13 33 -12 29 1 45 -2
45 -10 0 -8 -12 -11 -35 -8 -37 4 -47 -11 -23 -35 7 -7 8 -12 2 -12 -6 0 -15
5 -20 10 -7 7 -18 4 -35 -11 l-24 -21 47 5 c30 4 61 16 83 32 19 15 39 24 45
20 12 -7 40 12 40 27 0 6 -9 8 -19 5 -14 -3 -18 -1 -14 9 5 14 8 15 56 18 31
2 47 -12 27 -24 -9 -5 -9 -9 -1 -14 6 -4 11 -2 11 3 0 6 7 11 16 11 13 0 14
-3 5 -14 -9 -11 -9 -16 0 -22 8 -4 9 -3 5 4 -13 22 15 12 40 -13 25 -25 54
-33 54 -15 0 5 7 7 15 4 8 -4 15 -1 15 6 0 6 7 18 15 27 8 8 13 18 11 22 -3 4
8 12 24 19 19 9 27 18 23 28 -3 9 2 14 16 14 12 0 21 6 21 15 0 21 29 51 58
59 12 4 22 13 22 21 0 7 7 15 15 19 9 3 15 0 15 -9 0 -8 -4 -15 -10 -15 -5 0
-10 -5 -10 -11 0 -5 5 -7 10 -4 15 10 12 -1 -17 -60 -16 -30 -35 -55 -43 -56
-10 0 -11 -2 -2 -6 6 -2 12 -14 12 -24 0 -11 -5 -17 -10 -14 -5 3 -10 -1 -10
-11 0 -11 6 -15 20 -11 12 3 20 0 20 -7 0 -16 -53 -46 -82 -46 -34 0 -56 -16
-41 -31 16 -16 87 2 170 41 36 18 78 30 101 30 22 0 64 11 93 24 30 12 67 26
83 30 36 9 78 40 68 51 -4 4 0 5 8 3 8 -3 14 -10 13 -16 -2 -6 4 -9 12 -6 8 3
22 -1 30 -10 15 -15 15 -16 -4 -16 -19 0 -21 -6 -21 -63 0 -56 -3 -66 -27 -88
-42 -38 -93 -74 -140 -97 -51 -27 -57 -36 -41 -62 17 -27 23 -26 66 19 42 43
82 59 82 33 0 -15 2 -15 10 -2 8 12 10 11 10 -7 0 -33 11 -53 27 -53 13 0 13
-4 -2 -26 -13 -20 -16 -38 -11 -75 5 -37 2 -58 -14 -92 l-21 -44 21 -36 c20
-34 20 -37 5 -67 -17 -34 -58 -80 -167 -190 -38 -37 -68 -71 -68 -74 0 -4 13
-21 30 -39 16 -18 30 -35 30 -39 0 -5 5 -8 12 -8 6 0 33 -14 60 -31 53 -34 68
-67 48 -105 -10 -18 -11 -30 -3 -47 10 -21 7 -29 -22 -60 -38 -42 -72 -48 -99
-18 -10 11 -31 23 -47 26 -16 4 -29 11 -29 15 0 5 -11 20 -24 33 -14 14 -22
27 -20 30 3 3 -4 10 -15 17 -12 6 -21 8 -21 4 0 -4 -8 0 -18 9 -39 35 -66 31
-116 -15 -46 -44 -60 -78 -31 -78 8 0 15 -8 15 -18 0 -10 4 -22 8 -28 20 -22
35 -140 37 -292 1 -89 5 -165 8 -169 4 -3 7 -24 7 -45 0 -21 6 -49 14 -61 9
-15 14 -52 14 -114 l0 -92 56 -58 c91 -94 96 -100 96 -107 0 -17 62 -95 79
-101 10 -3 31 -23 46 -45 24 -35 27 -46 21 -88 -3 -26 -7 -56 -8 -66 -4 -24
38 -50 107 -68 69 -18 75 -26 69 -89 -3 -29 -7 -55 -9 -58 -3 -2 0 -10 6 -17
9 -10 7 -15 -5 -20 -19 -7 -21 -24 -3 -24 8 0 20 -12 28 -27 38 -75 110 -153
141 -153 12 0 16 4 12 11 -4 8 0 9 15 4 12 -4 21 -2 21 4 0 6 -4 11 -10 11 -5
0 -10 7 -10 15 0 8 -4 15 -10 15 -15 0 -12 17 4 23 10 4 13 1 9 -9 -3 -7 -1
-14 5 -14 6 0 12 6 15 13 3 8 10 6 26 -8 21 -18 23 -18 32 -2 6 9 15 17 20 17
6 0 7 -5 4 -10 -7 -11 35 -31 48 -23 4 2 -3 13 -15 24 -14 11 -17 17 -7 13 9
-3 23 2 32 10 9 9 20 16 26 16 6 0 11 7 11 17 0 9 3 14 6 10 10 -10 -7 -47
-22 -47 -8 0 -14 -6 -14 -14 0 -11 5 -12 25 -3 14 7 25 18 25 25 0 6 5 12 10
12 6 0 10 -13 10 -29 0 -17 4 -32 9 -35 5 -3 11 -14 14 -25 4 -17 2 -18 -13
-9 -14 9 -21 8 -34 -5 -22 -22 -21 -23 20 -23 24 0 39 -6 46 -18 8 -14 12 -15
25 -5 12 11 17 10 24 -4 6 -9 16 -14 25 -10 12 4 9 11 -15 35 -26 26 -29 32
-18 51 7 12 17 25 22 29 7 5 6 8 0 8 -6 0 -16 -5 -23 -12 -9 -9 -13 -7 -18 5
-7 20 -24 23 -24 4 0 -8 -7 -14 -15 -14 -19 0 -19 16 -1 40 12 16 18 17 38 6
13 -7 29 -12 36 -10 8 1 21 -4 30 -11 15 -11 16 -11 4 4 -8 10 -9 19 -3 22 5
3 12 0 14 -6 4 -10 6 -10 6 0 1 8 9 10 26 6 15 -4 32 -1 40 6 13 11 13 14 -2
26 -15 11 -16 13 -2 14 8 0 24 -6 35 -14 18 -14 18 -15 2 -21 -10 -4 -15 -11
-12 -16 3 -5 10 -6 16 -3 6 4 8 2 5 -3 -4 -6 -1 -16 7 -22 11 -9 20 -6 41 13
25 24 53 27 40 5 -8 -12 2 -12 25 1 13 7 19 6 24 -6 3 -8 10 -12 16 -9 5 3 10
1 10 -4 0 -17 25 -13 44 8 18 19 31 21 53 8 6 -4 15 -2 19 5 4 6 2 14 -4 16
-15 5 -16 32 -2 32 6 0 10 4 10 8 0 5 -7 9 -15 9 -8 0 -15 -3 -15 -7 0 -6 -45
-30 -57 -30 -3 0 -3 7 0 14 4 10 1 13 -7 10 -7 -3 -16 2 -19 10 -4 10 -13 13
-23 9 -14 -5 -16 -2 -11 16 5 19 1 18 -31 -10 -20 -18 -38 -27 -40 -21 -2 6
-17 8 -39 5 -24 -4 -34 -3 -30 4 8 13 -35 25 -60 17 -11 -4 -14 -3 -7 3 6 4 8
17 4 27 -4 14 -9 16 -14 8 -4 -7 -12 -12 -19 -12 -8 0 -8 3 1 12 7 7 12 17 12
22 0 6 -5 5 -12 -2 -17 -17 -38 -15 -38 3 0 22 -13 18 -40 -10 -17 -18 -27
-22 -40 -15 -13 7 -27 1 -58 -25 -35 -30 -39 -32 -34 -13 4 18 2 20 -14 14
-15 -6 -17 -5 -6 6 7 7 22 13 34 13 24 0 61 56 52 79 -3 7 1 16 9 19 11 4 14
-4 13 -33 -1 -52 19 -74 34 -36 6 18 14 25 22 20 7 -4 5 2 -4 13 -26 28 -22
40 5 16 27 -24 57 -36 57 -22 0 6 7 17 16 26 11 12 18 13 27 4 6 -6 17 -11 25
-11 7 0 21 -7 29 -16 13 -12 18 -13 24 -3 12 20 22 3 11 -17 -6 -11 -11 -13
-16 -5 -10 15 -23 14 -29 -3 -3 -8 5 -26 19 -41 28 -31 31 -25 7 12 -11 17
-13 24 -5 19 9 -5 21 0 34 14 22 24 19 32 -15 36 -12 1 -25 3 -29 3 -19 2 -5
19 27 31 23 9 31 16 23 21 -9 6 -8 13 5 27 9 10 17 24 17 30 0 7 6 12 13 12 7
1 4 6 -7 15 -10 7 -15 19 -11 24 4 8 11 6 21 -4 9 -8 20 -13 25 -10 5 4 9 2 9
-3 0 -6 7 -13 16 -16 14 -5 15 -4 4 8 -10 13 -9 18 4 31 8 9 21 15 28 13 19
-3 59 22 52 33 -3 5 -15 7 -25 4 -20 -7 -20 -6 -2 15 15 17 19 18 21 5 2 -8
10 -15 18 -15 12 0 54 -34 54 -44 0 -2 -9 -6 -19 -9 -14 -3 -18 -1 -14 10 4
11 0 14 -13 11 -15 -3 -19 -12 -17 -38 1 -19 -4 -38 -10 -42 -9 -6 -9 -12 1
-28 7 -12 8 -20 2 -20 -5 0 -10 -7 -10 -15 0 -8 7 -15 15 -15 8 0 15 7 15 16
0 8 5 12 11 8 6 -3 3 6 -7 22 -11 15 -13 25 -6 21 11 -7 17 10 13 36 -2 10 17
9 42 -4 21 -12 22 -11 4 8 -15 18 -16 22 -3 32 19 16 76 5 76 -15 0 -18 17
-18 36 1 19 19 8 41 -12 24 -11 -9 -14 -8 -14 5 0 9 5 16 11 16 5 0 7 5 4 10
-3 6 1 10 9 10 21 0 20 24 0 41 -12 10 -20 10 -35 1 -24 -16 -29 -15 -29 3 0
8 -7 15 -15 15 -13 0 -13 -3 -3 -20 7 -11 21 -23 30 -26 10 -3 18 -12 18 -20
0 -16 -16 -19 -25 -4 -5 8 -11 7 -20 0 -13 -11 -49 0 -65 19 -3 3 -15 15 -28
26 -18 14 -25 16 -31 7 -4 -7 -15 -10 -24 -6 -9 3 -14 10 -11 15 3 5 -2 6 -10
3 -18 -7 -11 -24 10 -24 8 0 14 -4 14 -9 0 -17 -20 -23 -35 -11 -8 6 -19 9
-26 5 -6 -4 -14 -4 -18 1 -3 5 -18 17 -33 27 -28 17 -37 37 -18 37 6 0 10 -7
10 -15 0 -8 8 -15 18 -15 10 0 23 -5 30 -12 9 -9 12 -8 12 5 0 9 5 17 11 17 5
0 7 5 3 11 -4 8 -9 7 -15 -2 -7 -11 -14 -8 -35 12 -21 21 -23 27 -10 32 10 4
13 1 10 -7 -3 -8 0 -17 7 -22 7 -4 10 -3 6 4 -9 14 3 43 14 36 5 -3 6 -10 3
-16 -4 -7 -2 -8 4 -4 7 4 18 4 24 -1 14 -8 38 -13 38 -8 0 2 -7 11 -16 20 -15
15 -15 18 5 37 21 19 23 19 35 2 15 -20 40 -10 32 13 -5 11 -2 13 10 9 11 -4
15 -2 11 8 -4 10 -1 13 9 9 7 -3 14 0 14 6 0 10 -21 16 -42 12 -15 -2 -7 9 18
25 20 14 27 15 34 5 6 -10 12 -11 30 -1 15 8 20 8 16 1 -4 -6 0 -11 9 -11 12
0 15 -5 11 -16 -3 -9 -6 -20 -6 -26 0 -5 -12 -7 -30 -3 -19 4 -30 3 -30 -4 0
-6 7 -11 15 -11 8 0 15 -5 15 -11 0 -6 9 -9 20 -6 13 3 20 0 20 -10 0 -9 6
-13 15 -9 8 3 15 2 15 -3 0 -14 54 -34 58 -21 3 8 8 8 18 -1 18 -15 18 -33 0
-26 -8 3 -17 1 -20 -6 -5 -9 -7 -9 -12 1 -3 6 -12 12 -19 12 -7 0 -15 6 -17
12 -3 9 -9 8 -22 -5 -10 -10 -12 -17 -6 -17 7 0 23 -9 37 -20 15 -11 34 -18
43 -15 17 5 33 -5 65 -43 16 -20 17 -25 5 -32 -23 -14 6 -36 58 -44 32 -5 42
-3 42 8 0 16 37 29 45 16 3 -5 -1 -12 -8 -17 -7 -4 -16 -16 -20 -26 -5 -14 -2
-16 19 -11 20 5 32 1 51 -20 l24 -26 -30 -31 c-17 -17 -29 -35 -25 -40 10 -16
24 -10 24 11 0 11 7 20 16 20 8 0 13 4 9 10 -3 5 8 16 25 25 32 17 36 42 6 37
-9 -2 -16 2 -16 8 0 7 -8 9 -21 5 -16 -5 -20 -3 -17 6 3 8 12 13 21 13 12 -1
14 8 11 43 -3 40 -2 42 12 28 19 -19 33 -19 40 0 4 8 10 12 15 9 5 -3 7 -10 4
-15 -4 -5 -3 -14 1 -20 5 -8 9 -8 14 1 5 8 15 4 34 -13 30 -28 33 -37 11 -37
-8 0 -15 -4 -15 -10 0 -5 6 -10 14 -10 8 0 16 -7 20 -15 9 -23 33 -18 38 9 4
18 -2 28 -24 41 -39 23 -33 49 12 53 25 2 31 0 21 -7 -10 -7 -1 -8 28 -4 l42
6 -14 -35 c-9 -22 -11 -40 -6 -51 7 -11 4 -19 -7 -25 -15 -8 -15 -12 1 -42 17
-33 17 -34 -5 -52 -16 -13 -18 -18 -7 -18 9 0 14 -7 12 -17 -2 -10 -4 -21 -4
-26 -1 -4 -12 0 -26 9 -14 9 -25 12 -25 6 0 -6 8 -16 19 -21 20 -11 34 -48 21
-56 -5 -3 -10 1 -13 7 -2 7 -8 10 -12 6 -4 -4 -2 -14 4 -22 9 -11 10 -20 1
-35 -7 -15 -7 -21 0 -21 8 0 8 -6 0 -20 -6 -11 -8 -25 -5 -30 3 -6 -3 -10 -14
-10 -12 0 -21 -5 -21 -11 0 -6 8 -8 18 -5 15 5 15 5 1 -6 -25 -20 -41 -57 -34
-78 7 -21 -10 -28 -18 -7 -3 8 -10 7 -26 -7 -16 -15 -21 -16 -21 -5 0 8 6 21
13 28 10 11 8 12 -11 6 -22 -6 -23 -5 -13 14 12 22 31 29 31 11 0 -5 5 -10 11
-10 11 0 39 24 39 34 0 11 -28 6 -32 -6 -3 -7 -13 2 -23 19 -10 18 -22 30 -27
27 -4 -3 -8 -1 -8 5 0 18 17 21 30 6 7 -8 17 -15 22 -15 5 0 -2 12 -16 27 -14
15 -22 31 -19 36 3 4 -4 3 -16 -5 -12 -7 -21 -17 -21 -21 0 -5 -8 -6 -17 -3
-14 6 -13 2 4 -16 20 -21 20 -24 5 -38 -15 -14 -15 -15 1 -18 9 -2 17 -8 17
-13 0 -18 -28 -9 -54 18 -20 19 -23 28 -14 34 7 5 16 3 20 -4 6 -9 8 -9 8 0 0
7 -11 20 -25 29 -27 18 -35 50 -10 40 8 -3 15 -2 15 3 0 5 -9 11 -20 14 -11 3
-18 2 -15 -3 3 -4 -10 -6 -28 -5 -44 4 -66 -28 -28 -40 25 -8 16 -35 -11 -35
-13 0 -18 5 -15 13 3 7 -4 19 -14 25 -12 8 -19 8 -19 2 0 -16 -37 -12 -44 5
-3 9 -18 15 -36 15 -18 0 -33 6 -36 15 -4 8 -12 15 -19 15 -7 0 -16 6 -18 13
-3 6 -6 0 -6 -15 -1 -16 4 -28 10 -28 5 0 7 -5 3 -11 -5 -8 -9 -8 -14 1 -4 7
-14 10 -21 8 -8 -3 -22 -1 -31 3 -24 13 -34 -9 -12 -26 11 -8 26 -15 35 -15 9
0 19 -7 23 -15 3 -8 12 -15 21 -15 8 0 15 -4 15 -10 0 -5 -7 -7 -15 -4 -8 4
-15 2 -15 -4 0 -5 -12 -7 -27 -5 -27 4 -27 4 -9 -11 16 -13 17 -19 8 -28 -15
-15 -16 -38 -2 -38 6 0 10 9 10 20 0 23 19 23 37 0 11 -13 12 -13 13 3 0 23
17 22 25 -3 4 -11 11 -18 16 -15 9 6 14 -28 11 -80 -1 -16 1 -25 5 -19 5 7 24
14 43 15 19 2 41 11 48 19 11 13 13 11 8 -11 -4 -19 -1 -29 10 -33 14 -5 15
-4 5 8 -9 11 -7 15 10 19 12 3 18 10 14 16 -3 6 -2 11 4 11 17 0 22 -18 7 -23
-15 -6 -11 -47 5 -47 5 0 6 -7 2 -15 -3 -9 -2 -15 3 -14 5 1 24 1 43 0 25 -1
32 -5 27 -16 -3 -8 2 -18 11 -23 9 -5 13 -15 9 -21 -4 -6 -12 -9 -17 -5 -5 3
-6 10 -3 16 4 6 -1 8 -12 6 -18 -3 -28 -29 -11 -27 21 1 46 -49 41 -82 -2 -19
0 -47 5 -64 8 -25 9 -27 10 -7 1 22 1 22 29 5 15 -10 30 -22 34 -27 11 -17 0
-20 -18 -5 -13 11 -18 11 -21 2 -3 -7 -11 -13 -19 -13 -8 0 -14 -4 -14 -10 0
-13 27 -13 35 0 4 6 13 5 25 -2 25 -16 52 4 32 24 -17 17 -15 28 4 28 8 0 12
5 8 11 -3 6 -15 9 -25 6 -14 -4 -19 0 -19 15 0 10 4 17 9 14 9 -6 24 35 16 43
-3 2 -5 -1 -5 -7 0 -7 -4 -12 -10 -12 -17 0 -11 27 8 35 21 8 28 6 24 -7 -1
-5 3 -6 9 -2 22 13 27 -18 6 -39 l-20 -20 31 -13 c27 -11 31 -17 30 -48 -1
-24 -6 -36 -15 -36 -8 0 -12 -4 -9 -9 3 -5 -1 -12 -10 -15 -22 -9 -26 -8 -18
5 4 7 1 10 -6 7 -24 -8 -22 -25 3 -32 30 -7 41 -31 27 -56 -7 -13 -7 -21 0
-25 8 -5 7 -11 -1 -21 -15 -18 1 -18 25 -1 17 13 17 14 1 31 -25 24 -10 33 17
10 l22 -19 -17 28 c-16 24 -16 28 -2 33 19 8 20 24 0 24 -8 0 -15 5 -15 10 0
6 8 10 18 9 23 -1 76 -66 75 -91 -1 -10 6 -28 15 -38 9 -10 23 -26 31 -35 7
-9 19 -14 27 -11 9 3 14 -2 14 -14 0 -25 -18 -26 -35 -3 -8 10 -26 17 -47 17
-29 0 -34 3 -30 18 3 12 -1 18 -12 18 -10 0 -14 5 -10 11 4 7 -3 6 -17 -2 -19
-11 -21 -14 -8 -17 20 -4 33 -36 30 -74 -1 -17 3 -28 10 -28 10 0 10 -3 1 -12
-10 -10 -15 -10 -22 2 -5 8 -12 11 -16 8 -3 -4 1 -14 9 -23 10 -9 18 -11 22
-5 8 13 35 13 35 0 0 -5 -7 -10 -16 -10 -10 0 -14 -5 -10 -15 3 -9 -1 -18 -9
-21 -8 -4 -15 -10 -15 -15 0 -5 9 -4 19 3 15 9 23 9 35 -1 9 -8 16 -19 15 -25
0 -7 -2 -6 -6 2 -2 6 -14 12 -24 12 -19 0 -19 -1 -2 -25 21 -29 29 -30 50 -10
12 13 13 18 2 31 -9 11 -9 18 -1 26 15 15 15 38 1 38 -12 0 -69 60 -69 73 0
11 14 9 28 -5 8 -8 15 -8 27 2 13 11 19 10 36 -8 16 -18 18 -26 9 -42 -7 -14
-7 -20 0 -20 5 0 10 5 10 11 0 5 4 8 8 5 5 -3 7 -26 5 -52 -3 -42 0 -51 23
-71 26 -22 27 -24 9 -43 -18 -20 -18 -21 1 -35 16 -12 16 -14 3 -15 -9 0 -22
11 -29 25 -7 13 -17 22 -22 19 -4 -3 -8 -1 -8 5 0 5 -3 17 -7 27 -4 12 -3 15
5 10 7 -4 12 -1 12 8 0 23 -23 20 -39 -5 -11 -18 -11 -23 1 -30 11 -7 11 -12
0 -29 -7 -11 -10 -25 -7 -30 3 -6 -1 -7 -10 -3 -12 4 -15 14 -11 33 6 31 -30
80 -59 80 -8 0 -15 7 -15 15 0 8 -4 15 -10 15 -5 0 -10 -4 -10 -10 0 -5 -5
-10 -11 -10 -6 0 -8 8 -5 18 4 11 1 19 -6 20 -7 0 -23 4 -35 7 -17 6 -23 3
-23 -9 0 -13 6 -15 28 -10 22 4 24 3 12 -6 -11 -8 -12 -13 -3 -16 7 -3 10 -11
7 -18 -3 -8 2 -16 11 -20 11 -4 14 -12 10 -26 -5 -15 -3 -18 9 -14 22 8 20 -3
-4 -28 -10 -12 -17 -25 -13 -31 3 -5 9 -4 13 3 6 9 15 6 36 -14 16 -14 23 -26
16 -26 -6 0 -12 -5 -12 -12 0 -6 -8 -20 -17 -31 -10 -11 -12 -17 -5 -13 7 4
12 2 12 -7 0 -9 -10 -14 -29 -13 -16 1 -28 3 -25 5 2 2 -1 12 -6 22 -6 9 -7
19 -2 22 4 2 1 2 -5 1 -19 -5 -16 14 5 25 16 9 15 11 -5 30 -29 28 -46 27 -38
-1 5 -18 4 -20 -4 -8 -10 13 -12 13 -20 0 -14 -20 -3 -32 22 -25 17 5 19 4 7
-4 -13 -9 -12 -12 5 -25 11 -9 15 -16 9 -16 -18 0 -27 -32 -12 -41 7 -4 9 -11
5 -16 -5 -4 -12 -1 -16 6 -5 7 -14 10 -20 6 -9 -5 -7 -11 6 -22 12 -9 13 -12
3 -9 -8 3 -23 9 -32 12 -24 8 -23 20 2 27 13 3 18 11 14 20 -6 16 -53 41 -62
32 -3 -3 -1 -5 5 -5 6 0 13 -9 16 -20 6 -22 -8 -28 -16 -7 -2 6 -8 9 -12 5 -4
-4 -2 -15 5 -23 10 -12 10 -19 2 -27 -8 -8 -8 -17 -1 -30 7 -12 6 -25 -2 -40
-9 -19 -9 -21 2 -11 17 17 32 17 22 0 -14 -23 -12 -41 10 -60 19 -18 20 -19 3
-13 -12 4 -23 2 -27 -6 -4 -7 -11 -9 -16 -5 -4 5 -1 12 7 17 8 5 11 12 7 16
-3 4 -13 1 -21 -5 -11 -9 -16 -9 -21 0 -4 6 -2 15 5 19 11 7 10 13 -3 33 -12
19 -13 27 -4 37 10 10 7 11 -10 5 -13 -3 -23 -2 -23 4 0 5 -10 13 -22 17 -20
6 -20 8 -5 19 9 7 17 16 17 21 0 4 -5 3 -12 -4 -15 -15 -38 -16 -38 -2 0 6 8
10 17 10 14 0 15 2 4 12 -11 10 -14 10 -18 1 -3 -7 -11 -13 -19 -13 -8 0 -14
-4 -14 -10 0 -14 -28 -12 -33 3 -3 8 -13 3 -30 -15 -29 -32 -37 -34 -37 -14 0
8 14 25 31 37 26 18 33 19 40 8 8 -12 11 -12 19 1 8 12 0 23 -33 52 -23 20
-38 40 -34 44 4 5 11 4 15 -2 11 -16 41 -24 47 -14 4 6 1 11 -4 11 -6 1 -16 2
-21 3 -10 1 -50 55 -50 68 0 3 9 4 20 1 25 -7 26 9 1 31 -18 16 -20 16 -34 -4
-8 -12 -13 -29 -10 -39 3 -12 -5 -26 -21 -39 -26 -20 -35 -42 -17 -42 5 0 11
7 15 15 3 8 12 15 20 15 10 0 13 -6 10 -15 -5 -11 -2 -13 10 -9 9 3 16 1 16
-5 0 -6 -12 -12 -27 -12 -17 -1 -21 -3 -10 -6 20 -5 23 -19 5 -25 -7 -3 -27
12 -45 31 -26 28 -30 38 -20 46 14 11 18 77 5 68 -5 -2 -6 -13 -3 -23 9 -27
-30 -47 -50 -26 -21 21 -19 32 11 53 l25 19 -36 37 c-21 21 -40 35 -44 31 -3
-4 0 -9 7 -11 19 -7 14 -31 -9 -38 -11 -4 -18 -9 -15 -12 3 -3 -1 -12 -9 -19
-23 -23 -11 -48 64 -132 13 -15 34 -51 47 -79 15 -36 29 -53 41 -53 11 0 24
-13 32 -31 16 -37 9 -94 -25 -187 -13 -37 -24 -86 -24 -109 0 -23 -5 -45 -11
-48 -6 -4 -9 -20 -7 -36 1 -17 -3 -33 -9 -37 -7 -5 -15 -21 -19 -38 -5 -25 -2
-32 20 -42 18 -8 26 -19 26 -37 0 -21 -5 -25 -30 -25 -30 0 -30 0 -14 25 15
23 15 25 0 25 -10 0 -14 -4 -11 -10 3 -5 2 -10 -4 -10 -5 0 -16 -13 -24 -30
-22 -43 -5 -52 95 -49 46 2 94 -1 107 -5 24 -8 24 -8 -8 -22 -23 -10 -49 -11
-97 -5 -79 9 -162 -6 -178 -34 -6 -10 -35 -41 -64 -70 -28 -28 -52 -54 -52
-58 0 -4 106 -7 236 -7 213 0 236 2 230 16 -4 12 -2 15 9 10 8 -3 15 -1 15 4
0 6 10 10 23 10 20 -1 20 -2 5 -11 -20 -11 -24 -29 -7 -29 11 0 42 32 60 64 8
13 8 17 0 11 -15 -9 -71 4 -71 16 0 6 5 7 10 4 9 -5 15 15 11 38 0 4 6 7 14 7
8 0 15 4 15 10 0 12 -45 24 -59 16 -5 -4 -21 -1 -35 5 -34 16 -16 39 30 39 24
0 34 5 34 15 0 8 -6 15 -14 15 -9 0 -12 7 -9 20 6 24 30 23 57 -3 11 -9 26
-17 33 -17 8 0 13 -7 11 -16 -2 -9 4 -21 13 -27 12 -8 21 -5 37 11 13 13 28
19 42 15 l21 -6 -23 -24 c-18 -19 -30 -23 -51 -19 -28 6 -29 5 -22 -33 6 -36
4 -40 -16 -43 -23 -3 -23 -3 4 -21 21 -14 25 -14 21 -2 -4 8 -2 15 4 15 16 0
21 -38 7 -50 -7 -6 -20 -8 -29 -4 -9 4 -16 1 -16 -6 0 -7 -8 -10 -20 -7 -13 3
-20 0 -20 -9 0 -20 86 -19 94 1 6 16 33 20 60 9 9 -3 13 -10 10 -15 -3 -5 18
-9 46 -9 29 0 49 4 45 9 -8 14 10 22 30 15 13 -5 14 -8 3 -15 -8 -6 -1 -9 21
-9 19 0 39 6 45 14 6 7 24 17 40 20 25 6 28 5 23 -13 -4 -19 -1 -21 34 -21 40
0 52 13 22 24 -12 5 -13 10 -5 18 7 7 34 8 79 4 37 -4 116 -9 176 -12 l107 -6
0 877 c0 820 -1 877 -17 871 -16 -6 -16 -6 0 12 16 17 17 171 17 2315 l0 2297
-3200 0 -3200 0 1 -877z m3234 157 c3 -5 1 -10 -4 -10 -6 0 -11 5 -11 10 0 6
2 10 4 10 3 0 8 -4 11 -10z m250 -190 c3 -5 1 -10 -4 -10 -6 0 -11 5 -11 10 0
6 2 10 4 10 3 0 8 -4 11 -10z m379 -36 c21 -20 20 -31 -1 -43 -15 -8 -18 -4
-20 25 -2 39 0 40 21 18z m-804 -59 c-13 -14 -25 -23 -27 -21 -6 6 30 46 41
46 5 0 -1 -11 -14 -25z m1195 -55 c5 -42 -14 -87 -30 -72 -4 4 -4 -3 -1 -15 8
-25 -3 -30 -22 -11 -8 8 -12 9 -12 1 0 -6 6 -13 13 -16 18 -6 7 -14 -34 -21
l-36 -6 8 45 c11 61 26 85 51 85 17 0 18 2 8 15 -7 9 -11 17 -9 18 10 8 54 24
57 22 2 -2 5 -22 7 -45z m-185 6 c0 -3 -4 -8 -10 -11 -5 -3 -10 -1 -10 4 0 6
5 11 10 11 6 0 10 -2 10 -4z m-52 -48 c-6 -18 -28 -21 -28 -4 0 9 7 16 16 16
9 0 14 -5 12 -12z m-171 -14 c-3 -3 -12 -4 -19 -1 -8 3 -5 6 6 6 11 1 17 -2
13 -5z m83 -43 c-7 -17 -15 -31 -19 -31 -4 0 -13 -16 -20 -36 -11 -31 -32 -44
-33 -19 0 31 37 125 51 128 27 6 35 -10 21 -42z m-362 -77 c6 3 13 2 17 -3 3
-6 -10 -13 -30 -17 -21 -4 -35 -12 -35 -21 0 -8 -4 -11 -10 -8 -6 4 -10 -7
-10 -25 0 -29 -1 -30 -16 -16 -8 9 -20 16 -25 16 -6 0 -7 5 -3 12 5 8 2 9 -9
5 -24 -9 -21 6 8 37 l24 26 12 -21 11 -22 22 26 c12 15 23 21 27 15 4 -6 11
-8 17 -4z m752 -14 c0 -5 -2 -10 -4 -10 -3 0 -8 5 -11 10 -3 6 -1 10 4 10 6 0
11 -4 11 -10z m-1206 -48 c-11 -10 -25 -17 -32 -14 -17 5 -15 22 2 22 8 0 17
8 20 17 5 12 9 14 18 5 9 -9 7 -16 -8 -30z m1196 -6 c0 -5 -7 -3 -15 4 -8 6
-19 9 -26 5 -8 -5 -8 -1 1 15 11 21 12 21 25 3 8 -10 15 -22 15 -27z m-202 -1
c2 -1 -3 -5 -11 -8 -7 -3 -19 4 -26 15 -11 18 -10 18 11 7 13 -6 24 -13 26
-14z m-873 -33 c-6 -6 -45 33 -45 44 0 4 11 -3 25 -16 14 -13 23 -26 20 -28z
m25 28 c0 -5 -2 -10 -4 -10 -3 0 -8 5 -11 10 -3 6 -1 10 4 10 6 0 11 -4 11
-10z m540 -75 c0 -2 -7 -5 -15 -9 -9 -3 -15 0 -15 9 0 9 6 12 15 9 8 -4 15 -7
15 -9z m50 0 c0 -2 -7 -5 -15 -9 -9 -3 -15 0 -15 9 0 9 6 12 15 9 8 -4 15 -7
15 -9z m-340 -5 c0 -5 -7 -10 -15 -10 -8 0 -15 5 -15 10 0 6 7 10 15 10 8 0
15 -4 15 -10z m774 -389 c-5 -6 -34 20 -34 30 0 5 8 1 18 -8 10 -10 17 -20 16
-22z m-19 -31 c-3 -5 2 -10 11 -10 10 0 15 -3 11 -6 -13 -14 -44 8 -44 31 0
21 1 22 14 10 8 -8 11 -19 8 -25z m115 11 c0 -17 -18 -21 -24 -6 -3 9 0 15 9
15 8 0 15 -4 15 -9z m-65 -11 c3 -6 -1 -7 -9 -4 -18 7 -21 14 -7 14 6 0 13 -4
16 -10z m-50 -33 c14 5 16 3 10 -7 -6 -10 -2 -11 19 -6 18 4 32 2 41 -8 19
-18 19 -23 1 -23 -8 0 -15 3 -14 6 2 20 -4 22 -22 6 -15 -13 -23 -15 -33 -7
-19 16 -50 -22 -41 -50 5 -17 3 -20 -11 -15 -9 4 -21 7 -26 7 -14 0 -11 20 9
44 9 13 23 21 30 18 6 -2 12 1 12 6 0 6 -9 14 -21 17 -17 6 -18 9 -8 22 12 13
14 13 25 -1 7 -10 18 -14 29 -9z m85 2 c0 -6 -4 -7 -10 -4 -5 3 -10 11 -10 16
0 6 5 7 10 4 6 -3 10 -11 10 -16z m-90 -69 c0 -5 -5 -10 -11 -10 -5 0 -7 5 -4
10 3 6 8 10 11 10 2 0 4 -4 4 -10z m50 0 c0 -5 -4 -10 -10 -10 -5 0 -10 5 -10
10 0 6 5 10 10 10 6 0 10 -4 10 -10z m80 -83 c0 -4 -6 -2 -14 5 -8 7 -12 17
-9 22 5 8 23 -12 23 -27z m165 -37 c3 -5 2 -10 -4 -10 -5 0 -13 5 -16 10 -3 6
-2 10 4 10 5 0 13 -4 16 -10z m-158 -20 c3 -10 2 -11 -4 -4 -4 6 -15 14 -23
17 -11 5 -9 6 4 4 11 -1 21 -9 23 -17z m-241 -651 c3 -6 17 -8 31 -4 40 10 53
-10 53 -82 0 -71 -12 -84 -57 -64 -20 9 -23 15 -15 23 20 20 14 30 -15 26 -26
-3 -28 0 -35 47 -5 34 -3 52 5 57 17 11 25 10 33 -3z m1284 -68 c0 -6 -4 -13
-10 -16 -5 -3 -10 1 -10 9 0 9 5 16 10 16 6 0 10 -4 10 -9z m73 -144 c8 -20
-5 -34 -28 -33 -21 2 -25 7 -25 31 0 19 46 20 53 2z m-193 -117 c0 -5 -4 -10
-10 -10 -5 0 -10 5 -10 10 0 6 5 10 10 10 6 0 10 -4 10 -10z m409 -26 c2 -2
-13 -3 -33 -2 -35 1 -48 12 -23 21 10 4 42 -7 56 -19z m-1124 -24 c-3 -5 -11
-10 -16 -10 -6 0 -7 5 -4 10 3 6 11 10 16 10 6 0 7 -4 4 -10z m1045 0 c0 -5
-4 -10 -10 -10 -5 0 -10 5 -10 10 0 6 5 10 10 10 6 0 10 -4 10 -10z m195 -30
c3 -5 1 -10 -4 -10 -6 0 -11 5 -11 10 0 6 2 10 4 10 3 0 8 -4 11 -10z m-235
-24 c23 -9 29 -16 19 -21 -7 -5 -14 -4 -17 3 -2 6 -9 9 -16 6 -8 -3 -16 2 -19
10 -8 19 -7 19 33 2z m-305 -6 c3 -5 1 -10 -4 -10 -6 0 -11 5 -11 10 0 6 2 10
4 10 3 0 8 -4 11 -10z m-520 -20 c3 -5 1 -10 -4 -10 -6 0 -11 5 -11 10 0 6 2
10 4 10 3 0 8 -4 11 -10z m1065 -11 c0 -5 -4 -9 -10 -9 -5 0 -10 7 -10 16 0 8
5 12 10 9 6 -3 10 -10 10 -16z m-1220 1 c13 -8 13 -10 -2 -10 -9 0 -20 5 -23
10 -8 13 5 13 25 0z m731 -6 c12 -14 11 -16 -5 -13 -11 2 -21 10 -24 17 -5 17
13 15 29 -4z m-1201 -19 c-7 -9 -15 -13 -18 -10 -3 2 1 11 8 20 7 9 15 13 18
10 3 -2 -1 -11 -8 -20z m1010 16 c0 -5 -7 -11 -15 -15 -15 -5 -20 5 -8 17 9
10 23 9 23 -2z m-264 -16 c10 -8 14 -15 7 -15 -6 0 -14 4 -18 10 -3 5 -13 6
-22 3 -11 -4 -14 -3 -9 5 9 16 18 15 42 -3z m134 1 c0 -11 -19 -15 -25 -6 -3
5 1 10 9 10 9 0 16 -2 16 -4z m-303 -12 c-3 -3 -12 -4 -19 -1 -8 3 -5 6 6 6
11 1 17 -2 13 -5z m602 -8 c9 -11 8 -15 -5 -20 -11 -4 -15 -2 -11 8 3 8 1 17
-6 20 -8 3 -8 5 -1 5 6 1 17 -5 23 -13z m534 -10 c17 -13 16 -14 -2 -19 -11
-2 -24 0 -30 6 -26 26 0 37 32 13z m-683 -16 c0 -5 -2 -10 -4 -10 -3 0 -8 5
-11 10 -3 6 -1 10 4 10 6 0 11 -4 11 -10z m190 -11 c0 -5 -7 -9 -15 -9 -15 0
-20 12 -9 23 8 8 24 -1 24 -14z m-730 1 c0 -5 -2 -10 -4 -10 -3 0 -8 5 -11 10
-3 6 -1 10 4 10 6 0 11 -4 11 -10z m541 -69 c-10 -17 -8 -23 9 -33 26 -16 26
-28 0 -28 -12 0 -20 -7 -20 -16 0 -9 -5 -14 -12 -12 -18 6 -22 28 -4 28 11 0
15 10 13 40 -1 36 -4 40 -27 41 -19 0 -21 2 -8 7 13 5 15 11 8 22 -19 29 -10
30 21 1 26 -25 29 -33 20 -50z m439 60 c-8 -16 -6 -22 7 -30 10 -5 15 -12 11
-16 -7 -7 -48 16 -48 27 0 7 29 38 36 38 3 0 0 -9 -6 -19z m211 -6 c12 4 19 2
19 -7 0 -8 9 -24 20 -36 26 -27 11 -29 -22 -2 -20 15 -28 16 -38 7 -10 -10
-11 -8 -6 10 4 12 2 24 -4 28 -6 3 -7 12 -3 18 5 8 9 6 11 -6 3 -13 9 -16 23
-12z m-711 -5 c0 -5 -5 -10 -11 -10 -5 0 -7 5 -4 10 3 6 8 10 11 10 2 0 4 -4
4 -10z m155 0 c3 -5 1 -10 -4 -10 -6 0 -11 5 -11 10 0 6 2 10 4 10 3 0 8 -4
11 -10z m-825 -10 c0 -5 -5 -10 -11 -10 -5 0 -7 5 -4 10 3 6 8 10 11 10 2 0 4
-4 4 -10z m926 -67 c-4 -9 -1 -22 5 -29 9 -11 8 -18 -1 -29 -9 -10 -9 -15 -1
-15 6 0 11 -5 11 -10 0 -6 -11 -8 -25 -4 -32 8 -31 1 1 -42 15 -19 21 -34 15
-34 -6 0 -11 4 -11 10 0 5 -10 8 -22 7 -12 -2 -30 3 -40 12 -18 15 -18 16 -1
30 13 9 14 15 6 18 -7 3 -13 9 -13 15 0 6 6 5 15 -2 9 -7 19 -9 23 -5 4 4 1
10 -5 12 -7 3 -13 9 -13 15 0 7 5 6 14 -1 11 -9 16 -9 21 0 4 6 4 14 -1 18
-15 11 -36 53 -29 59 3 4 10 0 15 -8 8 -13 10 -12 10 3 0 20 -32 36 -38 19 -2
-7 -8 -12 -13 -12 -6 0 -2 11 8 24 l18 24 28 -30 c17 -18 26 -36 23 -45z
m-886 52 c-7 -8 -17 -12 -23 -8 -6 4 -3 9 9 14 27 11 28 11 14 -6z m-450 -15
c0 -5 -4 -10 -9 -10 -6 0 -13 5 -16 10 -3 6 1 10 9 10 9 0 16 -4 16 -10z m490
0 c0 -5 -2 -10 -4 -10 -3 0 -8 5 -11 10 -3 6 -1 10 4 10 6 0 11 -4 11 -10z
m335 0 c4 -7 12 -7 25 0 13 7 21 7 26 -2 4 -6 3 -8 -4 -4 -14 8 -45 -35 -33
-47 12 -12 33 1 25 15 -4 7 -2 8 4 4 7 -4 12 -13 12 -21 0 -15 -31 -29 -39
-17 -3 5 -15 12 -26 17 -18 7 -18 9 -2 12 9 3 17 11 17 18 0 8 -8 19 -17 24
-10 6 -13 11 -6 11 6 0 15 -5 18 -10z m-975 -20 c0 -5 -2 -10 -4 -10 -3 0 -8
5 -11 10 -3 6 -1 10 4 10 6 0 11 -4 11 -10z m420 -33 c0 -11 -39 16 -45 31 -3
8 4 6 20 -5 13 -10 25 -21 25 -26z m250 33 c0 -5 -2 -10 -4 -10 -3 0 -8 5 -11
10 -3 6 -1 10 4 10 6 0 11 -4 11 -10z m1060 0 c0 -5 -4 -10 -9 -10 -6 0 -13 5
-16 10 -3 6 1 10 9 10 9 0 16 -4 16 -10z m162 -12 c-7 -7 -12 -8 -12 -2 0 14
12 26 19 19 2 -3 -1 -11 -7 -17z m58 17 c0 -3 -9 -14 -20 -25 -29 -29 -48 -25
-20 5 22 23 40 32 40 20z m-1225 -15 c3 -5 1 -10 -4 -10 -6 0 -11 5 -11 10 0
6 2 10 4 10 3 0 8 -4 11 -10z m-145 -20 c0 -5 -7 -7 -15 -4 -8 4 -12 10 -9 15
6 11 24 2 24 -11z m780 -6 c0 -8 -5 -12 -10 -9 -6 4 -8 11 -5 16 9 14 15 11
15 -7z m300 1 c11 -13 11 -20 0 -40 -7 -14 -20 -25 -27 -25 -8 0 -12 4 -9 8 3
5 -3 14 -13 21 -17 13 -17 15 -2 31 20 23 35 24 51 5z m314 -6 c-3 -5 -10 -7
-15 -3 -5 3 -7 10 -3 15 3 5 10 7 15 3 5 -3 7 -10 3 -15z m-214 -31 c0 -33
-17 -19 -18 14 -1 23 2 28 8 18 6 -8 10 -23 10 -32z m135 12 c3 -6 -1 -10 -9
-10 -9 0 -16 5 -16 10 0 6 -7 10 -16 10 -8 0 -12 5 -9 10 7 11 39 -2 50 -20z
m-1354 10 c17 -10 18 -13 5 -26 -13 -12 -19 -12 -36 -2 -26 16 -26 32 -1 18
29 -15 39 -12 17 5 -23 17 -14 20 15 5z m349 -3 c0 -7 -10 -18 -21 -26 -19
-11 -21 -11 -15 4 3 9 6 21 6 26 0 5 7 9 15 9 8 0 15 -6 15 -13z m-40 -1 c0
-11 -19 -15 -25 -6 -3 5 1 10 9 10 9 0 16 -2 16 -4z m194 -11 c-22 -17 -34
-19 -34 -6 0 5 8 12 18 14 32 9 36 7 16 -8z m196 1 c0 -17 22 -26 47 -20 20 5
62 -20 51 -31 -3 -4 -15 -2 -26 4 -12 6 -31 11 -44 11 -13 0 -29 5 -36 12 -15
15 -16 38 -2 38 6 0 10 -6 10 -14z m154 6 c3 -5 -1 -9 -9 -9 -8 0 -15 4 -15 9
0 4 4 8 9 8 6 0 12 -4 15 -8z m587 -26 c-6 -14 -18 -26 -26 -26 -17 0 -13 11
14 40 21 22 24 19 12 -14z m-1926 14 c-3 -5 -14 -10 -23 -10 -15 0 -15 2 -2
10 20 13 33 13 25 0z m29 -21 c-3 -5 -10 -7 -15 -3 -5 3 -7 10 -3 15 3 5 10 7
15 3 5 -3 7 -10 3 -15z m-119 1 c-3 -5 -11 -10 -16 -10 -6 0 -7 5 -4 10 3 6
11 10 16 10 6 0 7 -4 4 -10z m785 0 c0 -5 -2 -10 -4 -10 -3 0 -8 5 -11 10 -3
6 -1 10 4 10 6 0 11 -4 11 -10z m-410 -16 c0 -2 -7 -4 -15 -4 -8 0 -15 4 -15
10 0 5 7 7 15 4 8 -4 15 -8 15 -10z m505 6 c3 -6 -1 -13 -10 -16 -19 -8 -30 0
-20 15 8 14 22 14 30 1z m999 -5 c-4 -8 -11 -15 -16 -15 -6 0 -5 6 2 15 7 8
14 15 16 15 2 0 1 -7 -2 -15z m-1224 -5 c0 -5 -4 -10 -10 -10 -5 0 -10 5 -10
10 0 6 5 10 10 10 6 0 10 -4 10 -10z m550 -10 c0 -5 7 -10 15 -10 8 0 15 5 15
10 0 6 7 10 15 10 8 0 15 -4 15 -10 0 -5 -7 -10 -15 -10 -8 0 -15 -5 -15 -10
0 -6 -13 -4 -30 5 -33 17 -38 25 -15 25 8 0 15 -4 15 -10z m95 -10 c-10 -11
-23 -20 -29 -20 -6 0 0 9 14 20 32 25 38 25 15 0z m-505 -8 c0 -10 6 -24 13
-31 6 -8 0 -6 -15 4 -28 18 -33 26 -21 38 12 13 23 7 23 -11z m164 3 c-7 -16
-24 -21 -24 -6 0 8 7 13 27 20 1 1 0 -6 -3 -14z m-296 -15 c-11 -18 -28 -27
-28 -16 0 16 14 36 26 36 12 0 12 -4 2 -20z m535 -3 c10 -4 15 -12 11 -18 -4
-8 3 -9 25 -4 20 4 31 3 31 -5 0 -6 5 -8 10 -5 6 3 10 -1 10 -9 0 -14 -3 -14
-20 -4 -17 11 -22 10 -30 -2 -9 -13 -12 -13 -21 3 -5 9 -17 17 -25 17 -8 0
-12 -4 -9 -10 3 -5 4 -10 1 -10 -2 0 -13 -3 -23 -7 -14 -5 -13 0 7 22 14 16
20 25 13 21 -6 -3 -14 -2 -18 4 -8 13 5 35 14 23 3 -5 14 -12 24 -16z m165 -7
c6 0 12 -6 15 -12 3 -10 8 -10 21 1 15 12 19 12 32 -7 8 -12 20 -22 25 -22 6
0 17 -7 25 -15 14 -13 13 -15 -4 -15 -11 0 -22 5 -24 12 -7 21 -37 1 -31 -22
4 -16 8 -18 19 -9 11 9 14 8 14 -6 0 -10 5 -15 14 -12 10 4 12 0 8 -15 -5 -19
-6 -19 -17 -4 -7 9 -26 16 -43 16 -36 0 -52 18 -29 32 26 14 39 45 22 51 -10
4 -12 1 -9 -11 5 -14 4 -15 -5 -2 -6 8 -11 11 -11 6 0 -5 -7 -3 -15 4 -8 7
-15 9 -15 4 0 -5 -7 4 -15 20 -18 35 -19 47 -1 24 7 -10 18 -18 24 -18z m422
14 c0 -8 -4 -12 -10 -9 -5 3 -10 10 -10 16 0 5 5 9 10 9 6 0 10 -7 10 -16z
m170 6 c0 -5 -4 -10 -10 -10 -5 0 -10 5 -10 10 0 6 5 10 10 10 6 0 10 -4 10
-10z m-1602 -12 c19 -19 14 -29 -8 -16 -17 11 -22 10 -30 -2 -5 -8 -10 -10
-10 -4 0 11 20 34 30 34 3 0 11 -5 18 -12z m-143 -7 c-3 -6 2 -14 11 -19 9 -5
15 -15 12 -22 -2 -8 -11 -5 -28 9 -21 18 -23 22 -10 31 19 12 23 13 15 1z
m333 -19 c2 -7 -2 -10 -12 -6 -9 3 -16 11 -16 16 0 13 23 5 28 -10z m322 8 c0
-5 -4 -10 -10 -10 -5 0 -10 5 -10 10 0 6 5 10 10 10 6 0 10 -4 10 -10z m187
-5 c8 -9 12 -19 8 -23 -4 -4 -10 -1 -12 6 -3 6 -11 12 -19 12 -9 0 -12 5 -9
10 8 14 14 13 32 -5z m736 -27 c6 -21 5 -21 -17 3 -13 13 -21 28 -19 32 7 12
30 -10 36 -35z m197 32 c0 -5 -4 -10 -10 -10 -5 0 -10 5 -10 10 0 6 5 10 10
10 6 0 10 -4 10 -10z m-1200 -30 c0 -17 -28 -18 -33 -1 -3 14 0 17 14 14 11
-3 19 -9 19 -13z m181 11 c-13 -8 -13 -12 0 -27 12 -16 11 -15 -15 1 -26 17
-27 20 -10 26 27 11 42 10 25 0z m-661 -25 c0 -2 -8 -2 -19 1 -11 3 -21 -2
-24 -11 -4 -9 -11 -16 -17 -16 -6 0 -3 11 6 25 13 20 20 23 35 14 10 -5 19
-11 19 -13z m150 20 c0 -3 -4 -8 -10 -11 -5 -3 -10 -1 -10 4 0 6 5 11 10 11 6
0 10 -2 10 -4z m680 -18 c14 -18 21 -20 32 -11 9 8 19 9 28 3 13 -8 12 -11 -3
-22 -18 -13 -18 -14 0 -34 10 -12 25 -19 33 -16 13 5 13 3 1 -11 -10 -13 -17
-15 -27 -6 -11 9 -14 8 -14 -1 0 -8 -3 -11 -6 -7 -3 3 -15 -4 -26 -15 -19 -19
-20 -19 -46 -2 -24 16 -26 16 -13 1 7 -9 9 -17 3 -17 -5 0 -15 6 -21 14 -10
11 -9 16 5 24 20 11 54 4 54 -11 0 -7 5 -6 13 2 10 10 8 15 -7 27 -20 14 -20
14 0 29 18 14 18 15 -16 45 -19 16 -29 30 -22 30 8 0 22 -10 32 -22z m828 10
c8 -8 15 -8 27 2 20 17 19 5 -2 -20 -12 -14 -20 -16 -29 -9 -9 7 -20 5 -39 -7
-37 -24 -46 -7 -10 22 34 27 37 28 53 12z m-598 -26 c0 -13 -3 -12 -20 3 -11
10 -20 13 -20 7 0 -7 -7 -12 -15 -12 -21 0 -19 18 3 22 27 6 52 -3 52 -20z
m-650 4 c0 -8 7 -16 15 -20 8 -3 15 0 15 6 0 6 3 9 6 5 3 -3 2 -13 -3 -22 -9
-15 -11 -15 -26 -1 -8 9 -20 16 -26 16 -6 0 -11 7 -11 15 0 8 7 15 15 15 8 0
15 -6 15 -14z m380 11 c0 -10 -41 -49 -46 -45 -6 7 27 48 38 48 5 0 8 -2 8 -3z
m619 -20 l22 -24 -38 3 c-21 2 -40 3 -42 3 -4 1 30 41 34 41 1 0 11 -11 24
-23z m51 13 c0 -5 -4 -10 -10 -10 -5 0 -10 5 -10 10 0 6 5 10 10 10 6 0 10 -4
10 -10z m-1554 -14 c8 -8 14 -20 14 -27 0 -7 -9 -4 -20 9 -29 31 -24 48 6 18z
m709 4 c3 -5 1 -10 -4 -10 -6 0 -11 5 -11 10 0 6 2 10 4 10 3 0 8 -4 11 -10z
m1039 -19 c3 -5 14 -8 24 -6 9 1 11 0 4 -2 -7 -3 -10 -9 -6 -14 3 -6 0 -17 -7
-25 -9 -11 -9 -18 -1 -26 16 -16 15 -28 -2 -28 -8 0 -16 -6 -19 -12 -2 -8 -8
-9 -13 -4 -5 5 -4 11 4 13 6 3 12 12 12 20 0 12 -3 13 -15 3 -8 -6 -19 -8 -26
-4 -8 5 -3 12 15 21 27 14 38 50 12 40 -10 -4 -12 0 -9 14 6 20 18 25 27 10z
m-1046 -18 c16 -16 16 -16 -1 -10 -10 4 -23 7 -28 7 -5 0 -9 5 -9 10 0 15 20
12 38 -7z m-708 -13 c0 -11 5 -19 11 -17 6 1 14 -5 17 -13 2 -8 1 -12 -3 -8
-4 4 -14 0 -21 -10 -12 -15 -12 -14 -7 7 5 19 3 23 -9 19 -11 -5 -14 0 -10 18
5 29 22 32 22 4z m441 -3 c-13 -13 -26 -3 -16 12 3 6 11 8 17 5 6 -4 6 -10 -1
-17z m70 -6 c11 -10 17 -21 12 -24 -8 -5 -53 26 -53 37 0 12 22 5 41 -13z
m164 9 c3 -5 -3 -10 -15 -10 -12 0 -18 5 -15 10 3 6 10 10 15 10 5 0 12 -4 15
-10z m155 1 c0 -12 -20 -25 -27 -18 -7 7 6 27 18 27 5 0 9 -4 9 -9z m631 -1
c10 -6 19 -20 19 -30 0 -11 5 -20 10 -20 18 0 10 -17 -15 -30 -14 -7 -25 -19
-25 -27 0 -7 -7 -13 -15 -13 -8 0 -15 5 -15 10 0 6 5 10 10 10 14 0 13 27 -1
32 -14 5 -18 49 -6 66 11 15 13 15 38 2z m-1301 -4 c0 -3 -4 -8 -10 -11 -5 -3
-10 -1 -10 4 0 6 5 11 10 11 6 0 10 -2 10 -4z m1068 -25 c42 -7 56 -35 21 -44
-24 -6 -89 38 -89 62 0 11 3 11 16 1 8 -8 32 -16 52 -19z m360 9 c-7 -10 -14
-17 -17 -15 -4 4 18 35 25 35 2 0 -1 -9 -8 -20z m-1343 -10 c-3 -5 -11 -10
-16 -10 -6 0 -7 5 -4 10 3 6 11 10 16 10 6 0 7 -4 4 -10z m175 2 c0 -11 -37
-32 -44 -25 -3 3 2 12 12 19 19 15 32 18 32 6z m280 -2 c0 -5 -7 -10 -15 -10
-8 0 -15 5 -15 10 0 6 7 10 15 10 8 0 15 -4 15 -10z m-617 -7 c3 -5 -6 -9 -20
-10 -19 -1 -22 1 -12 8 17 11 26 11 32 2z m662 -3 c-3 -5 -13 -10 -21 -10 -8
0 -12 5 -9 10 3 6 13 10 21 10 8 0 12 -4 9 -10z m42 -58 c-9 -11 -7 -17 8 -28
18 -13 18 -14 0 -34 -16 -18 -16 -20 -2 -20 10 0 17 -7 17 -16 0 -10 6 -13 19
-9 28 8 34 -38 9 -65 -16 -17 -22 -19 -35 -9 -11 10 -16 10 -23 0 -5 -9 -10
-10 -14 -3 -3 6 -2 13 3 17 14 8 9 44 -5 38 -7 -3 -10 -11 -7 -19 3 -8 1 -14
-5 -14 -15 0 -23 28 -9 34 8 3 9 7 2 13 -11 8 -17 43 -7 43 2 0 11 -8 19 -17
13 -17 14 -17 11 2 -2 11 3 26 12 32 13 11 12 13 -7 19 -26 7 -30 22 -8 30 17
7 21 34 5 34 -5 0 -10 8 -10 18 0 14 4 12 20 -8 14 -19 16 -28 7 -38z m829 40
c0 -10 -6 -19 -13 -19 -8 0 -9 6 -2 19 5 10 11 18 12 18 2 0 3 -8 3 -18z
m-1409 -38 c6 -7 10 -14 7 -17 -5 -5 -64 50 -64 60 0 5 22 -11 57 -43z m473
26 c20 -20 20 -20 1 -20 -11 0 -23 -5 -27 -12 -5 -7 -3 -8 6 -3 9 6 11 4 5 -5
-4 -7 -2 -16 6 -22 11 -8 10 -9 -3 -4 -10 3 -18 1 -18 -4 0 -6 -7 -10 -15 -10
-8 0 -15 7 -15 16 0 10 6 14 15 10 20 -7 19 8 -1 28 -14 15 -13 16 8 17 13 0
17 3 10 6 -6 2 -10 9 -6 14 8 13 11 12 34 -11z m-645 0 c-3 -5 -11 -10 -16
-10 -6 0 -7 5 -4 10 3 6 11 10 16 10 6 0 7 -4 4 -10z m325 -7 c0 -15 -2 -15
-24 -7 -23 9 -20 23 4 21 11 -1 20 -7 20 -14z m202 -12 c10 5 18 7 18 5 0 -3
-9 -10 -20 -16 -20 -11 -60 5 -60 23 0 4 10 1 22 -7 15 -11 26 -12 40 -5z
m1088 15 c0 -3 -4 -8 -10 -11 -5 -3 -10 -1 -10 4 0 6 5 11 10 11 6 0 10 -2 10
-4z m-1537 -49 c-3 -6 -12 -2 -19 7 -9 13 -19 16 -35 11 -19 -6 -20 -5 -8 8
12 13 17 13 41 -1 15 -9 24 -20 21 -25z m1572 33 c3 -5 1 -10 -4 -10 -6 0 -11
5 -11 10 0 6 2 10 4 10 3 0 8 -4 11 -10z m-1345 -4 c0 -2 -7 -9 -15 -16 -13
-11 -14 -10 -9 4 5 14 24 23 24 12z m1380 -6 c0 -5 -5 -10 -11 -10 -5 0 -7 5
-4 10 3 6 8 10 11 10 2 0 4 -4 4 -10z m-1110 -9 c0 -6 -4 -13 -10 -16 -5 -3
-10 1 -10 9 0 9 5 16 10 16 6 0 10 -4 10 -9z m1058 -16 c-3 -3 -9 2 -12 12 -6
14 -5 15 5 6 7 -7 10 -15 7 -18z m116 9 c4 -9 4 -19 1 -22 -3 -3 -5 0 -5 6 0
7 -7 12 -16 12 -10 0 -14 -6 -10 -15 3 -9 0 -15 -8 -15 -25 0 -27 14 -4 32 29
22 34 22 42 2z m-1624 -4 c0 -5 -2 -10 -4 -10 -2 0 -12 -3 -22 -7 -16 -6 -17
-5 -4 10 17 19 30 22 30 7z m126 -5 c17 -16 14 -18 -10 -9 -9 3 -16 10 -16 15
0 13 9 11 26 -6z m1024 -16 c0 -5 -4 -9 -10 -9 -5 0 -10 7 -10 16 0 8 5 12 10
9 6 -3 10 -10 10 -16z m330 6 c0 -18 36 -20 43 -2 4 8 6 7 6 -3 1 -8 -8 -21
-19 -28 -16 -10 -23 -9 -39 4 -11 10 -17 23 -14 30 7 19 23 18 23 -1z m-1450
-4 c0 -12 -20 -25 -27 -18 -7 7 6 27 18 27 5 0 9 -4 9 -9z m74 -20 c-2 -3 -12
3 -22 13 -16 17 -16 18 5 5 12 -7 20 -15 17 -18z m211 19 c-3 -5 -10 -10 -16
-10 -5 0 -9 5 -9 10 0 6 7 10 16 10 8 0 12 -4 9 -10z m72 -32 c-18 -12 -23
-10 -23 11 0 15 3 17 18 8 13 -8 14 -13 5 -19z m-153 7 c-4 -8 1 -17 10 -21 9
-3 13 -10 10 -16 -3 -5 -12 -4 -20 3 -20 17 -60 -5 -76 -43 -12 -26 -48 -40
-48 -18 0 6 -6 10 -14 10 -17 0 -66 39 -49 40 6 0 15 -5 18 -10 3 -6 18 -7 32
-4 17 5 24 3 20 -3 -4 -6 1 -10 10 -9 9 0 35 20 57 44 42 43 60 53 50 27z
m440 -1 c3 -8 2 -12 -4 -9 -6 3 -10 10 -10 16 0 14 7 11 14 -7z m668 9 c-6 -2
-10 -9 -6 -14 3 -5 0 -9 -5 -9 -6 0 -11 7 -11 15 0 8 8 15 18 14 10 0 12 -3 4
-6z m-1387 -13 c8 -13 -5 -13 -25 0 -13 8 -13 10 2 10 9 0 20 -4 23 -10z m145
0 c12 -1 12 -3 -2 -14 -10 -7 -17 -15 -15 -17 1 -2 -2 0 -8 5 -5 6 -17 16 -25
24 -13 12 -12 13 10 8 14 -3 32 -6 40 -6z m180 0 c0 -5 -5 -10 -11 -10 -5 0
-7 5 -4 10 3 6 8 10 11 10 2 0 4 -4 4 -10z m280 0 c0 -5 -4 -10 -10 -10 -5 0
-10 5 -10 10 0 6 5 10 10 10 6 0 10 -4 10 -10z m1005 0 c-3 -5 -10 -10 -16
-10 -5 0 -9 5 -9 10 0 6 7 10 16 10 8 0 12 -4 9 -10z m-1645 -20 c0 -5 -5 -10
-11 -10 -5 0 -7 5 -4 10 3 6 8 10 11 10 2 0 4 -4 4 -10z m1560 1 c0 -5 9 -13
21 -16 29 -10 18 -30 -18 -30 -30 -1 -32 3 -24 48 2 10 21 9 21 -2z m-1456
-16 c-23 -17 -34 -19 -34 -4 0 5 5 7 10 4 6 -3 10 -1 10 4 0 6 8 11 17 11 15
0 14 -2 -3 -15z m462 -6 c19 -22 19 -22 -3 -8 -13 8 -23 17 -23 21 0 12 6 9
26 -13z m-84 -8 c-4 -11 1 -13 23 -9 30 6 67 -22 73 -55 4 -25 -11 -21 -23 6
-7 16 -18 22 -42 22 -18 0 -33 3 -33 7 0 5 -7 8 -16 8 -8 0 -12 5 -8 11 3 6 1
15 -6 19 -8 5 -4 8 12 7 17 -2 24 -6 20 -16z m938 9 c0 -5 -5 -10 -11 -10 -5
0 -7 5 -4 10 3 6 8 10 11 10 2 0 4 -4 4 -10z m-1115 -10 c3 -5 1 -10 -4 -10
-6 0 -11 5 -11 10 0 6 2 10 4 10 3 0 8 -4 11 -10z m509 -5 c3 -8 10 -15 16
-15 5 0 10 7 10 15 0 8 5 15 10 15 15 0 12 -17 -7 -36 -11 -11 -18 -13 -21 -5
-2 6 -10 11 -18 11 -8 0 -14 7 -14 15 0 8 4 15 9 15 5 0 11 -7 15 -15z m-174
-5 c0 -5 -4 -10 -10 -10 -5 0 -10 5 -10 10 0 6 5 10 10 10 6 0 10 -4 10 -10z
m-510 -40 c14 0 18 -5 13 -17 -6 -16 -5 -16 10 -4 15 12 17 11 17 -8 0 -23
-19 -28 -38 -9 -7 7 -12 8 -12 2 0 -13 -45 -35 -54 -27 -10 10 6 68 23 81 13
11 17 10 19 -2 2 -9 12 -16 22 -16z m284 13 c10 4 12 0 9 -13 -5 -18 -7 -18
-29 -3 -13 8 -24 20 -24 25 0 6 6 5 15 -2 8 -7 21 -10 29 -7z m56 -23 c0 -5
-4 -10 -10 -10 -5 0 -10 5 -10 10 0 6 5 10 10 10 6 0 10 -4 10 -10z m950 0 c0
-5 -2 -10 -4 -10 -3 0 -8 5 -11 10 -3 6 -1 10 4 10 6 0 11 -4 11 -10z m-1043
-16 c3 3 14 -5 23 -17 18 -21 18 -23 -2 -41 -10 -10 -22 -15 -26 -11 -4 4 -1
10 6 12 6 3 12 11 12 18 0 19 -34 37 -54 29 -9 -3 -16 -2 -16 3 0 18 13 22 32
12 11 -6 22 -8 25 -5z m201 -24 c5 0 12 -7 16 -15 3 -8 0 -15 -6 -15 -18 0
-58 41 -58 59 1 12 5 11 19 -6 11 -13 24 -23 29 -23z m83 -3 c-13 -13 -15 1
-4 30 7 17 8 17 11 -1 2 -10 -1 -23 -7 -29z m54 -3 c-11 -9 -27 -19 -35 -24
-13 -8 -12 -11 5 -25 19 -15 19 -15 -10 -9 -16 4 -34 13 -38 21 -5 7 -18 22
-29 33 -12 11 -19 23 -15 26 3 3 17 -6 31 -21 26 -28 56 -28 56 0 0 8 7 15 15
15 8 0 15 5 15 12 0 9 3 9 13 -1 10 -10 8 -15 -8 -27z m-508 0 c-16 -14 -31
-23 -34 -20 -7 7 36 46 51 46 6 0 -2 -12 -17 -26z m83 5 c11 -8 12 -12 3 -16
-21 -8 -15 -33 7 -33 11 0 20 5 20 11 0 6 16 -5 36 -25 34 -34 35 -37 19 -53
-14 -13 -21 -14 -35 -5 -14 9 -21 8 -31 -4 -10 -12 -8 -17 7 -28 20 -15 44
-10 57 11 12 20 25 7 20 -21 -7 -35 -42 -44 -64 -17 -9 11 -23 21 -31 20 -10
0 -10 -2 0 -6 14 -5 16 -23 3 -23 -5 0 -13 10 -16 21 -5 14 -10 18 -14 10 -5
-7 -12 -2 -19 14 -16 35 -15 39 6 19 16 -16 17 -16 20 -1 4 18 -20 47 -37 47
-6 0 -11 7 -11 15 0 8 7 15 15 15 8 0 15 7 15 15 0 8 5 15 10 15 17 0 11 18
-7 23 -13 3 -14 5 -3 6 8 0 22 -4 30 -10z m-125 -47 c-7 -7 -45 29 -45 41 0 6
11 0 25 -13 14 -13 23 -26 20 -28z m85 28 c0 -5 -2 -10 -4 -10 -3 0 -8 5 -11
10 -3 6 -1 10 4 10 6 0 11 -4 11 -10z m294 -34 c-4 -10 -13 -15 -21 -12 -8 3
-24 6 -36 6 -20 0 -20 1 -5 17 14 13 20 14 32 4 10 -8 16 -9 21 -1 3 5 1 10
-4 10 -6 0 -11 5 -11 12 0 8 5 7 15 -3 9 -9 13 -23 9 -33z m192 29 c-10 -7
-15 -18 -11 -24 3 -7 0 -8 -9 -5 -9 3 -16 9 -16 11 0 9 34 32 45 32 6 0 2 -6
-9 -14z m-522 -24 c-5 -3 -15 -17 -22 -30 -13 -22 -12 -23 7 -18 12 3 21 3 21
1 0 -7 -21 -33 -55 -67 -16 -16 -28 -35 -27 -41 2 -6 0 -8 -4 -4 -4 4 -13 3
-21 -3 -10 -9 -17 -8 -28 1 -24 20 -18 33 13 26 15 -3 21 -3 15 0 -22 10 -14
22 10 17 16 -3 18 -2 9 5 -17 11 -11 48 7 44 7 -1 10 2 7 6 -7 12 56 82 67 75
5 -3 5 -8 1 -12z m416 -8 c18 -16 18 -18 3 -35 -20 -22 -28 -22 -53 -1 -25 22
-25 33 0 33 11 0 20 -5 20 -11 0 -5 5 -7 10 -4 8 5 7 11 -1 21 -16 19 -3 18
21 -3z m-495 -13 c3 -5 2 -10 -4 -10 -5 0 -13 5 -16 10 -3 6 -2 10 4 10 5 0
13 -4 16 -10z m327 -12 c-16 -16 -15 -28 3 -28 26 0 16 -16 -25 -39 -22 -12
-40 -17 -40 -12 0 6 5 11 12 11 9 0 9 3 0 12 -15 15 -16 32 -2 23 6 -3 10 1
10 9 0 9 7 16 15 16 8 0 15 5 15 10 0 6 5 10 12 10 9 0 9 -3 0 -12z m78 -48
c0 -5 -7 -10 -15 -10 -8 0 -15 5 -15 10 0 6 7 10 15 10 8 0 15 -4 15 -10z m56
-57 c20 -27 17 -38 -6 -18 -19 17 -20 17 -28 -5 -6 -15 -11 -19 -16 -12 -7 12
14 52 28 52 5 0 15 -8 22 -17z m-312 -20 c3 -7 -1 -13 -8 -13 -8 0 -16 6 -19
13 -3 8 1 14 9 14 7 0 15 -6 18 -14z m56 -4 c0 -6 -4 -7 -10 -4 -5 3 -10 11
-10 16 0 6 5 7 10 4 6 -3 10 -11 10 -16z m140 -19 c0 -5 -5 -10 -11 -10 -5 0
-7 5 -4 10 3 6 8 10 11 10 2 0 4 -4 4 -10z m-280 -10 c0 -5 -2 -10 -4 -10 -3
0 -8 5 -11 10 -3 6 -1 10 4 10 6 0 11 -4 11 -10z m-30 -20 c0 -5 -4 -10 -10
-10 -5 0 -10 5 -10 10 0 6 5 10 10 10 6 0 10 -4 10 -10z m240 6 c0 -3 -4 -8
-10 -11 -5 -3 -10 -1 -10 4 0 6 5 11 10 11 6 0 10 -2 10 -4z m200 -6 c0 -5 -5
-10 -11 -10 -5 0 -7 5 -4 10 3 6 8 10 11 10 2 0 4 -4 4 -10z m655 -106 c14
-15 14 -17 -1 -29 -12 -8 -14 -14 -6 -19 7 -4 12 -13 12 -19 0 -7 -4 -6 -10 3
-8 12 -12 13 -19 2 -4 -8 -17 -12 -27 -9 -17 4 -17 6 4 12 12 4 22 11 22 15 0
5 3 15 6 24 4 11 1 16 -11 16 -9 0 -13 5 -10 10 9 14 21 12 40 -6z m116 -23
c-8 -5 -10 -14 -6 -21 5 -9 4 -11 -3 -6 -16 9 -15 -7 0 -22 9 -9 9 -12 0 -12
-7 0 -12 5 -12 10 0 6 -7 10 -16 10 -8 0 -12 -5 -8 -11 3 -6 0 -15 -7 -20 -10
-6 -11 -9 -1 -9 6 0 12 -6 12 -14 0 -8 6 -16 13 -19 6 -2 8 -8 4 -13 -4 -5
-12 -2 -17 6 -7 12 -13 12 -27 4 -16 -10 -18 -7 -18 32 0 33 6 49 25 66 13 12
30 23 38 24 8 2 16 5 20 8 3 3 8 4 11 0 3 -3 -1 -9 -8 -13z m-71 -6 c-7 -9
-15 -13 -19 -10 -3 3 1 10 9 15 21 14 24 12 10 -5z m-115 -5 c3 -5 1 -10 -4
-10 -6 0 -11 5 -11 10 0 6 2 10 4 10 3 0 8 -4 11 -10z m768 -17 c-7 -3 -9 -11
-6 -19 3 -8 1 -14 -5 -14 -15 0 -20 23 -8 36 6 7 15 9 21 6 5 -3 4 -7 -2 -9z
m-509 -128 c3 -9 0 -12 -9 -9 -7 3 -16 12 -19 19 -3 9 0 12 9 9 7 -3 16 -12
19 -19z m-169 5 c3 -5 1 -10 -4 -10 -6 0 -11 5 -11 10 0 6 2 10 4 10 3 0 8 -4
11 -10z m325 -11 c0 -6 -4 -7 -10 -4 -5 3 -10 11 -10 16 0 6 5 7 10 4 6 -3 10
-11 10 -16z m-20 -13 c0 -3 -4 -8 -10 -11 -5 -3 -10 -1 -10 4 0 6 5 11 10 11
6 0 10 -2 10 -4z m-155 -26 c3 -5 1 -10 -4 -10 -6 0 -11 5 -11 10 0 6 2 10 4
10 3 0 8 -4 11 -10z m795 -10 c0 -5 -4 -10 -10 -10 -5 0 -10 5 -10 10 0 6 5
10 10 10 6 0 10 -4 10 -10z m-630 -9 c0 -5 -7 -12 -16 -15 -14 -5 -15 -4 -4 9
14 17 20 19 20 6z m45 -21 c3 -5 -1 -10 -9 -10 -9 0 -16 5 -16 10 0 6 4 10 9
10 6 0 13 -4 16 -10z m-65 -54 c0 -6 -7 -1 -15 10 -8 10 -15 23 -15 28 0 6 7
1 15 -10 8 -10 15 -23 15 -28z m-50 -4 c0 -4 -9 -13 -21 -20 -19 -12 -19 -11
-9 8 10 19 30 28 30 12z m24 -17 c3 -9 0 -15 -9 -15 -9 0 -12 6 -9 15 4 8 7
15 9 15 2 0 5 -7 9 -15z m420 -30 c-4 -8 -11 -15 -16 -15 -6 0 -5 6 2 15 7 8
14 15 16 15 2 0 1 -7 -2 -15z m-274 1 c0 -3 -4 -8 -10 -11 -5 -3 -10 -1 -10 4
0 6 5 11 10 11 6 0 10 -2 10 -4z m10 -71 c11 -13 10 -18 -6 -29 -22 -17 -32
-12 -16 7 18 22 1 29 -22 10 -21 -18 -21 -18 -2 5 23 26 29 27 46 7z m-45 -65
c3 -5 1 -10 -4 -10 -6 0 -11 5 -11 10 0 6 2 10 4 10 3 0 8 -4 11 -10z m30 -30
c3 -5 1 -10 -4 -10 -6 0 -11 5 -11 10 0 6 2 10 4 10 3 0 8 -4 11 -10z m445 -4
c0 -3 -4 -8 -10 -11 -5 -3 -10 -1 -10 4 0 6 5 11 10 11 6 0 10 -2 10 -4z
m-360 -36 c0 -5 -4 -10 -10 -10 -5 0 -10 5 -10 10 0 6 5 10 10 10 6 0 10 -4
10 -10z m408 -6 c18 -20 -1 -24 -20 -4 -12 11 -14 17 -5 17 7 0 18 -6 25 -13z
m-378 -8 c0 -3 -4 -8 -10 -11 -5 -3 -10 -1 -10 4 0 6 5 11 10 11 6 0 10 -2 10
-4z m37 -13 c-4 -3 0 -14 8 -23 14 -15 13 -17 -2 -17 -24 0 -35 18 -21 34 6 7
13 13 16 13 3 0 2 -3 -1 -7z m38 -73 c3 -5 1 -10 -4 -10 -6 0 -11 5 -11 10 0
6 2 10 4 10 3 0 8 -4 11 -10z m-29 -20 c8 0 14 -4 14 -10 0 -5 -7 -10 -15 -10
-8 0 -15 2 -15 4 0 2 -2 10 -3 18 -2 7 -2 10 0 6 3 -5 11 -8 19 -8z m64 -60
c0 -5 -5 -10 -11 -10 -5 0 -7 5 -4 10 3 6 8 10 11 10 2 0 4 -4 4 -10z m50 -4
c0 -3 -4 -8 -10 -11 -5 -3 -10 -1 -10 4 0 6 5 11 10 11 6 0 10 -2 10 -4z m30
-32 c0 -8 -4 -12 -10 -9 -5 3 -10 10 -10 16 0 5 5 9 10 9 6 0 10 -7 10 -16z
m-101 -13 c18 -18 18 -31 -1 -31 -5 0 -7 4 -4 9 3 5 -1 11 -9 15 -8 3 -15 10
-15 16 0 15 8 12 29 -9z m51 -51 c0 -5 -4 -10 -9 -10 -5 0 -18 -3 -28 -6 -16
-6 -16 -5 2 9 23 19 35 21 35 7z m43 3 c-7 -2 -13 -11 -13 -18 0 -7 6 -16 13
-19 6 -3 0 -3 -15 0 -19 4 -29 1 -37 -13 -6 -10 -11 -12 -11 -5 0 17 45 62 62
61 10 0 10 -2 1 -6z m-53 -103 c0 -5 -2 -10 -4 -10 -3 0 -8 5 -11 10 -3 6 -1
10 4 10 6 0 11 -4 11 -10z m-230 -25 c0 -12 -19 -12 -23 0 -4 9 -1 12 9 8 7
-3 14 -7 14 -8z m320 -5 c0 -5 -5 -10 -11 -10 -5 0 -7 5 -4 10 3 6 8 10 11 10
2 0 4 -4 4 -10z m-107 -63 c4 -10 11 -15 17 -12 14 9 12 -9 -2 -23 -10 -10
-10 -15 1 -21 9 -6 10 -11 2 -15 -6 -4 -17 -1 -25 6 -10 10 -11 17 -2 32 8 14
8 20 -1 23 -7 3 -13 11 -13 19 0 8 -7 14 -15 14 -16 0 -20 12 -8 23 8 8 36
-20 46 -46z m45 -2 c-3 -3 -9 2 -12 12 -6 14 -5 15 5 6 7 -7 10 -15 7 -18z
m-139 -19 c-3 -3 -11 5 -18 17 -13 21 -12 21 5 5 10 -10 16 -20 13 -22z m-599
4 c0 -5 -7 -10 -15 -10 -8 0 -15 5 -15 10 0 6 7 10 15 10 8 0 15 -4 15 -10z
m775 1 c3 -5 2 -12 -3 -15 -5 -3 -9 1 -9 9 0 17 3 19 12 6z m-132 -16 c-3 -9
-8 -14 -10 -11 -3 3 -2 9 2 15 9 16 15 13 8 -4z m-603 -75 c0 -5 -6 -10 -14
-10 -8 0 -18 5 -21 10 -3 6 3 10 14 10 12 0 21 -4 21 -10z m540 0 c0 -5 -2
-10 -4 -10 -3 0 -8 5 -11 10 -3 6 -1 10 4 10 6 0 11 -4 11 -10z m-570 -24 c0
-2 -7 -9 -15 -16 -12 -10 -15 -10 -15 4 0 9 7 16 15 16 8 0 15 -2 15 -4z m400
-26 c0 -5 -5 -10 -11 -10 -5 0 -7 5 -4 10 3 6 8 10 11 10 2 0 4 -4 4 -10z
m-354 -25 c12 -11 20 -12 34 -5 16 9 18 8 13 -7 -5 -12 -2 -15 10 -10 22 8 21
5 -3 -23 l-19 -22 -26 28 c-18 19 -28 25 -32 17 -2 -7 -12 -13 -21 -13 -15 1
-15 2 1 11 9 5 17 17 17 24 0 19 8 19 26 0z m643 -43 c7 -7 12 -15 10 -17 -5
-5 -31 16 -49 40 -14 19 -14 19 5 5 11 -8 26 -21 34 -28z m-294 -42 c3 -5 -1
-10 -10 -10 -9 0 -13 5 -10 10 3 6 8 10 10 10 2 0 7 -4 10 -10z m395 -116 c0
-8 -5 -12 -10 -9 -6 4 -8 11 -5 16 9 14 15 11 15 -7z m10 -43 c-10 -20 -30
-29 -30 -14 0 8 34 41 38 38 2 -2 -1 -13 -8 -24z m-730 -65 c0 -3 -4 -8 -10
-11 -5 -3 -10 -1 -10 4 0 6 5 11 10 11 6 0 10 -2 10 -4z m88 -271 c3 -3 -4 -5
-15 -5 -12 0 -24 -6 -26 -12 -3 -7 -6 -3 -6 9 -1 17 4 21 20 18 12 -3 24 -7
27 -10z m566 -71 c35 -13 1 -24 -77 -24 -52 -1 -91 -6 -107 -15 -33 -19 -50
-18 -79 4 -43 33 -19 41 119 41 70 0 135 -3 144 -6z m-330 -30 c9 -3 16 -10
16 -15 0 -15 -37 -10 -50 6 -10 12 -10 15 3 15 8 0 22 -3 31 -6z"/>
<path d="M5330 2934 c0 -8 5 -12 10 -9 6 3 10 10 10 16 0 5 -4 9 -10 9 -5 0
-10 -7 -10 -16z"/>
<path d="M5286 2742 c-3 -6 -1 -14 5 -17 15 -10 25 3 12 16 -7 7 -13 7 -17 1z"/>
<path d="M4887 2536 c-4 -10 -1 -13 9 -9 15 6 19 23 5 23 -5 0 -11 -7 -14 -14z"/>
<path d="M4460 2407 c0 -2 8 -14 19 -25 19 -23 41 -29 41 -12 0 6 -7 10 -15
10 -8 0 -15 7 -15 15 0 8 -7 15 -15 15 -8 0 -15 -2 -15 -3z"/>
<path d="M4440 2370 c0 -5 5 -10 10 -10 6 0 10 5 10 10 0 6 -4 10 -10 10 -5 0
-10 -4 -10 -10z"/>
<path d="M4575 2351 c-6 -11 9 -23 19 -14 9 9 7 23 -3 23 -6 0 -12 -4 -16 -9z"/>
<path d="M5460 840 c0 -5 5 -10 10 -10 6 0 10 5 10 10 0 6 -4 10 -10 10 -5 0
-10 -4 -10 -10z"/>
<path d="M2350 5068 c0 -8 11 -20 25 -26 21 -10 27 -9 32 3 7 19 5 22 -30 30
-20 5 -27 3 -27 -7z"/>
<path d="M2040 5042 c-20 -23 -22 -69 -2 -77 22 -8 32 6 36 53 4 45 -8 53 -34
24z"/>
<path d="M3604 5035 c-4 -8 -12 -15 -20 -15 -8 0 -14 -4 -14 -10 0 -17 27 -11
35 8 6 16 7 16 21 -2 7 -11 17 -16 21 -11 5 4 2 10 -4 12 -7 3 -13 11 -13 19
0 19 -19 18 -26 -1z"/>
<path d="M3606 4985 c-3 -9 0 -15 9 -15 16 0 20 16 6 24 -5 3 -11 -1 -15 -9z"/>
<path d="M2045 4930 c3 -5 11 -10 16 -10 6 0 7 5 4 10 -3 6 -11 10 -16 10 -6
0 -7 -4 -4 -10z"/>
<path d="M1970 4915 c-7 -8 -8 -20 -4 -27 5 -7 8 -20 6 -28 -2 -21 24 -53 37
-45 8 4 8 12 1 25 -6 11 -10 23 -9 27 1 4 1 20 0 36 -1 30 -12 35 -31 12z"/>
<path d="M457 4853 c-4 -3 -7 -11 -7 -17 0 -6 5 -5 12 2 6 6 9 14 7 17 -3 3
-9 2 -12 -2z"/>
<path d="M1999 4783 c-5 -29 4 -226 12 -261 5 -24 7 -48 3 -53 -3 -6 6 -22 20
-36 14 -14 26 -31 26 -38 0 -12 21 -25 41 -25 12 0 -2 33 -20 46 -25 19 -37
93 -31 199 4 84 2 106 -14 138 -16 34 -34 48 -37 30z"/>
<path d="M50 4650 c0 -5 5 -10 11 -10 5 0 7 5 4 10 -3 6 -8 10 -11 10 -2 0 -4
-4 -4 -10z"/>
<path d="M79 4633 c-13 -17 -13 -17 6 -3 11 8 22 16 24 17 2 2 0 3 -6 3 -6 0
-17 -8 -24 -17z"/>
<path d="M27 4598 c-5 -33 2 -54 10 -30 3 6 11 12 19 12 18 0 18 17 0 36 -20
20 -23 18 -29 -18z"/>
<path d="M2093 4337 c2 -7 10 -37 17 -67 14 -61 30 -100 41 -100 12 0 21 34
10 38 -6 2 -11 14 -11 27 0 13 -4 26 -8 29 -5 3 -9 19 -10 37 -1 35 -5 42 -28
45 -9 1 -14 -3 -11 -9z"/>
<path d="M2130 4155 c0 -2 7 -20 16 -39 11 -21 22 -32 30 -29 16 6 19 33 3 33
-6 0 -8 9 -4 20 5 16 2 20 -19 20 -14 0 -26 -2 -26 -5z"/>
<path d="M2175 4050 c-3 -5 1 -10 10 -10 9 0 13 5 10 10 -3 6 -8 10 -10 10 -2
0 -7 -4 -10 -10z"/>
<path d="M2207 3994 c9 -15 19 -21 21 -15 6 19 -6 41 -23 41 -14 0 -13 -3 2
-26z"/>
<path d="M2230 3951 c0 -6 5 -13 10 -16 6 -3 10 1 10 9 0 9 -4 16 -10 16 -5 0
-10 -4 -10 -9z"/>
<path d="M2252 3903 c2 -9 9 -18 16 -21 18 -6 15 25 -4 32 -11 4 -14 1 -12
-11z"/>
<path d="M3895 3880 c-7 -12 11 -30 30 -30 14 0 40 18 35 24 -13 12 -58 17
-65 6z"/>
<path d="M2248 3843 c7 -3 16 -2 19 1 4 3 -2 6 -13 5 -11 0 -14 -3 -6 -6z"/>
<path d="M1780 3814 c0 -8 106 -114 113 -114 3 0 19 -12 34 -26 32 -31 89 -57
103 -49 21 13 8 36 -27 52 -21 10 -53 30 -71 45 -18 16 -37 28 -42 28 -6 0
-10 7 -10 15 0 8 -20 24 -44 35 -48 21 -56 23 -56 14z"/>
<path d="M3375 3600 c3 -5 8 -10 11 -10 2 0 4 5 4 10 0 6 -5 10 -11 10 -5 0
-7 -4 -4 -10z"/>
<path d="M3322 3560 c-12 -11 -24 -20 -27 -20 -7 0 -15 -6 -65 -49 l-35 -30
36 8 c45 10 95 47 114 83 16 33 7 36 -23 8z"/>
<path d="M3033 3253 c-4 -9 -1 -19 5 -21 7 -2 12 -13 12 -24 0 -14 6 -19 23
-16 16 2 22 10 22 31 1 16 -4 27 -12 27 -7 0 -13 5 -13 10 0 17 -30 11 -37 -7z"/>
<path d="M3025 3160 c-7 -12 2 -12 30 0 19 8 19 9 -2 9 -12 1 -25 -3 -28 -9z"/>
<path d="M3020 3130 c0 -5 5 -10 11 -10 5 0 7 5 4 10 -3 6 -8 10 -11 10 -2 0
-4 -4 -4 -10z"/>
<path d="M1258 3093 c7 -3 16 -2 19 1 4 3 -2 6 -13 5 -11 0 -14 -3 -6 -6z"/>
<path d="M3040 3091 c0 -5 6 -11 13 -13 17 -7 38 2 31 13 -7 12 -44 12 -44 0z"/>
<path d="M2984 3029 c-3 -6 -2 -14 3 -18 14 -10 10 -29 -11 -44 -19 -14 -19
-15 2 -26 18 -9 23 -9 26 1 1 7 8 28 14 47 6 19 9 38 6 42 -7 13 -32 11 -40
-2z"/>
<path d="M2915 2840 c-3 -5 -1 -10 4 -10 6 0 11 5 11 10 0 6 -2 10 -4 10 -3 0
-8 -4 -11 -10z"/>
<path d="M2850 2830 c0 -5 7 -10 15 -10 8 0 15 5 15 10 0 6 -7 10 -15 10 -8 0
-15 -4 -15 -10z"/>
<path d="M3237 2799 c7 -7 15 -10 18 -7 3 3 -2 9 -12 12 -14 6 -15 5 -6 -5z"/>
<path d="M2831 2790 c-20 -4 -21 -7 -9 -17 8 -7 19 -8 27 -4 21 13 9 28 -18
21z"/>
<path d="M2783 2725 c-14 -16 -17 -35 -5 -35 4 0 15 12 25 25 20 28 2 36 -20
10z"/>
<path d="M5140 2694 c0 -21 3 -24 13 -16 7 6 24 8 37 5 l23 -6 -21 21 c-30 30
-52 28 -52 -4z"/>
<path d="M5050 2699 c0 -5 5 -7 10 -4 6 3 10 8 10 11 0 2 -4 4 -10 4 -5 0 -10
-5 -10 -11z"/>
<path d="M5060 2669 c-14 -24 -6 -36 13 -21 10 9 19 5 40 -13 15 -14 29 -21
32 -15 3 6 1 10 -4 10 -6 0 -11 8 -11 18 0 42 -51 57 -70 21z"/>
<path d="M2827 2669 c7 -7 15 -10 18 -7 3 3 -2 9 -12 12 -14 6 -15 5 -6 -5z"/>
<path d="M5305 2570 c3 -5 8 -10 11 -10 2 0 4 5 4 10 0 6 -5 10 -11 10 -5 0
-7 -4 -4 -10z"/>
<path d="M5020 2510 c0 -5 5 -10 10 -10 6 0 10 5 10 10 0 6 -4 10 -10 10 -5 0
-10 -4 -10 -10z"/>
<path d="M5295 2510 c-3 -5 1 -10 9 -10 9 0 16 5 16 10 0 6 -4 10 -9 10 -6 0
-13 -4 -16 -10z"/>
<path d="M5685 2510 c-4 -6 -16 -8 -28 -5 -19 5 -20 5 -5 -5 16 -10 58 1 58
15 0 9 -19 5 -25 -5z"/>
<path d="M5357 2498 c-2 -7 0 -28 4 -47 8 -38 -4 -81 -23 -81 -10 0 -10 -2 1
-9 7 -5 11 -14 7 -20 -4 -6 -1 -9 7 -5 8 3 22 -2 31 -11 13 -14 20 -15 31 -5
8 7 12 17 9 22 -4 6 -9 6 -14 -1 -5 -9 -10 -8 -20 4 -7 8 -8 15 -2 15 5 0 13
7 16 16 5 12 1 14 -17 9 -15 -4 -18 -3 -8 3 7 5 9 12 5 14 -5 3 -2 3 6 0 8 -3
29 -7 45 -10 17 -2 38 -11 47 -19 10 -9 25 -12 39 -8 16 5 18 9 8 15 -7 5 -17
6 -21 4 -16 -10 -30 7 -17 22 9 11 13 11 26 -1 17 -17 29 -19 38 -5 3 6 1 10
-5 10 -17 0 -40 26 -32 35 4 5 -1 5 -10 2 -10 -3 -20 -2 -23 4 -4 5 -11 7 -16
3 -6 -3 -4 -11 5 -17 25 -19 4 -42 -24 -27 -12 6 -27 9 -34 7 -6 -3 -21 2 -31
10 -17 12 -18 15 -5 23 8 6 26 8 40 4 24 -5 23 -4 -8 25 -36 34 -48 38 -55 19z"/>
<path d="M5050 2480 c0 -5 5 -10 10 -10 6 0 10 5 10 10 0 6 -4 10 -10 10 -5 0
-10 -4 -10 -10z"/>
<path d="M5230 2479 c0 -5 5 -9 11 -9 5 0 8 -4 4 -9 -3 -5 -1 -12 4 -16 6 -3
15 3 20 14 14 26 15 26 -14 27 -14 1 -25 -2 -25 -7z"/>
<path d="M2930 2467 c-21 -17 -32 -98 -16 -114 12 -13 38 25 46 66 8 46 -5 67
-30 48z"/>
<path d="M4970 2465 c0 -8 7 -15 15 -15 9 0 12 6 9 15 -4 8 -10 15 -15 15 -5
0 -9 -7 -9 -15z"/>
<path d="M5015 2460 c3 -5 10 -10 16 -10 5 0 9 5 9 10 0 6 -7 10 -16 10 -8 0
-12 -4 -9 -10z"/>
<path d="M5126 2454 c-9 -23 -2 -28 13 -10 7 8 8 17 3 20 -6 3 -13 -1 -16 -10z"/>
<path d="M5190 2460 c0 -5 5 -10 10 -10 6 0 10 5 10 10 0 6 -4 10 -10 10 -5 0
-10 -4 -10 -10z"/>
<path d="M774 2429 c-7 -12 13 -29 35 -29 8 0 11 6 7 16 -3 9 -6 18 -6 20 0 9
-29 3 -36 -7z"/>
<path d="M4936 2431 c-4 -5 1 -14 11 -19 14 -9 15 -13 4 -26 -17 -20 -5 -21
15 -1 13 13 13 17 -4 36 -12 12 -22 16 -26 10z"/>
<path d="M5040 2430 c0 -5 7 -10 15 -10 8 0 15 5 15 10 0 6 -7 10 -15 10 -8 0
-15 -4 -15 -10z"/>
<path d="M5210 2430 c0 -5 5 -10 10 -10 6 0 10 5 10 10 0 6 -4 10 -10 10 -5 0
-10 -4 -10 -10z"/>
<path d="M5672 2421 c2 -8 14 -21 26 -29 20 -13 22 -13 16 2 -4 9 -9 14 -12
12 -3 -3 -11 2 -19 12 -10 11 -13 12 -11 3z"/>
<path d="M5139 2410 c-8 -21 28 -57 42 -43 8 8 5 13 -9 17 -12 4 -22 15 -24
24 -3 14 -5 14 -9 2z"/>
<path d="M5640 2406 c0 -8 -6 -17 -12 -19 -8 -4 -7 -6 4 -6 9 -1 18 -7 21 -13
3 -10 8 -10 17 -2 9 9 9 16 -2 33 -15 24 -28 27 -28 7z"/>
<path d="M5285 2400 c-8 -13 15 -24 27 -12 6 6 4 11 -6 15 -8 3 -18 2 -21 -3z"/>
<path d="M5204 2373 c3 -4 1 -12 -6 -20 -17 -21 -5 -24 21 -4 l24 18 -23 6
c-12 3 -19 3 -16 0z"/>
<path d="M5085 2349 c-4 -6 -5 -12 -2 -15 2 -3 7 2 10 11 7 17 1 20 -8 4z"/>
<path d="M5520 2352 c0 -12 19 -26 26 -19 2 2 -2 10 -11 17 -9 8 -15 8 -15 2z"/>
<path d="M3078 2319 c-24 -24 -31 -39 -27 -65 0 -4 -5 -11 -13 -16 -8 -6 -5
-7 12 -2 14 4 26 10 28 14 1 4 25 5 52 2 54 -5 65 7 29 32 -15 10 -20 22 -17
38 6 34 -29 32 -64 -3z"/>
<path d="M5300 2340 c-8 -5 -10 -10 -5 -10 6 0 17 5 25 10 8 5 11 10 5 10 -5
0 -17 -5 -25 -10z"/>
<path d="M5695 2340 c3 -5 14 -10 23 -10 15 0 15 2 2 10 -20 13 -33 13 -25 0z"/>
<path d="M4996 2317 c3 -10 9 -15 12 -12 3 3 0 11 -7 18 -10 9 -11 8 -5 -6z"/>
<path d="M5490 2311 c0 -10 7 -21 15 -25 16 -6 19 3 9 28 -8 22 -24 20 -24 -3z"/>
<path d="M5035 2299 c-4 -6 -5 -12 -2 -15 2 -3 7 2 10 11 7 17 1 20 -8 4z"/>
<path d="M5158 2303 c7 -3 16 -2 19 1 4 3 -2 6 -13 5 -11 0 -14 -3 -6 -6z"/>
<path d="M5190 2285 c0 -10 7 -15 18 -13 21 4 19 22 -2 26 -10 2 -16 -3 -16
-13z"/>
<path d="M5400 2285 c-17 -21 -8 -28 15 -11 11 8 14 15 8 19 -6 4 -16 0 -23
-8z"/>
<path d="M5563 2283 c-7 -2 -13 -9 -13 -14 0 -14 26 -10 40 6 10 12 10 15 -1
14 -8 0 -20 -3 -26 -6z"/>
<path d="M5110 2260 c0 -6 7 -10 15 -10 8 0 15 2 15 4 0 2 -7 6 -15 10 -8 3
-15 1 -15 -4z"/>
<path d="M5597 2255 c6 -17 25 -15 31 3 2 7 -5 12 -17 12 -14 0 -19 -5 -14
-15z"/>
<path d="M2915 2231 c-3 -6 -4 -15 0 -21 3 -5 -4 -19 -15 -30 -26 -26 -21 -34
25 -32 l35 1 0 -68 c0 -50 -4 -72 -16 -82 -14 -12 -14 -14 6 -21 12 -4 18 -12
15 -18 -3 -5 -3 -16 2 -22 4 -7 13 -51 20 -98 23 -166 35 -225 46 -239 7 -8
13 -26 15 -40 2 -14 4 -39 6 -56 2 -16 4 -35 5 -42 2 -25 37 -18 69 14 18 18
36 33 40 33 11 0 7 -62 -6 -86 -10 -18 -7 -23 26 -39 33 -17 112 -30 112 -19
0 8 -40 44 -49 44 -13 0 -23 48 -16 71 4 11 2 25 -3 32 -7 8 -6 30 3 68 7 34
9 62 4 70 -7 11 -9 11 -9 -3 0 -9 -9 -20 -20 -23 -11 -3 -20 -11 -20 -16 0 -5
-9 -9 -19 -9 -28 0 -35 48 -17 110 9 29 13 57 9 63 -3 5 0 15 8 21 8 6 20 24
27 39 14 33 1 70 -23 61 -8 -4 -18 1 -21 10 -8 22 -36 21 -32 -1 2 -10 10 -17
16 -16 20 5 14 -25 -7 -37 -27 -14 -34 -13 -27 6 4 10 -3 18 -24 26 -17 5 -27
14 -24 19 3 5 9 7 13 5 14 -9 9 29 -7 47 -11 13 -12 17 -2 17 10 0 9 5 -3 18
-20 22 -22 83 -5 100 9 9 7 19 -11 43 -13 18 -19 29 -12 25 6 -4 11 -1 11 7 0
22 -11 27 -27 11 -9 -9 -29 -14 -47 -12 -27 3 -31 7 -33 36 -2 38 -8 49 -18
33z m315 -731 c0 -5 -4 -10 -10 -10 -5 0 -10 5 -10 10 0 6 5 10 10 10 6 0 10
-4 10 -10z"/>
<path d="M5476 2232 c-5 -9 4 -20 31 -36 9 -5 11 -2 7 8 -4 11 0 16 11 16 9 0
13 5 10 10 -5 8 -12 7 -22 -1 -11 -10 -16 -10 -23 0 -4 8 -10 9 -14 3z"/>
<path d="M5390 2220 c-8 -5 -12 -11 -10 -14 3 -2 14 2 24 10 22 15 10 19 -14
4z"/>
<path d="M5590 2220 c8 -5 20 -10 25 -10 6 0 3 5 -5 10 -8 5 -19 10 -25 10 -5
0 -3 -5 5 -10z"/>
<path d="M5166 2211 c-4 -7 -5 -15 -2 -18 9 -9 19 4 14 18 -4 11 -6 11 -12 0z"/>
<path d="M5540 2210 c-8 -5 -11 -12 -8 -16 4 -3 14 1 23 10 18 17 9 21 -15 6z"/>
<path d="M5265 2199 c-4 -6 -5 -12 -2 -15 2 -3 7 2 10 11 7 17 1 20 -8 4z"/>
<path d="M5720 2200 c0 -5 5 -10 11 -10 5 0 7 5 4 10 -3 6 -8 10 -11 10 -2 0
-4 -4 -4 -10z"/>
<path d="M5400 2195 c0 -2 10 -10 23 -16 20 -11 21 -11 8 4 -13 16 -31 23 -31
12z"/>
<path d="M5183 2183 c-7 -2 -13 -11 -13 -19 0 -8 -5 -14 -12 -14 -6 0 -9 -2
-6 -5 8 -8 58 19 58 33 0 13 -6 14 -27 5z"/>
<path d="M5465 2181 c-3 -5 -1 -12 5 -16 5 -3 10 1 10 9 0 18 -6 21 -15 7z"/>
<path d="M4830 2139 c0 -5 5 -7 10 -4 6 3 10 8 10 11 0 2 -4 4 -10 4 -5 0 -10
-5 -10 -11z"/>
<path d="M2794 2128 c-3 -4 1 -8 8 -9 7 0 23 -2 36 -5 12 -2 22 0 22 5 0 12
-59 20 -66 9z"/>
<path d="M5007 2125 c6 -17 25 -15 31 3 2 7 -5 12 -17 12 -14 0 -19 -5 -14
-15z"/>
<path d="M3106 2114 c-24 -23 -20 -27 18 -21 21 3 36 1 38 -5 3 -8 11 -7 26 1
26 14 19 35 -8 26 -10 -3 -21 -1 -25 5 -9 15 -31 12 -49 -6z"/>
<path d="M4417 2122 c-6 -9 -6 -64 0 -58 7 6 63 -55 79 -87 8 -15 12 -32 9
-37 -3 -6 4 -10 17 -10 19 0 20 -2 8 -10 -13 -9 -12 -13 9 -30 13 -11 31 -20
41 -20 10 0 20 -6 23 -14 3 -7 17 -16 31 -18 22 -4 24 -3 15 13 -5 10 -18 23
-29 29 -23 12 -28 45 -5 37 8 -4 17 -1 21 5 4 7 9 6 15 -3 6 -11 11 -11 21 -1
9 9 7 16 -12 34 -16 15 -25 18 -28 10 -2 -7 -7 -12 -12 -12 -4 0 -3 11 3 24 7
13 15 22 18 20 4 -2 12 3 19 11 27 32 -25 15 -63 -21 -35 -34 -64 -42 -39 -11
9 10 8 17 0 25 -9 9 -7 15 8 27 12 9 14 14 6 15 -7 0 -11 4 -8 8 2 4 -4 9 -15
9 -11 1 -17 -2 -14 -8 4 -5 3 -9 0 -9 -9 0 -30 23 -31 35 -5 43 -27 69 -37 43
-3 -10 -9 -10 -25 -1 -12 7 -23 9 -25 5z"/>
<path d="M4790 2121 c0 -5 7 -12 16 -15 8 -3 12 -11 8 -17 -4 -8 -9 -7 -15 2
-6 10 -9 6 -9 -13 0 -16 -4 -28 -9 -28 -5 0 -16 -11 -24 -24 -15 -22 -15 -24
3 -29 14 -3 18 -1 13 6 -4 7 1 6 11 -2 15 -12 19 -13 26 -1 6 9 3 18 -7 25
-17 12 -9 40 8 30 5 -4 9 -1 9 4 0 6 7 11 16 11 8 0 13 -4 10 -9 -3 -5 1 -11
9 -15 8 -3 15 0 15 6 0 6 3 8 7 5 3 -4 12 -2 19 4 10 8 16 5 26 -10 14 -23 34
-27 41 -8 3 9 9 9 25 0 19 -11 32 -8 32 8 0 4 -8 6 -17 5 -9 0 -23 10 -30 24
-13 26 -40 35 -35 13 3 -16 -14 -17 -23 -3 -4 6 -1 19 6 28 11 14 11 15 -1 5
-8 -7 -22 -13 -31 -13 -10 0 -20 6 -22 13 -4 9 -8 8 -16 -3 -8 -12 -13 -12
-23 -2 -14 14 -38 16 -38 3z"/>
<path d="M4970 2120 c0 -5 5 -10 10 -10 6 0 10 5 10 10 0 6 -4 10 -10 10 -5 0
-10 -4 -10 -10z"/>
<path d="M5140 2120 c0 -5 5 -10 11 -10 5 0 7 5 4 10 -3 6 -8 10 -11 10 -2 0
-4 -4 -4 -10z"/>
<path d="M4550 2100 c-12 -8 -11 -10 8 -10 12 0 22 5 22 10 0 13 -11 13 -30 0z"/>
<path d="M5120 2099 c0 -5 -4 -7 -10 -4 -5 3 -10 1 -10 -4 0 -6 7 -11 15 -11
8 0 15 7 15 15 0 8 -2 15 -5 15 -3 0 -5 -5 -5 -11z"/>
<path d="M4718 2093 c7 -3 16 -2 19 1 4 3 -2 6 -13 5 -11 0 -14 -3 -6 -6z"/>
<path d="M5075 2080 c-3 -5 -1 -10 4 -10 6 0 11 5 11 10 0 6 -2 10 -4 10 -3 0
-8 -4 -11 -10z"/>
<path d="M5147 2061 c3 -12 9 -21 14 -21 14 0 11 16 -5 29 -12 10 -13 8 -9 -8z"/>
<path d="M4605 2050 c3 -5 8 -10 11 -10 2 0 4 5 4 10 0 6 -5 10 -11 10 -5 0
-7 -4 -4 -10z"/>
<path d="M4890 2040 c0 -6 -10 -14 -22 -19 -13 -5 -17 -10 -11 -14 6 -4 18 0
26 8 20 19 27 19 27 0 0 -16 15 -20 24 -7 3 5 -4 16 -15 25 -22 20 -29 21 -29
7z"/>
<path d="M2825 2020 c-3 -5 -3 -10 2 -10 4 0 3 -4 -3 -8 -6 -4 -23 -29 -39
-55 -15 -27 -39 -54 -51 -59 -13 -6 -24 -15 -24 -19 0 -4 -38 -46 -84 -94 -58
-60 -94 -89 -119 -96 -26 -7 -34 -14 -30 -24 3 -10 -1 -15 -12 -15 -11 0 -15
-5 -11 -15 3 -10 -1 -16 -12 -17 -9 0 -22 -2 -29 -2 -6 -1 -15 -5 -20 -10 -5
-5 -2 -6 6 -1 10 6 11 2 6 -16 -4 -13 -13 -27 -19 -31 -8 -5 -8 -13 1 -27 12
-19 11 -20 -12 -11 -16 6 -25 6 -25 0 0 -6 -7 -10 -15 -10 -9 0 -18 -6 -21
-14 -3 -9 -13 -12 -27 -8 -21 5 -22 5 -3 -13 17 -17 17 -20 2 -31 -14 -10 -14
-13 -2 -24 21 -17 56 -3 56 22 0 14 5 18 15 14 9 -3 15 0 15 9 0 8 9 15 19 15
11 0 22 6 25 13 5 10 7 10 12 0 8 -18 31 -16 38 2 4 12 10 13 25 6 10 -6 21
-7 25 -4 3 3 -4 11 -16 17 -12 6 -23 17 -26 24 -3 11 0 12 17 2 17 -9 26 -8
39 2 14 11 15 11 9 -5 -6 -15 -3 -17 13 -12 11 4 20 2 20 -4 0 -6 7 -11 15
-11 8 0 14 -4 13 -9 -2 -5 8 -18 21 -30 23 -20 25 -21 34 -4 6 10 20 26 33 37
22 18 22 18 3 37 -23 23 -29 24 -29 4 0 -8 -4 -15 -9 -15 -18 0 -20 17 -3 32
9 8 28 29 42 47 14 17 30 31 37 31 16 0 17 -12 1 -28 -10 -10 -8 -16 5 -29 13
-13 20 -14 29 -5 15 15 42 16 33 1 -4 -6 3 -21 15 -34 12 -13 20 -31 18 -41
-2 -10 11 -33 30 -52 18 -19 32 -40 31 -46 -3 -27 2 -36 22 -36 11 0 17 4 14
10 -4 6 -1 18 6 26 11 13 10 18 -4 25 -16 9 -16 12 -1 34 10 16 12 25 5 25 -6
0 -11 6 -11 13 0 6 -7 25 -16 42 -11 22 -14 44 -9 87 4 34 3 64 -4 77 -6 11
-13 40 -15 63 -3 24 -8 64 -12 90 -4 33 -3 53 6 63 10 12 10 21 0 45 -7 16
-10 36 -7 44 3 8 -1 17 -9 20 -21 8 -22 8 -29 -4z m-265 -459 c0 -8 -1 -12 -3
-10 -1 2 -11 15 -22 28 l-20 24 23 -14 c12 -8 22 -20 22 -28z m-185 -71 c3 -5
1 -10 -4 -10 -6 0 -11 5 -11 10 0 6 2 10 4 10 3 0 8 -4 11 -10z"/>
<path d="M4590 2020 c-8 -5 -12 -11 -9 -14 3 -3 14 1 25 9 21 16 8 20 -16 5z"/>
<path d="M4673 2005 c-7 -8 -13 -19 -13 -25 0 -19 17 -10 28 15 13 27 4 33
-15 10z"/>
<path d="M5063 2006 c-6 -8 -8 -19 -3 -26 5 -8 4 -22 -1 -32 -17 -31 -58 -70
-68 -64 -5 4 -13 2 -16 -4 -4 -6 -15 -8 -26 -5 -21 7 -25 -5 -8 -22 8 -8 4
-11 -13 -10 -18 2 -24 7 -20 20 2 9 -1 17 -7 17 -6 0 -11 -7 -11 -15 0 -9 -6
-15 -12 -14 -28 3 -49 -2 -43 -10 9 -15 -13 -23 -46 -16 -29 7 -30 8 -13 26
21 23 12 25 -21 3 -20 -13 -28 -14 -40 -4 -8 6 -18 9 -24 6 -5 -4 -11 2 -13
11 -2 12 -6 14 -11 6 -4 -7 5 -25 23 -44 16 -19 30 -37 30 -41 0 -4 18 -13 41
-19 23 -7 43 -19 46 -26 3 -7 12 -13 19 -13 8 0 18 -8 21 -17 8 -22 58 -70 92
-88 14 -8 20 -14 13 -15 -10 0 -10 -5 0 -24 14 -27 121 -141 144 -154 11 -6
26 -59 27 -99 0 -7 7 -13 14 -13 10 0 12 -6 8 -22 -6 -17 -4 -20 9 -15 14 5
16 3 11 -12 -3 -11 -1 -22 5 -26 5 -3 10 -15 10 -26 0 -10 3 -18 8 -18 20 3
34 -4 62 -33 l31 -33 -18 35 c-10 19 -24 39 -30 43 -7 4 -13 17 -13 28 0 12
-4 17 -11 13 -8 -4 -9 3 -5 23 5 23 3 32 -9 37 -9 3 -13 10 -10 16 3 5 1 10
-6 10 -9 0 -9 3 0 14 9 11 4 22 -25 52 -20 22 -41 38 -46 36 -5 -1 -4 7 3 19
9 18 7 26 -9 49 -21 27 -21 28 -1 49 20 21 20 21 0 21 -11 0 -21 -5 -23 -11
-3 -8 -15 -9 -37 -4 -21 4 -31 11 -27 20 3 9 0 12 -8 9 -8 -3 -17 -1 -21 5 -3
6 -1 11 4 11 6 0 11 9 11 20 0 11 -5 18 -12 15 -7 -2 -21 6 -30 19 -15 21 -15
26 -3 36 19 16 40 3 25 -15 -7 -8 -7 -15 -1 -19 5 -3 11 -1 13 6 3 9 11 8 31
-5 32 -21 53 -22 61 -2 3 8 1 15 -4 15 -13 0 -13 27 0 35 14 9 50 -17 50 -36
0 -9 -7 -20 -16 -23 -8 -3 -12 -11 -9 -17 5 -7 14 -3 26 10 11 12 24 21 29 21
5 0 11 9 15 19 4 14 -4 30 -30 56 -19 20 -35 41 -35 47 0 6 14 -3 30 -21 33
-34 50 -39 50 -16 0 9 -10 19 -22 24 -15 5 -18 10 -9 15 6 4 17 3 24 -2 14
-11 77 -12 77 -1 0 4 -6 9 -12 12 -10 4 -10 7 0 18 7 8 12 9 12 2 0 -6 9 -13
21 -16 20 -5 20 -7 5 -29 -20 -28 -20 -38 -1 -38 8 0 15 -4 15 -10 0 -5 -5
-10 -11 -10 -7 0 -18 -8 -25 -17 -7 -10 -16 -14 -21 -10 -4 5 1 15 11 23 11 7
18 16 15 18 -10 11 -55 15 -68 7 -12 -8 -11 -12 4 -27 18 -18 17 -19 -6 -25
-13 -4 -19 -8 -14 -8 6 -1 2 -6 -7 -12 -29 -16 -20 -29 12 -18 17 6 30 15 30
19 0 5 8 8 18 8 9 0 25 3 35 7 10 4 17 3 17 -5 0 -6 5 -8 11 -4 7 4 8 9 1 13
-6 4 -3 18 8 38 9 18 20 30 24 26 3 -3 6 -3 6 1 0 4 -7 14 -15 22 -20 21 -19
34 4 34 11 0 27 3 37 7 14 5 16 3 10 -13 -5 -14 0 -12 18 8 27 28 26 52 -2 62
-9 4 -30 14 -46 22 -26 15 -31 15 -62 -2 -27 -15 -39 -16 -62 -8 -22 9 -33 8
-47 -2 -26 -19 -105 -19 -105 0 0 8 -6 16 -12 19 -9 3 -7 10 7 21 19 15 56 23
42 9 -7 -6 21 -32 36 -33 4 0 5 11 1 25 -7 30 18 44 41 25 13 -11 18 -10 30 6
17 24 26 54 15 54 -5 0 -15 3 -24 6 -19 7 -22 -21 -3 -30 6 -3 2 -3 -11 0 -14
3 -33 -3 -52 -16 -17 -12 -30 -17 -30 -11 0 6 -7 11 -15 11 -17 0 -20 16 -5
25 11 7 4 25 -8 25 -4 -1 -12 -7 -19 -14z m-1 -255 c-2 -22 -10 -42 -17 -45
-22 -8 -57 5 -51 20 6 17 -15 19 -31 3 -8 -8 -17 -7 -32 3 -27 17 -27 31 0 23
13 -5 25 -2 30 6 6 11 13 8 33 -10 14 -13 30 -20 36 -16 9 6 9 10 -1 16 -11 8
-10 12 5 24 29 22 32 19 28 -24z m40 4 c0 -5 -5 -11 -11 -13 -6 -2 -11 4 -11
13 0 9 5 15 11 13 6 -2 11 -8 11 -13z m138 -19 c0 -3 -4 -8 -10 -11 -5 -3 -10
-1 -10 4 0 6 5 11 10 11 6 0 10 -2 10 -4z"/>
<path d="M4802 1964 c-19 -19 -32 -37 -30 -40 3 -2 19 -6 37 -8 34 -4 52 11
30 25 -12 7 -11 9 2 9 8 0 20 5 27 12 9 9 7 14 -6 24 -23 18 -23 18 -60 -22z"/>
<path d="M5110 1980 c0 -5 5 -10 10 -10 6 0 10 5 10 10 0 6 -4 10 -10 10 -5 0
-10 -4 -10 -10z"/>
<path d="M5280 1986 c0 -2 8 -10 18 -17 15 -13 16 -12 3 4 -13 16 -21 21 -21
13z"/>
<path d="M5323 1961 c-11 -17 -8 -19 18 -23 16 -3 29 -1 29 4 0 4 -4 8 -10 8
-5 0 -10 7 -10 15 0 21 -13 19 -27 -4z"/>
<path d="M4690 1956 c0 -8 5 -18 10 -21 6 -3 10 3 10 14 0 12 -4 21 -10 21 -5
0 -10 -6 -10 -14z"/>
<path d="M4985 1920 c3 -5 8 -10 11 -10 2 0 4 5 4 10 0 6 -5 10 -11 10 -5 0
-7 -4 -4 -10z"/>
<path d="M5474 1809 c-19 -21 -19 -22 1 -16 11 4 27 2 35 -3 13 -9 12 -12 -5
-26 -17 -12 -18 -16 -5 -24 8 -5 12 -12 8 -15 -3 -3 -19 6 -34 20 -28 26 -29
26 -38 6 -10 -22 -40 -36 -56 -26 -20 13 -9 -14 12 -29 22 -16 22 -16 3 -31
-17 -12 -18 -16 -5 -24 8 -5 18 -7 22 -5 4 3 5 -2 2 -10 -4 -11 0 -16 10 -16
9 0 16 -4 16 -10 0 -5 5 -10 11 -10 8 0 8 4 0 14 -6 7 -9 21 -5 30 4 10 1 16
-7 16 -7 0 -9 3 -6 7 4 3 0 14 -9 24 -15 17 -15 20 4 44 11 14 22 22 24 18 1
-5 18 -19 37 -32 19 -13 30 -18 26 -11 -4 7 -2 16 6 21 12 8 12 10 0 18 -12 8
-13 12 -1 26 10 12 15 13 21 3 4 -7 11 -9 15 -6 11 12 -5 40 -26 45 -11 3 -20
9 -20 14 0 15 -16 10 -36 -12z"/>
<path d="M5396 1781 c-13 -14 -14 -21 -5 -27 7 -4 10 -3 5 4 -3 6 3 13 14 17
11 3 20 11 20 16 0 15 -16 10 -34 -10z"/>
<path d="M5585 1740 c-3 -5 -1 -10 4 -10 6 0 11 5 11 10 0 6 -2 10 -4 10 -3 0
-8 -4 -11 -10z"/>
<path d="M5437 1713 c-12 -11 -8 -18 24 -37 29 -17 30 -19 13 -37 -9 -11 -14
-22 -10 -26 4 -4 11 -1 16 6 4 8 17 12 29 8 12 -3 21 -1 21 4 0 5 -5 9 -12 9
-9 0 -9 3 0 12 16 16 15 29 -2 22 -7 -3 -16 2 -20 11 -4 11 -12 14 -26 10 -15
-5 -18 -3 -14 9 6 16 -7 22 -19 9z"/>
<path d="M5546 1712 c-3 -6 -1 -14 5 -17 15 -10 25 3 12 16 -7 7 -13 7 -17 1z"/>
<path d="M5350 1667 c0 -16 3 -17 15 -7 8 7 15 16 15 20 0 3 -7 7 -15 7 -8 0
-15 -9 -15 -20z"/>
<path d="M5320 1660 c0 -5 5 -10 11 -10 5 0 7 5 4 10 -3 6 -8 10 -11 10 -2 0
-4 -4 -4 -10z"/>
<path d="M5270 1641 c0 -6 5 -13 10 -16 6 -3 10 1 10 9 0 9 -4 16 -10 16 -5 0
-10 -4 -10 -9z"/>
<path d="M5755 1620 c3 -5 8 -10 11 -10 2 0 4 5 4 10 0 6 -5 10 -11 10 -5 0
-7 -4 -4 -10z"/>
<path d="M5540 1601 c0 -11 -6 -22 -12 -24 -10 -4 -10 -6 0 -6 15 -1 36 18 40
37 1 6 -5 12 -13 12 -8 0 -15 -9 -15 -19z"/>
<path d="M5495 1600 c-3 -5 -1 -10 4 -10 6 0 11 5 11 10 0 6 -2 10 -4 10 -3 0
-8 -4 -11 -10z"/>
<path d="M2290 1568 c11 -12 22 -19 25 -16 7 7 -23 38 -36 38 -5 0 -1 -10 11
-22z"/>
<path d="M5300 1565 c0 -8 34 -45 42 -45 5 0 8 7 8 15 0 8 -7 15 -15 15 -8 0
-15 5 -15 10 0 6 -4 10 -10 10 -5 0 -10 -2 -10 -5z"/>
<path d="M2281 1534 c0 -11 3 -14 6 -6 3 7 2 16 -1 19 -3 4 -6 -2 -5 -13z"/>
<path d="M5215 1540 c-4 -6 -3 -10 2 -10 4 0 1 -5 -7 -11 -12 -8 -10 -9 7 -4
18 5 22 3 17 -9 -5 -12 -2 -15 10 -10 21 8 20 16 -4 36 -11 10 -22 13 -25 8z"/>
<path d="M5270 1539 c0 -5 5 -7 10 -4 6 3 10 8 10 11 0 2 -4 4 -10 4 -5 0 -10
-5 -10 -11z"/>
<path d="M2775 1530 c3 -5 8 -10 11 -10 2 0 4 5 4 10 0 6 -5 10 -11 10 -5 0
-7 -4 -4 -10z"/>
<path d="M2245 1521 c-3 -5 -1 -12 4 -15 5 -3 11 1 15 9 6 16 -9 21 -19 6z"/>
<path d="M2195 1510 c-4 -7 0 -19 9 -28 15 -15 18 -15 26 -2 6 10 5 16 -3 19
-7 2 -15 8 -18 14 -4 5 -9 4 -14 -3z"/>
<path d="M5643 1490 c2 -32 5 -34 26 -21 11 7 9 13 -7 29 l-21 21 2 -29z"/>
<path d="M2135 1500 c3 -5 8 -10 11 -10 2 0 4 5 4 10 0 6 -5 10 -11 10 -5 0
-7 -4 -4 -10z"/>
<path d="M2154 1489 c-3 -6 -12 -8 -20 -5 -22 9 -43 -4 -37 -21 5 -12 3 -14
-7 -8 -10 6 -12 4 -7 -9 5 -12 2 -16 -11 -14 -12 2 -16 -3 -14 -15 3 -15 -1
-17 -17 -12 -27 8 -27 -6 -1 -23 14 -9 20 -9 20 -1 0 8 4 8 15 -1 11 -9 12
-16 2 -31 -12 -20 -37 -26 -37 -9 0 14 -12 12 -35 -6 -14 -11 -16 -18 -7 -21
14 -6 16 -39 2 -48 -5 -3 -10 -11 -10 -16 0 -6 5 -7 10 -4 6 3 10 1 10 -4 0
-6 5 -11 12 -11 9 0 9 3 0 12 -16 16 -15 31 1 25 16 -6 19 22 4 41 -6 8 -6 12
1 12 6 0 14 -4 17 -10 11 -18 23 -11 33 20 7 20 16 28 25 24 8 -3 17 3 21 13
4 10 2 19 -3 21 -6 2 -11 9 -11 15 0 8 4 7 12 -1 19 -19 31 -14 56 23 12 19
18 35 12 35 -5 0 -7 6 -4 14 6 16 -23 30 -32 15z m-33 -42 c-10 -9 -11 -8 -5
6 3 10 9 15 12 12 3 -3 0 -11 -7 -18z m24 -17 c3 -5 1 -10 -4 -10 -6 0 -11 5
-11 10 0 6 2 10 4 10 3 0 8 -4 11 -10z"/>
<path d="M2522 1463 l-33 -35 20 -19 c24 -23 31 -24 31 -5 0 8 8 17 18 19 16
4 16 5 -1 6 -16 1 -16 2 -1 27 27 41 3 46 -34 7z"/>
<path d="M3295 1464 c-26 -28 -32 -44 -16 -44 21 0 41 13 41 26 0 8 7 17 15
20 20 8 19 24 0 24 -9 0 -27 -12 -40 -26z"/>
<path d="M5325 1480 c-3 -5 -1 -10 4 -10 6 0 11 5 11 10 0 6 -2 10 -4 10 -3 0
-8 -4 -11 -10z"/>
<path d="M5422 1470 c-7 -12 -8 -20 -2 -20 5 0 10 5 10 11 0 5 5 7 10 4 6 -4
8 -11 5 -16 -12 -18 5 -29 25 -16 25 15 26 33 3 41 -10 3 -23 8 -28 11 -6 3
-16 -4 -23 -15z"/>
<path d="M5550 1479 c0 -5 5 -7 10 -4 6 3 10 8 10 11 0 2 -4 4 -10 4 -5 0 -10
-5 -10 -11z"/>
<path d="M2570 1460 c0 -5 5 -10 10 -10 6 0 10 5 10 10 0 6 -4 10 -10 10 -5 0
-10 -4 -10 -10z"/>
<path d="M2747 1456 c-4 -10 -1 -13 9 -9 7 3 14 9 14 14 0 14 -17 10 -23 -5z"/>
<path d="M3240 1460 c0 -5 5 -10 11 -10 5 0 7 5 4 10 -3 6 -8 10 -11 10 -2 0
-4 -4 -4 -10z"/>
<path d="M5290 1460 c0 -5 5 -10 10 -10 6 0 10 5 10 10 0 6 -4 10 -10 10 -5 0
-10 -4 -10 -10z"/>
<path d="M5580 1455 c0 -8 4 -15 10 -15 5 0 7 7 4 15 -4 8 -8 15 -10 15 -2 0
-4 -7 -4 -15z"/>
<path d="M5690 1461 c0 -5 7 -12 16 -15 24 -9 27 -7 10 9 -17 17 -26 19 -26 6z"/>
<path d="M1924 1445 c-3 -8 -3 -18 0 -24 3 -5 -4 -18 -17 -28 -13 -10 -39 -47
-57 -81 -19 -34 -37 -62 -41 -62 -4 0 -10 -13 -14 -29 -3 -16 -13 -35 -21 -42
-8 -6 -14 -28 -14 -49 0 -30 -5 -39 -25 -48 -31 -14 -50 -58 -34 -78 6 -8 9
-21 5 -29 -8 -21 4 -18 38 9 19 16 27 30 23 40 -10 25 10 65 37 77 28 13 40
47 24 66 -10 12 -1 17 23 15 3 -1 4 10 1 23 -2 15 0 25 7 25 6 0 11 7 11 15 0
8 4 15 8 15 8 0 12 21 13 70 1 27 27 52 47 45 7 -3 10 0 7 6 -4 5 -2 15 3 22
5 7 12 22 15 35 4 17 1 22 -14 22 -11 0 -22 -7 -25 -15z"/>
<path d="M5484 1417 c-34 -37 -40 -51 -15 -35 12 7 21 16 21 21 0 4 12 4 26 1
19 -5 25 -4 20 5 -4 6 -12 8 -18 5 -7 -5 -9 -1 -5 9 9 24 -4 21 -29 -6z"/>
<path d="M2378 1423 c7 -3 16 -2 19 1 4 3 -2 6 -13 5 -11 0 -14 -3 -6 -6z"/>
<path d="M5738 1423 c7 -3 16 -2 19 1 4 3 -2 6 -13 5 -11 0 -14 -3 -6 -6z"/>
<path d="M2398 1390 c-9 -10 -14 -21 -10 -24 6 -7 42 23 42 36 0 13 -14 8 -32
-12z"/>
<path d="M5347 1392 c-18 -20 -22 -32 -9 -32 4 0 12 11 19 25 13 30 12 31 -10
7z"/>
<path d="M5690 1390 c-13 -8 -12 -10 3 -10 9 0 17 5 17 10 0 12 -1 12 -20 0z"/>
<path d="M3102 1378 c-18 -18 -15 -28 7 -28 26 0 34 15 18 29 -10 8 -17 7 -25
-1z"/>
<path d="M5720 1369 c0 -5 5 -7 10 -4 6 3 10 8 10 11 0 2 -4 4 -10 4 -5 0 -10
-5 -10 -11z"/>
<path d="M2136 1355 c-3 -8 -1 -15 4 -15 13 0 22 18 11 24 -5 3 -11 -1 -15 -9z"/>
<path d="M5588 1356 c-19 -14 -23 -26 -10 -26 4 0 13 9 20 20 14 23 13 24 -10
6z"/>
<path d="M3246 1351 c-3 -5 5 -16 19 -25 14 -9 25 -12 25 -6 0 5 -4 10 -10 10
-5 0 -10 7 -10 15 0 16 -16 20 -24 6z"/>
<path d="M2295 1340 c-3 -5 -1 -10 4 -10 6 0 11 5 11 10 0 6 -2 10 -4 10 -3 0
-8 -4 -11 -10z"/>
<path d="M4960 1329 c0 -5 5 -7 10 -4 6 3 10 8 10 11 0 2 -4 4 -10 4 -5 0 -10
-5 -10 -11z"/>
<path d="M5600 1331 c0 -10 19 -25 25 -20 1 2 -3 10 -11 17 -8 7 -14 8 -14 3z"/>
<path d="M2275 1288 c0 -23 -6 -35 -21 -43 -11 -5 -19 -17 -17 -25 3 -10 -1
-8 -11 4 -12 14 -13 23 -5 33 8 9 8 13 0 13 -6 0 -11 -4 -11 -10 0 -14 -27
-13 -32 2 -2 6 -10 9 -17 7 -11 -4 -9 -9 5 -23 18 -18 17 -18 -4 -12 -18 6
-21 4 -15 -11 3 -10 13 -27 22 -37 15 -18 15 -19 -14 -12 -24 5 -26 4 -12 -4
22 -14 23 -45 1 -36 -10 4 -22 -1 -31 -11 -8 -10 -12 -13 -9 -7 8 16 -30 48
-49 41 -20 -8 -19 -27 2 -27 15 0 15 -1 0 -18 -21 -23 -21 -32 -2 -32 8 0 15
-5 15 -11 0 -7 -10 -9 -26 -5 -15 4 -32 2 -40 -5 -17 -14 -19 2 -1 20 10 11 8
12 -11 6 -14 -4 -29 -1 -39 7 -14 11 -15 10 -8 -11 6 -20 4 -22 -17 -17 -12 3
-17 3 -10 0 6 -3 10 -10 6 -15 -3 -5 -2 -14 2 -21 4 -6 6 -36 5 -65 -2 -53 4
-64 27 -41 8 8 12 8 12 1 0 -17 -28 -35 -42 -27 -13 8 9 -25 25 -37 10 -7 -3
-89 -14 -89 -5 0 -9 5 -9 11 0 8 -5 7 -15 -1 -9 -7 -13 -20 -10 -28 3 -8 0
-22 -7 -30 -11 -13 -10 -15 4 -9 12 4 21 -2 32 -24 14 -29 14 -30 -2 -24 -9 4
-25 7 -35 7 -10 0 -17 5 -16 11 1 7 -3 25 -10 41 -11 28 -12 28 -26 10 -15
-19 -15 -19 -31 1 -15 18 -16 18 -10 1 5 -14 2 -17 -9 -12 -10 3 -13 2 -10 -5
4 -6 13 -8 20 -5 12 4 30 -33 20 -43 -3 -2 -5 1 -5 7 0 16 -27 15 -33 0 -2 -7
-8 -9 -13 -5 -5 4 -3 12 5 16 10 7 10 12 0 29 -10 17 -10 23 4 36 8 9 21 16
27 16 6 0 8 5 5 10 -10 16 -33 11 -40 -9 -3 -10 -15 -21 -26 -24 -24 -7 -21
-30 6 -39 19 -6 19 -6 -2 -7 -31 -1 -73 16 -73 31 0 10 2 10 9 -1 5 -8 11 -9
15 -3 8 13 -10 26 -24 17 -12 -8 -13 -35 -2 -35 11 0 57 -39 51 -44 -13 -12
-50 -26 -45 -18 3 6 -3 14 -15 17 -12 4 -18 12 -15 21 7 19 -3 18 -26 -3 -11
-9 -18 -11 -18 -5 0 7 5 12 11 12 5 0 8 4 4 10 -4 6 -15 6 -30 0 -20 -7 -25
-6 -25 5 0 8 4 14 9 12 5 -1 9 3 10 8 0 6 -8 9 -19 7 -10 -2 -21 2 -25 8 -3 5
0 10 7 10 16 0 41 37 33 49 -3 5 4 7 15 4 14 -4 20 0 20 10 0 8 -5 17 -11 19
-17 6 27 49 53 50 36 2 50 17 33 35 -20 20 -19 34 2 26 15 -6 16 -5 3 9 -11
11 -17 12 -22 4 -4 -6 -8 -7 -8 -1 0 5 -24 -17 -54 -49 -30 -32 -52 -64 -50
-71 3 -6 -6 -20 -20 -29 -15 -9 -26 -21 -26 -26 0 -5 -17 -26 -38 -47 -21 -21
-44 -53 -52 -70 -7 -18 -16 -33 -21 -33 -5 0 -17 -8 -27 -18 -9 -9 -38 -33
-62 -52 -59 -46 -70 -56 -70 -69 0 -6 -41 -52 -91 -103 -110 -112 -120 -123
-147 -168 -12 -19 -55 -66 -97 -104 -42 -38 -73 -72 -69 -75 3 -3 67 -6 142
-7 358 -2 502 -9 502 -22 0 -11 13 -13 58 -8 31 3 114 5 185 5 121 0 127 0
127 20 0 11 15 36 34 55 18 20 28 36 22 36 -6 0 -1 8 10 18 51 41 73 134 40
171 -11 12 -15 27 -12 39 4 12 0 26 -9 36 -14 14 -14 17 4 35 10 10 23 26 28
36 6 9 18 15 27 14 15 -3 13 -10 -15 -39 -28 -29 -31 -35 -16 -38 9 -2 17 -8
17 -13 0 -5 19 -30 41 -54 29 -32 39 -49 32 -57 -5 -7 -9 -30 -9 -50 1 -21 -2
-38 -6 -38 -5 0 -8 -6 -8 -13 0 -18 -23 -67 -32 -67 -4 0 -5 -15 -3 -34 4 -28
1 -36 -15 -41 -11 -4 -18 -11 -15 -16 8 -12 41 -11 64 2 12 8 23 9 36 2 14 -8
24 -5 47 15 30 27 36 47 16 56 -9 3 -8 8 5 16 10 7 17 23 17 43 0 18 5 38 12
45 8 8 8 15 -2 26 -7 9 -10 23 -6 31 3 9 0 15 -9 15 -8 0 -15 6 -15 14 0 17
25 38 34 29 4 -4 4 1 0 11 -6 15 -3 17 14 12 11 -4 23 -2 27 4 3 5 14 10 24
10 10 0 30 9 45 21 23 18 27 18 32 5 9 -24 26 -19 19 5 -5 14 -3 20 7 18 43
-6 44 30 1 50 -14 7 -23 14 -20 17 8 8 68 -26 62 -35 -2 -5 7 -20 21 -34 25
-25 27 -25 51 -10 18 12 23 23 20 40 -3 16 3 31 19 46 16 16 20 25 12 34 -8
10 -5 13 12 13 14 0 20 5 17 13 -3 8 -1 20 3 27 6 9 0 22 -17 39 -22 23 -26
24 -34 8 -6 -9 -17 -17 -26 -17 -9 0 -13 -3 -10 -6 4 -4 -6 -18 -21 -30 -15
-13 -29 -19 -31 -13 -1 5 5 17 15 25 17 14 17 15 2 10 -10 -3 -25 -9 -33 -12
-8 -3 -15 -1 -15 5 0 6 7 11 16 11 9 0 18 9 21 20 3 11 9 20 14 20 5 0 9 4 9
9 0 5 -18 9 -40 9 -39 1 -40 0 -46 -38 -6 -34 -8 -37 -21 -25 -8 8 -22 15 -30
15 -9 0 -13 3 -10 7 4 3 0 15 -10 25 -15 17 -15 18 0 18 10 0 17 4 17 9 0 15
-18 23 -25 11 -3 -5 -13 -10 -22 -10 -11 0 -10 4 6 18 l22 17 -21 23 c-16 17
-25 20 -39 12 -16 -8 -18 -6 -16 19 1 15 9 41 17 58 15 29 14 30 -6 25 -18 -5
-19 -3 -8 11 19 22 5 42 -15 22 -8 -9 -18 -13 -21 -10 -3 3 4 14 15 24 19 18
22 18 38 3 17 -16 17 -16 12 0 -3 9 1 22 9 28 8 7 14 17 14 23 0 6 -6 2 -14
-9 -8 -10 -18 -16 -22 -12 -4 4 -1 15 7 24 13 16 12 16 -9 5 -28 -15 -39 -9
-17 9 18 15 20 37 3 43 -7 2 -10 8 -6 12 5 5 16 1 26 -8 27 -25 39 -21 15 6
-17 18 -30 87 -16 87 8 0 49 -26 55 -35 4 -5 10 -6 14 -3 13 13 -50 58 -73 53
-16 -4 -23 -1 -23 10 0 8 -7 15 -16 15 -11 0 -14 5 -10 16 3 9 6 19 6 23 0 4
11 13 25 19 20 9 25 9 23 -1 -3 -14 23 -57 34 -57 13 0 9 28 -4 33 -7 2 -10 8
-5 12 4 5 13 0 21 -10 8 -12 19 -16 31 -11 11 4 25 0 37 -11 19 -17 21 -17 39
6 10 13 19 19 19 15 0 -5 5 -2 10 6 7 12 12 12 22 2 10 -10 10 -15 -2 -22 -13
-8 -12 -11 5 -24 25 -19 32 -20 38 -3 3 9 7 9 20 -2 13 -10 20 -11 31 -2 15
13 46 5 46 -12 0 -5 9 -2 20 8 11 10 20 22 20 27 0 12 -28 10 -32 -4 -3 -7
-12 -6 -30 6 -16 10 -25 23 -21 32 3 8 0 14 -7 14 -7 0 -9 8 -5 20 4 13 2 20
-7 20 -19 -1 -45 -23 -41 -35 2 -6 -5 -11 -16 -11 -11 0 -17 5 -14 13 3 7 0
13 -6 13 -6 0 -11 -4 -11 -10 0 -5 -9 -10 -20 -10 -20 0 -27 14 -12 23 4 2 2
2 -5 1 -6 -2 -22 6 -34 17 l-22 19 23 22 24 22 -25 6 c-19 5 -25 2 -29 -14 -4
-15 -8 -17 -14 -8 -4 6 -5 16 -2 21 7 11 -3 41 -13 41 -3 0 -6 -14 -6 -32z
m215 -132 c0 -3 -4 -8 -10 -11 -5 -3 -10 -1 -10 4 0 6 5 11 10 11 6 0 10 -2
10 -4z m-381 -75 c16 -16 17 -20 5 -25 -23 -9 -5 -28 19 -21 21 6 21 6 3 -9
-15 -12 -17 -18 -7 -30 10 -12 8 -19 -10 -37 l-22 -22 7 28 c6 24 5 27 -7 16
-10 -8 -17 -9 -22 -1 -3 5 -1 10 5 10 8 0 10 9 6 27 -5 17 -3 29 6 34 11 7 11
12 0 29 -15 25 -8 26 17 1z m-129 -41 c0 -5 -5 -10 -11 -10 -5 0 -7 5 -4 10 3
6 8 10 11 10 2 0 4 -4 4 -10z m230 0 c0 -5 -7 -10 -15 -10 -8 0 -15 5 -15 10
0 6 7 10 15 10 8 0 15 -4 15 -10z m-30 -80 c0 -5 -4 -10 -9 -10 -6 0 -13 5
-16 10 -3 6 1 10 9 10 9 0 16 -4 16 -10z m-60 -50 c5 0 10 6 13 13 2 6 3 -4 3
-25 -1 -20 -4 -34 -9 -31 -4 2 -5 9 -2 14 4 5 2 9 -3 9 -14 0 -52 36 -46 43 4
3 13 0 21 -8 8 -8 18 -15 23 -15z m-50 -10 c0 -5 -4 -10 -10 -10 -5 0 -10 5
-10 10 0 6 5 10 10 10 6 0 10 -4 10 -10z m26 -37 c-10 -10 -19 5 -10 18 6 11
8 11 12 0 2 -7 1 -15 -2 -18z m-56 7 c0 -5 -4 -10 -10 -10 -5 0 -10 5 -10 10
0 6 5 10 10 10 6 0 10 -4 10 -10z m51 -48 c8 -12 19 -19 22 -15 4 3 7 -3 7
-14 0 -12 -7 -23 -15 -27 -10 -4 -15 1 -15 15 0 16 -4 19 -22 14 -18 -5 -20
-4 -8 4 12 8 12 13 2 23 -6 6 -12 16 -12 20 0 15 25 3 41 -20z m29 18 c0 -5
-2 -10 -4 -10 -3 0 -8 5 -11 10 -3 6 -1 10 4 10 6 0 11 -4 11 -10z m30 -26 c0
-8 -4 -12 -10 -9 -5 3 -10 10 -10 16 0 5 5 9 10 9 6 0 10 -7 10 -16z m-56 -99
c-7 -16 -24 -21 -24 -6 0 8 7 13 27 20 1 1 0 -6 -3 -14z m73 -29 c14 -13 22
-29 19 -35 -4 -6 -11 -9 -15 -6 -5 2 -17 -2 -27 -10 -25 -19 -32 -19 -30 3 1
20 22 36 36 27 6 -3 7 1 4 9 -7 18 -24 22 -24 5 0 -5 -4 -7 -10 -4 -6 4 -5 11
3 20 16 18 14 19 44 -9z m-107 -1 c7 -8 8 -15 2 -15 -5 0 -15 7 -22 15 -7 8
-8 15 -2 15 5 0 15 -7 22 -15z m-460 -29 c0 -2 -7 -7 -16 -10 -8 -3 -12 -2 -9
4 6 10 25 14 25 6z m47 -18 c-3 -8 -6 -5 -6 6 -1 11 2 17 5 13 3 -3 4 -12 1
-19z m292 -3 c13 -14 27 -25 32 -25 15 0 10 -28 -7 -34 -8 -3 -13 -2 -10 3 3
5 0 14 -8 20 -11 9 -15 9 -20 -1 -3 -7 -3 -2 0 11 5 20 3 23 -14 19 -15 -4
-18 -1 -15 13 7 25 13 24 42 -6z m41 15 c0 -5 -4 -10 -10 -10 -5 0 -10 5 -10
10 0 6 5 10 10 10 6 0 10 -4 10 -10z m-470 -30 c0 -5 -5 -10 -11 -10 -5 0 -7
5 -4 10 3 6 8 10 11 10 2 0 4 -4 4 -10z m674 -5 c6 -17 4 -18 -18 -9 -20 8
-21 24 -2 24 8 0 16 -7 20 -15z m94 -45 c13 0 13 -3 4 -12 -10 -10 -15 -10
-23 2 -8 11 -12 12 -16 3 -7 -18 -30 -16 -30 2 0 8 9 15 19 15 10 0 19 6 19
13 1 6 3 4 6 -5 2 -10 12 -18 21 -18z m-272 -22 c-3 -13 -3 -17 0 -10 5 10 12
8 30 -9 19 -18 21 -24 9 -35 -20 -20 -33 -17 -59 13 -19 22 -21 31 -12 45 16
26 39 23 32 -4z m171 16 c-3 -3 -12 -4 -19 -1 -8 3 -5 6 6 6 11 1 17 -2 13 -5z
m296 -34 c-10 -9 -22 -15 -27 -12 -4 2 -2 8 5 13 8 5 10 9 4 9 -5 0 -3 4 5 9
23 15 33 1 13 -19z m-110 3 c-7 -2 -13 -11 -13 -19 0 -8 -4 -14 -10 -14 -5 0
-10 4 -10 8 0 12 22 32 35 31 5 0 4 -3 -2 -6z m57 -62 c0 -3 -5 0 -12 7 -7 7
-20 12 -30 12 -16 0 -17 2 -6 14 11 11 16 10 30 -7 10 -11 18 -23 18 -26z
m-767 5 c4 -10 1 -13 -7 -10 -8 3 -17 1 -21 -5 -3 -6 -10 -11 -16 -11 -9 0 21
38 32 39 4 1 9 -6 12 -13z m751 -32 c7 -19 2 -18 -19 6 -16 17 -16 20 -3 15 9
-4 19 -13 22 -21z m-899 6 c3 -5 1 -10 -4 -10 -6 0 -11 5 -11 10 0 6 2 10 4
10 3 0 8 -4 11 -10z m735 6 c0 -2 -7 -7 -16 -10 -8 -3 -12 -2 -9 4 6 10 25 14
25 6z m-710 -26 c0 -5 -5 -10 -11 -10 -5 0 -7 5 -4 10 3 6 8 10 11 10 2 0 4
-4 4 -10z m816 -25 c-10 -8 -24 -11 -29 -8 -6 4 -2 10 9 14 31 12 40 9 20 -6z
m-1006 -5 c0 -5 -5 -10 -11 -10 -5 0 -7 5 -4 10 3 6 8 10 11 10 2 0 4 -4 4
-10z m170 0 c0 -5 -4 -10 -10 -10 -5 0 -10 5 -10 10 0 6 5 10 10 10 6 0 10 -4
10 -10z m220 0 c0 -5 -4 -10 -10 -10 -5 0 -10 5 -10 10 0 6 5 10 10 10 6 0 10
-4 10 -10z m420 -35 c0 -12 -29 -30 -36 -22 -2 1 -1 12 2 24 6 23 34 21 34 -2z
m-440 0 c0 -8 7 -15 16 -15 14 0 14 -3 4 -15 -16 -19 -31 -20 -24 -1 3 8 1 17
-5 21 -14 8 -14 25 -1 25 6 0 10 -7 10 -15z m-208 -91 c5 -3 4 -12 -3 -20 -9
-11 -48 -14 -190 -14 -178 0 -204 5 -179 35 9 11 45 13 187 9 97 -2 180 -7
185 -10z m161 -53 c18 -18 -33 -36 -95 -32 -18 1 -25 31 -10 45 9 9 93 -1 105
-13z m194 -45 c-20 -20 -34 -2 -16 20 8 10 16 11 22 5 6 -6 4 -15 -6 -25z
m-97 -23 c-1 -16 -30 -46 -37 -38 -5 4 -2 10 5 12 6 3 12 11 12 19 0 8 5 14
10 14 6 0 10 -3 10 -7z"/>
<path d="M2025 510 c3 -5 8 -10 11 -10 2 0 4 5 4 10 0 6 -5 10 -11 10 -5 0 -7
-4 -4 -10z"/>
<path d="M2125 1290 c-3 -5 -1 -10 4 -10 6 0 11 5 11 10 0 6 -2 10 -4 10 -3 0
-8 -4 -11 -10z"/>
<path d="M3450 1282 c0 -7 -4 -10 -10 -7 -5 3 -18 1 -29 -5 -14 -7 -22 -7 -26
1 -7 10 -35 -32 -35 -51 0 -13 42 -19 62 -9 15 8 18 6 18 -15 0 -23 3 -24 38
-21 30 3 41 0 51 -17 11 -19 11 -20 -4 -14 -15 5 -16 4 -5 -9 7 -8 22 -15 34
-15 13 0 40 -15 62 -33 21 -18 50 -34 64 -35 46 -2 72 -23 65 -52 -4 -16 -3
-20 3 -11 8 11 14 10 36 -4 15 -10 26 -13 26 -6 0 6 5 11 10 11 17 0 11 -14
-11 -28 -16 -10 -24 -10 -35 -1 -18 15 -18 2 0 -17 8 -8 22 -11 30 -8 9 3 23
0 32 -7 13 -10 17 -10 24 1 7 11 14 9 36 -13 18 -19 33 -25 46 -21 17 5 18 3
9 -14 -9 -16 -7 -21 10 -25 12 -3 18 -10 14 -16 -3 -6 0 -11 7 -11 7 0 22 -7
33 -16 17 -13 18 -16 5 -24 -8 -5 -10 -10 -5 -10 6 0 3 -5 -5 -11 -12 -8 -11
-9 5 -5 15 4 33 -5 64 -35 31 -30 46 -38 54 -30 16 16 40 14 34 -3 -3 -8 -1
-17 6 -19 9 -3 9 -8 -2 -20 -11 -14 -11 -18 3 -23 12 -5 13 -10 5 -25 -8 -16
-6 -19 18 -21 15 0 36 0 47 1 10 0 24 -3 30 -8 6 -5 38 -10 71 -10 33 -1 69
-2 80 -4 17 -2 20 5 23 40 3 45 -44 152 -92 210 -17 21 -24 37 -19 49 5 14 3
16 -13 10 -55 -21 -68 -18 -115 27 -37 36 -51 44 -72 40 -15 -3 -27 -9 -27
-13 0 -5 -11 -3 -25 3 -14 7 -25 18 -25 25 0 6 -9 12 -21 12 -11 0 -18 3 -15
8 2 4 -7 12 -20 19 -13 6 -24 7 -24 2 0 -13 -27 -11 -35 2 -4 6 1 17 11 24 11
8 14 15 7 15 -6 0 -15 -5 -18 -10 -5 -8 -11 -7 -21 1 -7 6 -21 8 -30 5 -10 -4
-25 1 -35 10 -11 10 -33 17 -51 16 -25 -1 -40 8 -68 36 -19 21 -40 46 -46 57
-7 13 -22 19 -45 20 -22 0 -33 5 -31 13 1 6 -3 12 -9 12 -12 0 -49 38 -49 50
0 4 -13 13 -30 20 -16 7 -30 15 -30 19 0 4 -9 7 -20 7 -11 0 -20 -6 -20 -14z
m285 -222 c-3 -5 -10 -10 -16 -10 -5 0 -9 5 -9 10 0 6 7 10 16 10 8 0 12 -4 9
-10z m365 -300 c0 -5 -5 -10 -11 -10 -5 0 -7 5 -4 10 3 6 8 10 11 10 2 0 4 -4
4 -10z m50 0 c0 -5 -5 -10 -11 -10 -5 0 -7 5 -4 10 3 6 8 10 11 10 2 0 4 -4 4
-10z"/>
<path d="M5016 1249 c19 -27 34 -54 34 -60 0 -6 6 -9 13 -6 31 11 -8 87 -55
105 l-27 10 35 -49z"/>
<path d="M3298 1283 c7 -3 16 -2 19 1 4 3 -2 6 -13 5 -11 0 -14 -3 -6 -6z"/>
<path d="M5487 1271 c9 -11 21 -17 26 -14 6 3 2 12 -8 20 -27 19 -37 16 -18
-6z"/>
<path d="M2055 1260 c-3 -5 -1 -10 4 -10 6 0 11 5 11 10 0 6 -2 10 -4 10 -3 0
-8 -4 -11 -10z"/>
<path d="M2370 1260 c0 -5 5 -10 10 -10 6 0 10 5 10 10 0 6 -4 10 -10 10 -5 0
-10 -4 -10 -10z"/>
<path d="M2490 1260 c0 -5 5 -10 11 -10 5 0 7 5 4 10 -3 6 -8 10 -11 10 -2 0
-4 -4 -4 -10z"/>
<path d="M3665 1260 c-3 -5 -1 -10 4 -10 6 0 11 5 11 10 0 6 -2 10 -4 10 -3 0
-8 -4 -11 -10z"/>
<path d="M5230 1259 c0 -5 5 -7 10 -4 6 3 10 8 10 11 0 2 -4 4 -10 4 -5 0 -10
-5 -10 -11z"/>
<path d="M5785 1260 c-3 -5 -1 -10 4 -10 6 0 11 5 11 10 0 6 -2 10 -4 10 -3 0
-8 -4 -11 -10z"/>
<path d="M1948 1253 c6 -2 12 -11 12 -19 0 -9 5 -12 10 -9 13 8 -6 35 -24 34
-7 0 -6 -2 2 -6z"/>
<path d="M5302 1234 c10 -10 20 -16 22 -13 3 3 -5 11 -17 18 -21 13 -21 12 -5
-5z"/>
<path d="M5805 1230 c3 -5 8 -10 11 -10 2 0 4 5 4 10 0 6 -5 10 -11 10 -5 0
-7 -4 -4 -10z"/>
<path d="M5260 1218 c0 -9 5 -20 10 -23 13 -8 13 5 0 25 -8 13 -10 13 -10 -2z"/>
<path d="M5470 1220 c0 -5 5 -10 11 -10 5 0 7 5 4 10 -3 6 -8 10 -11 10 -2 0
-4 -4 -4 -10z"/>
<path d="M1942 1200 c0 -14 2 -19 5 -12 2 6 2 18 0 25 -3 6 -5 1 -5 -13z"/>
<path d="M1987 1201 c-4 -17 -2 -18 13 -8 10 6 16 15 14 19 -9 14 -22 9 -27
-11z"/>
<path d="M5940 1204 c0 -8 5 -12 10 -9 6 4 8 11 5 16 -9 14 -15 11 -15 -7z"/>
<path d="M5560 1190 c8 -5 20 -10 25 -10 6 0 3 5 -5 10 -8 5 -19 10 -25 10 -5
0 -3 -5 5 -10z"/>
<path d="M2635 1179 c4 -6 -2 -13 -14 -16 -12 -3 -21 -8 -21 -12 1 -13 27 -40
34 -34 3 4 14 -3 22 -16 13 -17 19 -20 30 -10 14 12 20 34 7 26 -5 -3 -18 -1
-29 3 -17 7 -21 15 -18 39 2 17 -1 31 -7 31 -6 0 -7 -5 -4 -11z"/>
<path d="M5520 1180 c0 -5 5 -10 10 -10 6 0 10 5 10 10 0 6 -4 10 -10 10 -5 0
-10 -4 -10 -10z"/>
<path d="M2783 1157 c-8 -17 -7 -26 5 -37 14 -13 15 -12 9 3 -3 9 -2 19 3 22
6 4 10 -2 11 -12 0 -16 1 -16 8 2 17 43 -17 64 -36 22z"/>
<path d="M3090 1164 c0 -9 8 -22 17 -29 14 -11 15 -16 5 -28 -9 -10 -10 -17
-2 -22 5 -3 10 -16 10 -27 0 -12 3 -18 7 -15 12 13 33 -16 33 -45 0 -16 7 -36
15 -45 11 -11 13 -19 5 -28 -7 -9 -6 -16 5 -25 8 -7 15 -24 15 -39 0 -47 14
-57 83 -60 17 -1 17 -2 3 -17 -19 -18 -20 -30 -5 -39 6 -4 8 -14 4 -23 -3 -9
-3 -13 1 -9 4 3 16 -10 27 -31 11 -20 26 -41 34 -47 7 -6 15 -24 17 -40 2 -18
10 -31 20 -33 9 -2 16 -10 16 -17 0 -8 16 -27 35 -42 19 -15 35 -33 35 -40 0
-6 10 -20 23 -30 22 -17 26 -43 7 -43 -5 0 -32 -13 -60 -30 -28 -16 -57 -30
-64 -30 -7 0 -35 -9 -62 -21 -94 -40 -109 -46 -144 -59 -19 -7 -49 -19 -67
-26 -17 -8 -37 -14 -43 -14 -9 0 -10 -3 -1 -14 14 -17 -5 -26 -52 -26 -39 0
-98 -16 -157 -42 -178 -80 -216 -89 -186 -44 7 12 15 35 18 53 4 27 1 33 -19
38 -29 7 -43 -1 -43 -24 0 -23 -39 -73 -51 -66 -14 9 -10 -21 5 -34 7 -6 34
-14 60 -17 26 -4 50 -13 53 -20 4 -11 34 -14 130 -14 106 0 124 2 114 14 -9
11 -6 15 19 18 24 4 30 1 30 -14 0 -16 9 -18 66 -18 37 0 63 4 59 9 -8 14 31
23 67 16 22 -5 27 -9 17 -16 -8 -5 39 -9 119 -9 127 0 132 1 132 21 0 18 -5
20 -45 16 -38 -3 -46 -1 -51 17 -4 12 -2 22 5 24 6 2 8 8 5 14 -4 7 2 7 17 2
13 -4 54 -7 91 -6 68 0 82 -6 83 -38 0 -9 8 -14 20 -12 11 1 48 4 82 5 56 2
63 5 78 30 22 37 58 37 53 0 -3 -25 1 -28 28 -31 27 -3 32 1 37 25 4 18 1 32
-9 39 -19 15 -18 24 4 24 9 0 23 9 30 20 9 15 19 19 37 14 20 -5 25 -2 25 14
0 11 -6 23 -12 25 -7 3 -1 6 14 6 15 1 39 12 53 26 30 31 30 31 5 38 -11 3
-20 1 -20 -4 0 -5 -6 -9 -12 -9 -7 0 -33 -18 -58 -41 -90 -82 -133 -94 -143
-39 -4 15 -13 35 -22 44 -9 9 -13 20 -10 26 3 5 2 10 -4 10 -5 0 -13 9 -16 21
-4 12 -12 18 -21 15 -8 -3 -14 1 -14 9 0 8 -6 12 -14 9 -9 -4 -16 5 -20 28 -4
22 -20 45 -51 71 -25 21 -45 43 -45 48 0 9 -11 23 -63 84 -15 18 -34 49 -42
68 -8 20 -33 54 -55 77 -22 22 -40 47 -40 55 0 14 -6 23 -50 72 -11 13 -19 31
-17 41 3 27 -85 198 -108 208 -11 5 -20 18 -20 29 0 25 -32 85 -45 85 -6 0
-10 -7 -10 -16z m480 -826 c0 -6 -6 -5 -15 2 -8 7 -15 14 -15 16 0 2 7 1 15
-2 8 -4 15 -11 15 -16z m1 -25 c-10 -4 -11 -7 -1 -13 10 -6 6 -15 -12 -33 -29
-29 -43 -25 -26 6 8 16 8 22 -1 25 -19 6 -4 17 26 18 15 1 22 -1 14 -3z m-116
-21 c7 -18 -4 -34 -17 -26 -6 4 -8 2 -4 -4 3 -6 2 -13 -3 -16 -14 -9 -21 20
-8 33 9 9 8 14 -3 21 -11 7 -10 9 7 7 13 0 25 -7 28 -15z m25 -32 c0 -5 -5
-10 -11 -10 -5 0 -7 5 -4 10 3 6 8 10 11 10 2 0 4 -4 4 -10z m120 -34 c-9 -12
-9 -16 -1 -16 7 0 9 -4 6 -10 -3 -5 0 -10 8 -10 8 0 17 -9 20 -21 3 -12 10
-18 16 -14 6 3 11 1 11 -5 0 -7 8 -9 20 -5 11 3 20 3 20 -2 0 -4 -9 -14 -20
-21 -17 -10 -20 -10 -20 4 0 10 -6 14 -14 11 -8 -3 -17 1 -20 9 -3 8 -12 14
-21 14 -8 0 -14 5 -12 11 1 6 -4 14 -10 16 -7 3 -13 0 -13 -6 0 -6 -5 -11 -11
-11 -8 0 -8 4 1 15 10 11 9 18 -4 31 -18 17 -13 34 10 34 8 0 14 5 14 12 0 8
6 6 17 -4 13 -14 14 -20 3 -32z m-280 24 c0 -5 -7 -10 -15 -10 -8 0 -15 5 -15
10 0 6 7 10 15 10 8 0 15 -4 15 -10z m-22 -30 c3 -7 0 -10 -6 -6 -6 3 -13 2
-16 -3 -7 -11 19 -63 27 -54 4 3 7 1 7 -6 0 -7 -7 -11 -15 -8 -21 9 -28 -9 -9
-27 8 -9 11 -16 6 -16 -5 0 -15 7 -22 15 -7 8 -19 15 -26 15 -8 0 -11 6 -7 16
3 9 0 20 -8 25 -9 6 -10 9 -2 9 6 0 15 -5 18 -10 7 -12 25 -4 25 11 0 5 -7 9
-15 9 -19 0 -19 6 3 29 19 21 33 22 40 1z m48 3 c0 -10 5 -17 12 -15 6 1 12
-2 12 -8 0 -5 -7 -10 -15 -10 -8 0 -15 5 -15 11 0 6 -7 9 -15 5 -13 -4 -14 -2
-5 14 13 25 28 26 26 3z m184 -4 c0 -14 -16 -11 -29 5 -10 12 -8 13 8 9 12 -3
21 -9 21 -14z m-70 -39 c0 -5 -4 -10 -9 -10 -6 0 -13 5 -16 10 -3 6 1 10 9 10
9 0 16 -4 16 -10z m84 -37 c3 -7 -1 -13 -8 -13 -8 0 -16 6 -19 13 -3 8 1 14 9
14 7 0 15 -6 18 -14z m-154 -13 c8 -5 11 -12 8 -16 -4 -3 -14 1 -23 10 -18 17
-9 21 15 6z m117 -12 c-3 -8 -6 -5 -6 6 -1 11 2 17 5 13 3 -3 4 -12 1 -19z
m-377 8 c0 -3 -4 -8 -10 -11 -5 -3 -10 -1 -10 4 0 6 5 11 10 11 6 0 10 -2 10
-4z"/>
<path d="M3580 240 c-13 -8 -12 -10 3 -10 9 0 17 5 17 10 0 12 -1 12 -20 0z"/>
<path d="M5166 1161 c-4 -7 -5 -15 -2 -18 9 -9 19 4 14 18 -4 11 -6 11 -12 0z"/>
<path d="M5702 1157 c18 -19 38 -22 38 -7 0 6 -4 10 -9 10 -5 0 -18 3 -28 7
-17 6 -17 6 -1 -10z"/>
<path d="M5380 1151 c0 -6 5 -13 10 -16 6 -3 10 1 10 9 0 9 -4 16 -10 16 -5 0
-10 -4 -10 -9z"/>
<path d="M5678 1138 c10 -13 10 -17 -3 -22 -9 -3 -14 -2 -11 3 3 5 -1 12 -10
15 -24 9 -29 7 -16 -6 7 -7 12 -22 12 -35 0 -13 5 -23 11 -23 6 0 9 -7 6 -15
-10 -24 9 -26 34 -4 17 14 20 22 11 26 -10 4 -10 8 -1 19 9 11 9 14 0 14 -7 0
-10 4 -7 8 2 4 -5 14 -17 22 -20 12 -21 11 -9 -2z"/>
<path d="M1854 1125 c8 -8 17 -15 20 -15 3 0 3 7 0 15 -4 8 -13 15 -21 15 -12
0 -12 -2 1 -15z"/>
<path d="M1970 1120 c-9 -6 -10 -10 -3 -10 6 0 15 5 18 10 8 12 4 12 -15 0z"/>
<path d="M5746 1118 c3 -4 9 -8 15 -8 5 0 9 4 9 8 0 5 -7 9 -15 9 -8 0 -12 -4
-9 -9z"/>
<path d="M1818 1093 c-27 -14 -41 -41 -15 -29 6 3 20 9 30 12 9 4 17 13 17 20
0 8 -1 14 -2 13 -2 -1 -15 -8 -30 -16z"/>
<path d="M2710 1090 c-6 -12 -9 -24 -7 -27 3 -2 11 5 17 17 6 12 9 24 7 27 -3
2 -11 -5 -17 -17z"/>
<path d="M2250 1090 c0 -5 4 -10 9 -10 16 0 61 -46 53 -54 -4 -4 -7 -13 -7
-19 0 -6 -11 -14 -25 -18 -22 -5 -23 -7 -7 -14 10 -4 27 -1 42 9 13 9 31 16
40 16 22 0 18 28 -5 35 -11 3 -20 11 -20 16 0 6 -13 15 -30 20 -16 6 -30 15
-30 20 0 5 -4 9 -10 9 -5 0 -10 -4 -10 -10z"/>
<path d="M2330 1085 c0 -2 12 -16 26 -30 21 -21 29 -24 40 -14 19 16 -2 42
-27 34 -11 -4 -19 -2 -19 4 0 6 -4 11 -10 11 -5 0 -10 -2 -10 -5z"/>
<path d="M5316 1067 c3 -10 9 -15 12 -12 3 3 0 11 -7 18 -10 9 -11 8 -5 -6z"/>
<path d="M2525 1060 c-3 -5 -1 -10 4 -10 6 0 11 5 11 10 0 6 -2 10 -4 10 -3 0
-8 -4 -11 -10z"/>
<path d="M5445 1049 c-8 -11 22 -49 38 -49 6 0 3 8 -6 18 -23 25 -21 35 2 22
30 -15 39 -11 11 5 -30 17 -37 18 -45 4z"/>
<path d="M2240 1010 c0 -5 5 -10 10 -10 6 0 10 5 10 10 0 6 -4 10 -10 10 -5 0
-10 -4 -10 -10z"/>
<path d="M2512 1009 c2 -7 10 -15 17 -17 8 -3 12 1 9 9 -2 7 -10 15 -17 17 -8
3 -12 -1 -9 -9z"/>
<path d="M5501 989 c-19 -18 -25 -19 -32 -8 -6 11 -11 11 -21 1 -9 -9 -9 -12
4 -12 9 0 19 -6 21 -12 4 -9 14 -4 30 14 14 15 28 24 33 20 4 -4 4 -1 0 6 -9
15 -8 16 -35 -9z"/>
<path d="M2557 976 c-3 -8 1 -17 10 -20 23 -9 28 1 10 18 -13 13 -16 13 -20 2z"/>
<path d="M5667 976 c-3 -8 1 -17 9 -20 23 -9 34 -7 34 5 0 6 -7 8 -16 5 -8 -3
-12 -2 -9 3 3 5 1 12 -4 15 -5 3 -11 0 -14 -8z"/>
<path d="M2302 954 c-7 -8 -8 -14 -3 -14 10 0 25 19 20 25 -2 1 -10 -3 -17
-11z"/>
<path d="M2470 961 c0 -6 4 -13 10 -16 6 -3 7 1 4 9 -7 18 -14 21 -14 7z"/>
<path d="M2368 933 c6 -2 18 -2 25 0 6 3 1 5 -13 5 -14 0 -19 -2 -12 -5z"/>
<path d="M2265 920 c4 -6 11 -8 16 -5 14 9 11 15 -7 15 -8 0 -12 -5 -9 -10z"/>
<path d="M2306 913 c-10 -10 -7 -25 4 -18 16 10 11 -31 -5 -45 -10 -9 -15 -9
-15 -1 0 6 -5 11 -11 11 -8 0 -8 -5 1 -15 15 -18 7 -19 -23 -4 -21 9 -21 9 -3
-5 10 -8 15 -19 11 -25 -3 -7 0 -8 9 -5 9 3 16 10 16 15 0 5 5 9 10 9 13 0 9
-32 -5 -42 -12 -10 12 -28 37 -28 19 0 52 29 43 39 -4 3 -11 -2 -16 -12 -10
-18 -49 -24 -49 -8 0 5 9 13 20 16 11 4 18 10 16 14 -7 10 31 41 50 41 14 0
14 2 0 16 -9 8 -22 14 -29 11 -6 -2 -22 6 -33 19 -12 12 -25 20 -28 17z m49
-63 c-3 -5 -10 -10 -16 -10 -5 0 -9 5 -9 10 0 6 7 10 16 10 8 0 12 -4 9 -10z"/>
<path d="M2640 902 c0 -5 7 -15 15 -22 8 -7 15 -9 15 -6 0 4 -7 14 -15 22 -8
9 -15 11 -15 6z"/>
<path d="M5586 898 c3 -4 9 -8 15 -8 5 0 9 4 9 8 0 5 -7 9 -15 9 -8 0 -12 -4
-9 -9z"/>
<path d="M2460 890 c-9 -6 -10 -10 -3 -10 6 0 15 5 18 10 8 12 4 12 -15 0z"/>
<path d="M2520 850 c0 -5 5 -10 11 -10 5 0 7 5 4 10 -3 6 -8 10 -11 10 -2 0
-4 -4 -4 -10z"/>
<path d="M1705 824 c9 -9 19 -13 23 -10 3 4 0 11 -8 16 -24 15 -33 11 -15 -6z"/>
<path d="M1837 826 c-11 -8 -14 -17 -8 -20 5 -4 15 3 21 14 13 23 11 24 -13 6z"/>
<path d="M2240 791 c0 -5 7 -12 16 -15 14 -5 15 -4 4 9 -14 17 -20 19 -20 6z"/>
<path d="M2636 785 c4 -8 8 -15 10 -15 2 0 4 7 4 15 0 8 -4 15 -10 15 -5 0 -7
-7 -4 -15z"/>
<path d="M4733 777 c-10 -13 -28 -29 -41 -36 -25 -13 -28 -43 -11 -104 16 -57
17 -157 3 -194 -7 -18 -11 -33 -8 -33 3 0 -12 -22 -34 -48 -39 -46 -40 -49
-21 -60 12 -8 19 -8 19 -2 0 6 18 30 40 53 23 23 43 53 46 67 3 14 13 40 21
58 8 19 19 64 24 100 5 37 13 81 18 98 11 39 7 90 -9 109 -17 20 -25 19 -47
-8z"/>
<path d="M1640 784 c0 -13 18 -39 24 -34 2 3 -2 14 -10 24 -8 11 -14 16 -14
10z"/>
<path d="M1607 756 c-4 -10 -1 -13 8 -9 8 3 12 9 9 14 -7 12 -11 11 -17 -5z"/>
<path d="M2210 765 c0 -2 16 -20 35 -40 39 -38 45 -41 45 -22 0 7 -13 21 -30
30 -16 10 -30 22 -30 28 0 5 -4 9 -10 9 -5 0 -10 -2 -10 -5z"/>
<path d="M2275 750 c3 -5 11 -10 16 -10 6 0 7 5 4 10 -3 6 -11 10 -16 10 -6 0
-7 -4 -4 -10z"/>
<path d="M2342 723 c-15 -15 -7 -32 32 -65 16 -12 24 -14 34 -5 10 8 16 7 22
-3 5 -8 12 -11 16 -8 3 4 -1 15 -10 24 -13 12 -20 14 -29 5 -15 -15 -24 -14
-31 5 -4 11 -2 15 7 11 7 -3 13 3 13 14 0 17 -2 17 -18 3 -9 -9 -22 -13 -29
-8 -9 5 -8 10 5 20 9 6 14 14 9 17 -4 3 -14 -2 -21 -10z"/>
<path d="M4050 710 c0 -5 5 -10 10 -10 6 0 10 5 10 10 0 6 -4 10 -10 10 -5 0
-10 -4 -10 -10z"/>
<path d="M1686 676 c3 -9 11 -16 16 -16 13 0 5 23 -10 28 -7 2 -10 -2 -6 -12z"/>
<path d="M2524 664 c3 -9 6 -18 6 -20 0 -3 5 -2 10 1 6 3 10 1 10 -6 0 -7 3
-10 6 -7 7 8 -18 48 -29 48 -5 0 -6 -7 -3 -16z"/>
<path d="M2300 631 c0 -5 5 -13 10 -16 6 -3 10 -2 10 4 0 5 -4 13 -10 16 -5 3
-10 2 -10 -4z"/>
<path d="M2575 629 c-10 -15 3 -25 16 -12 7 7 7 13 1 17 -6 3 -14 1 -17 -5z"/>
<path d="M4102 585 c-11 -13 -9 -15 12 -15 18 0 24 4 20 15 -8 19 -15 18 -32
0z"/>
<path d="M3080 510 c0 -5 5 -10 10 -10 6 0 10 5 10 10 0 6 -4 10 -10 10 -5 0
-10 -4 -10 -10z"/>
<path d="M5186 501 c-3 -5 1 -11 9 -15 8 -3 15 -1 15 4 0 13 -18 22 -24 11z"/>
<path d="M3112 476 c-1 -15 1 -17 7 -8 5 8 12 13 17 12 5 -1 10 3 12 9 2 5 -5
9 -15 8 -11 0 -20 -9 -21 -21z"/>
<path d="M4990 479 c0 -5 5 -7 10 -4 6 3 10 8 10 11 0 2 -4 4 -10 4 -5 0 -10
-5 -10 -11z"/>
<path d="M4955 414 c-13 -14 -23 -30 -22 -34 1 -4 -6 -16 -15 -27 -52 -55 -86
-101 -92 -120 -6 -19 -4 -23 15 -23 27 0 101 78 130 138 12 23 30 47 41 53 19
10 19 11 1 24 -25 20 -31 19 -58 -11z"/>
<path d="M5194 409 c-1 -28 0 -29 15 -15 13 14 13 18 1 31 -13 12 -15 10 -16
-16z"/>
<path d="M5147 363 c-11 -13 -13 -23 -6 -36 8 -13 6 -17 -6 -17 -9 0 -15 -9
-15 -22 0 -14 -13 -34 -32 -50 l-33 -27 37 -1 c27 0 41 6 50 20 7 11 18 20 25
20 7 0 13 5 13 10 0 6 -4 10 -8 10 -4 0 -8 9 -9 19 -1 14 3 18 15 14 13 -4 14
-3 3 5 -7 5 -10 15 -7 21 4 6 1 11 -6 11 -9 0 -9 3 2 10 10 6 12 12 4 20 -7 7
-15 5 -27 -7z"/>
<path d="M2355 340 c-4 -6 -3 -16 3 -22 8 -8 6 -15 -4 -25 -19 -19 -39 -6 -22
15 11 13 11 14 -2 10 -8 -3 -14 -15 -13 -26 2 -16 -2 -20 -15 -15 -13 4 -13 2
3 -10 11 -9 31 -14 45 -11 14 2 19 1 13 -2 -7 -3 -13 -11 -13 -16 0 -13 -59
-68 -72 -68 -5 0 -6 -4 -3 -10 3 -5 1 -10 -6 -10 -8 0 -7 -5 2 -17 13 -15 12
-15 -7 -5 -19 10 -22 9 -26 -12 -4 -17 -1 -23 9 -19 7 3 13 0 13 -6 0 -6 -4
-11 -10 -11 -5 0 -10 -7 -10 -15 0 -8 -3 -15 -7 -15 -5 0 -21 -11 -38 -25
l-30 -24 52 -1 c41 0 51 3 47 14 -3 9 7 21 25 32 34 20 47 44 30 54 -8 6 -8 9
0 14 6 4 9 12 6 17 -4 5 1 9 9 9 9 0 16 7 16 16 0 8 5 12 10 9 6 -3 10 -1 10
4 0 6 -4 11 -10 11 -21 0 -9 36 19 55 16 10 27 23 25 27 -3 4 -1 8 4 8 15 0
22 41 11 62 -8 14 -14 16 -23 9 -9 -7 -16 -7 -23 0 -8 8 -13 7 -18 -1z"/>
<path d="M2293 324 c-15 -16 -16 -24 -4 -24 8 0 24 30 19 35 -2 2 -9 -3 -15
-11z"/>
<path d="M3013 295 c0 -8 7 -15 15 -15 7 0 12 5 10 12 -6 18 -25 21 -25 3z"/>
<path d="M2570 288 c0 -7 -11 -22 -24 -33 -22 -18 -22 -22 -8 -37 14 -17 13
-18 -19 -19 -19 0 -28 -3 -21 -6 9 -3 10 -9 3 -17 -11 -13 -10 -34 3 -55 7
-11 5 -13 -7 -8 -10 4 -17 1 -17 -6 0 -7 -9 -23 -19 -36 -27 -35 -16 -71 20
-71 26 0 29 3 29 34 0 19 6 37 13 39 9 4 8 8 -3 16 -13 9 -12 11 3 11 10 0 16
4 12 9 -3 5 -1 12 5 16 5 3 10 11 10 16 0 6 -4 7 -10 4 -5 -3 -10 -1 -10 4 0
6 5 11 11 11 5 0 8 4 5 9 -8 12 17 61 32 61 7 0 12 14 12 35 0 19 -4 35 -10
35 -5 0 -10 -6 -10 -12z"/>
<path d="M2236 282 c-3 -4 4 -9 15 -9 23 -2 25 3 4 10 -8 4 -16 3 -19 -1z"/>
<path d="M2773 265 c-10 -23 -9 -25 17 -25 22 0 27 4 26 22 -1 32 -29 33 -43
3z"/>
<path d="M2922 264 c3 -15 11 -19 42 -17 46 3 54 9 38 25 -9 9 -12 9 -12 -1 0
-12 -13 -10 -59 7 -9 3 -12 -1 -9 -14z"/>
<path d="M2678 240 l-33 -29 28 -1 c20 0 30 -6 34 -20 3 -13 14 -20 29 -20 17
0 24 6 24 20 0 11 -6 20 -13 20 -23 0 -37 21 -26 42 15 28 -6 22 -43 -12z"/>
<path d="M2289 246 c-1 -3 -2 -9 -3 -13 -1 -5 -5 -14 -9 -20 -5 -8 -4 -13 2
-13 6 0 11 5 11 11 0 6 7 8 16 5 11 -4 14 -1 12 11 -3 16 -27 31 -29 19z"/>
<path d="M4086 195 c-3 -9 -18 -15 -35 -15 -18 0 -31 -6 -35 -17 -9 -21 1 -29
45 -37 35 -6 35 -6 31 22 -4 29 -3 29 59 36 44 5 58 10 48 17 -24 15 -106 11
-113 -6z"/>
<path d="M4364 198 c-4 -6 -2 -14 4 -16 7 -2 18 -9 25 -16 7 -8 21 -10 32 -6
19 7 19 7 -2 14 -13 4 -23 14 -23 22 0 17 -26 19 -36 2z"/>
<path d="M4496 191 c5 -5 20 -12 34 -16 18 -5 22 -4 14 4 -6 6 -21 14 -34 16
-14 3 -20 1 -14 -4z"/>
<path d="M4655 190 c-3 -5 3 -10 14 -10 12 0 21 5 21 10 0 6 -6 10 -14 10 -8
0 -18 -4 -21 -10z"/>
<path d="M4750 134 c-25 -19 -51 -48 -59 -62 -8 -15 -22 -33 -33 -40 -28 -20
-22 -32 16 -32 29 0 43 10 100 71 37 40 65 77 63 83 -8 23 -44 15 -87 -20z"/>
<path d="M4992 141 c-12 -10 -22 -23 -22 -29 0 -5 -12 -18 -27 -28 -16 -10
-34 -24 -41 -31 -8 -7 -22 -18 -33 -23 -31 -17 -22 -30 22 -30 35 0 46 6 84
47 25 27 45 51 45 56 0 4 7 7 15 7 8 0 12 6 9 13 -3 8 5 18 18 25 21 10 21 11
-13 11 -22 1 -45 -6 -57 -18z"/>
<path d="M2360 135 c-20 -24 -4 -29 19 -6 14 14 17 21 7 21 -7 0 -19 -7 -26
-15z"/>
<path d="M4120 126 c0 -2 7 -6 15 -10 8 -3 15 -1 15 4 0 6 -7 10 -15 10 -8 0
-15 -2 -15 -4z"/>
<path d="M3885 101 c-33 -19 -40 -47 -12 -45 9 1 17 -4 17 -11 0 -18 68 -29
86 -14 9 7 29 9 55 5 31 -5 40 -3 37 6 -3 7 -21 14 -42 16 -34 3 -37 6 -32 27
10 39 -54 48 -109 16z"/>
<path d="M4508 107 c-16 -6 -28 -17 -28 -24 0 -7 -8 -13 -17 -13 -15 0 -15 -2
3 -20 26 -27 53 -18 46 16 -3 17 2 30 14 39 22 17 19 17 -18 2z"/>
<path d="M4179 94 c-10 -13 -10 -17 2 -25 18 -11 20 -11 44 7 17 13 18 16 5
24 -22 14 -36 12 -51 -6z"/>
<path d="M1890 40 c0 -5 4 -10 9 -10 6 0 13 5 16 10 3 6 -1 10 -9 10 -9 0 -16
-4 -16 -10z"/>
<path d="M1930 40 c0 -5 5 -10 10 -10 6 0 10 5 10 10 0 6 -4 10 -10 10 -5 0
-10 -4 -10 -10z"/>
<path d="M4150 20 c0 -16 7 -20 30 -20 34 0 38 7 13 26 -26 19 -43 17 -43 -6z"/>
<path d="M4314 20 c0 -14 7 -20 24 -20 17 0 23 5 20 18 -5 26 -44 28 -44 2z"/>
<path d="M740 10 c0 -5 7 -10 15 -10 8 0 15 5 15 10 0 6 -7 10 -15 10 -8 0
-15 -4 -15 -10z"/>
<path d="M4240 9 c0 -5 5 -7 10 -4 6 3 10 8 10 11 0 2 -4 4 -10 4 -5 0 -10 -5
-10 -11z"/>
</g>
</svg>
